<svg width="84" height="61" viewBox="0 0 84 61" fill="none" xmlns="http://www.w3.org/2000/svg">
<path fill-rule="evenodd" clip-rule="evenodd" d="M4.58015 1.83206C3.0708 1.83206 1.83206 3.0708 1.83206 4.58015V55.7863C1.83206 57.2956 3.0708 58.5344 4.58015 58.5344H79.4198C80.9292 58.5344 82.1679 57.2956 82.1679 55.7863V4.58015C82.1679 3.0708 80.9292 1.83206 79.4198 1.83206H4.58015ZM0 4.58015C0 2.05898 2.05898 0 4.58015 0H79.4198C81.941 0 84 2.05898 84 4.58015V55.7863C84 58.3074 81.941 60.3664 79.4198 60.3664H4.58015C2.05898 60.3664 0 58.3074 0 55.7863V4.58015Z" fill="#829AB1"/>
<path d="M32.1579 36.5774C31.2802 36.6749 30.4025 36.1873 30.0124 35.3096C29.1347 36.1873 27.9644 36.5774 26.7941 36.5774C25.9164 36.5774 25.0387 36.3823 24.356 35.7972C23.7709 35.212 23.3808 34.4318 23.4783 33.6517C23.3808 32.4814 24.0635 31.4086 25.2337 31.0185C25.8189 30.8235 26.404 30.7259 26.9892 30.6284C27.6718 30.5309 28.257 30.3358 28.8421 30.1408C29.1347 29.9457 29.3297 29.5557 29.3297 29.2631C29.3297 28.9705 29.2322 28.6779 28.9397 28.4829C28.6471 28.2878 28.3545 28.1903 27.9644 28.1903C27.5743 28.1903 27.2817 28.2878 27.2817 28.5804V28.9705C27.2817 29.3606 27.0867 29.6532 26.7941 29.8482C26.5016 30.1408 26.1115 30.2383 25.6238 30.2383C25.1362 30.2383 24.7461 30.1408 24.356 29.7507C24.0635 29.4581 23.8684 29.068 23.8684 28.5804C23.8684 27.8977 24.356 27.2151 24.9412 26.9225C25.9164 26.4349 26.8917 26.2398 27.9644 26.3374C29.0372 26.2398 30.1099 26.5324 31.0852 27.02C31.8654 27.6052 32.353 28.5804 32.1579 29.6532V33.6517C32.1579 34.0418 32.2555 34.2368 32.4505 34.2368H32.8406C33.1332 34.2368 33.4257 34.3343 33.6208 34.5294C33.8158 34.7244 33.9134 35.017 33.9134 35.3096C33.9134 35.6997 33.7183 36.0897 33.3282 36.3823C33.2307 36.4798 32.7431 36.5774 32.1579 36.5774ZM29.3297 32.4814V32.0913C28.7446 32.2863 28.257 32.4814 27.6718 32.5789C27.1842 32.5789 26.6966 32.969 26.5991 33.3591C26.5991 33.8467 26.8916 34.2368 27.3793 34.2368H27.5743C28.452 34.3343 29.2322 33.7492 29.3297 32.8715C29.4273 32.7739 29.4273 32.5789 29.3297 32.4814Z" fill="white"/>
<path d="M38.7893 23.997V27.6054C39.472 26.8252 40.5447 26.3376 41.52 26.3376C42.5927 26.3376 43.6655 26.8252 44.2506 27.7029C45.0308 28.7756 45.3234 30.0435 45.3234 31.3113C45.4209 32.6766 45.0308 34.1395 44.1531 35.2122C43.3729 36.1875 42.2026 36.6751 41.0323 36.6751C39.7645 36.6751 38.5943 36.0899 37.9116 35.1147V35.6023C37.9116 36.0899 37.5215 36.48 37.1314 36.48H36.9363C36.4487 36.5776 35.8636 36.1875 35.8636 35.6998V26.6301C35.8636 25.9475 35.7661 25.6549 35.571 25.6549C35.4735 25.6549 35.376 25.6549 35.2784 25.7524H34.9859C34.4983 25.7524 34.1082 25.3623 34.1082 24.9722V24.7772C34.1082 24.3871 34.2057 24.0945 34.4007 23.8019C34.5958 23.6069 34.8883 23.4118 35.2784 23.4118C35.571 23.4118 35.7661 23.4118 36.0586 23.5094C36.2537 23.5094 36.5463 23.6069 36.8388 23.6069C37.1314 23.6069 37.5215 23.6069 37.8141 23.5094C38.0091 23.5094 38.2042 23.4118 38.4967 23.4118C38.7893 23.3143 39.0819 23.5094 39.1794 23.8019C38.7893 23.8019 38.7893 23.8995 38.7893 23.997ZM40.5447 34.1395C41.6175 34.1395 42.2026 33.2617 42.2026 31.4088C42.2026 29.5558 41.6175 28.6781 40.5447 28.6781C40.0571 28.6781 39.472 28.9707 39.2769 29.4583C38.8868 30.0435 38.6918 30.7261 38.7893 31.4088C38.7893 33.2617 39.3744 34.1395 40.5447 34.1395Z" fill="white"/>
<path fill-rule="evenodd" clip-rule="evenodd" d="M38.2817 21.9574C39.4163 21.7246 40.3026 22.5456 40.5672 23.3394L41.086 24.8958C41.2308 24.8819 41.3757 24.8747 41.5199 24.8747C42.9852 24.8747 44.5462 25.5308 45.4504 26.8656C46.4347 28.2313 46.7783 29.7962 46.7861 31.26C46.8928 32.9292 46.4201 34.748 45.2902 36.1325C44.2042 37.4858 42.5972 38.138 41.0323 38.138C40.1195 38.138 39.228 37.9128 38.4467 37.4902C38.0851 37.7703 37.6357 37.9429 37.1314 37.9429H37.0439C36.4059 38.0178 35.808 37.8112 35.3735 37.5045C34.9008 37.1709 34.4007 36.5518 34.4007 35.6999V27.1396C33.4485 26.8922 32.6453 26.0603 32.6453 24.9723V24.7772C32.6453 24.0892 32.8334 23.5157 33.1835 22.9905L33.2639 22.87L33.3663 22.7676C33.7208 22.4131 34.3635 21.949 35.2784 21.949C35.2875 21.949 35.2966 21.949 35.3059 21.949C35.5692 21.9489 35.9017 21.9487 36.3256 22.0627C36.3715 22.068 36.4116 22.0738 36.4441 22.0788C36.515 22.0897 36.5931 22.1041 36.6454 22.1137C36.656 22.1157 36.6656 22.1174 36.6738 22.1189C36.7359 22.1302 36.7746 22.1366 36.8061 22.1406C36.8284 22.1435 36.839 22.144 36.8405 22.1441C36.9927 22.1441 37.112 22.1435 37.2222 22.1356C37.318 22.1288 37.3573 22.1192 37.3574 22.1196C37.3574 22.1196 37.3573 22.1196 37.3572 22.1197L37.5766 22.0466H37.7393C37.7463 22.045 37.7523 22.0436 37.7594 22.0421C37.7694 22.0398 37.7815 22.0371 37.8015 22.0326C37.9028 22.0101 38.0706 21.9737 38.2817 21.9574ZM37.3264 25.0607C37.2139 25.0669 37.1119 25.0691 37.0264 25.0698C37.1066 25.2155 37.1564 25.3518 37.1886 25.4563C37.3047 25.8338 37.3264 26.2601 37.3264 26.6302V25.0607ZM42.8716 34.4571C42.9201 34.4066 42.9666 34.3537 43.0108 34.2984L43.0158 34.2922L43.0209 34.2859C43.6309 33.5403 43.9388 32.4602 43.8642 31.4155L43.8605 31.3635V31.3113C43.8605 30.2624 43.6191 29.3218 43.0675 28.5633L43.05 28.5392L43.0334 28.5144C42.9616 28.4066 42.8679 28.3054 42.7565 28.2151C42.8503 28.3263 42.9378 28.4468 43.0183 28.5764C43.5102 29.3677 43.6655 30.3741 43.6655 31.4088C43.6655 32.4436 43.5102 33.45 43.0183 34.2413C42.9717 34.3163 42.9228 34.3882 42.8716 34.4571ZM40.2521 23.997C40.2521 23.9738 40.2533 23.9834 40.2521 24.0147V23.997ZM39.157 25.2653C39.1569 25.2653 39.1578 25.2652 39.1598 25.2651L39.157 25.2653ZM37.3264 31.5008V31.7279L37.3318 31.7356C37.3292 31.6588 37.3276 31.5819 37.3269 31.5048C37.3267 31.5035 37.3266 31.5022 37.3264 31.5008ZM40.5447 30.141C40.5449 30.141 40.5451 30.141 40.5452 30.141L40.5447 30.141ZM40.5603 30.1705L40.4941 30.2698C40.2667 30.6108 40.1995 30.9363 40.2374 31.202L40.2521 31.3049V31.4088C40.2521 32.2243 40.3889 32.5682 40.4538 32.6705C40.4721 32.6735 40.5014 32.6767 40.5447 32.6767C40.5449 32.6767 40.5451 32.6766 40.5452 32.6766C40.6168 32.546 40.7397 32.183 40.7397 31.4088C40.7397 30.6866 40.6327 30.3222 40.5603 30.1705ZM40.5924 30.1443C40.5924 30.1443 40.592 30.1442 40.5913 30.1441L40.5924 30.1443Z" fill="#829AB1"/>
<path d="M52.1503 29.6533C52.1503 29.4583 52.2478 29.2632 52.3453 29.0682C52.0528 28.8732 51.7602 28.7756 51.3701 28.7756C50.785 28.7756 50.2973 29.0682 50.0048 29.4583C49.6147 30.0434 49.4196 30.6286 49.5171 31.3112C49.5171 31.9939 49.7122 32.6766 50.1023 33.2617C50.4924 33.7493 50.98 34.0419 51.5651 34.0419C52.1503 34.0419 52.7354 33.6518 52.9305 33.0667C53.028 32.7741 53.223 32.4815 53.4181 32.2865C53.7107 32.0914 54.0032 31.9939 54.2958 32.0914C54.6859 32.0914 55.076 32.189 55.3686 32.4815C55.6611 32.7741 55.7587 33.0667 55.7587 33.4568C55.7587 34.3345 55.271 35.2122 54.4909 35.6998C53.6131 36.3825 52.5404 36.6751 51.4676 36.6751C50.1023 36.7726 48.8345 36.285 47.8592 35.3097C46.884 34.3345 46.3964 32.9691 46.4939 31.6038C46.2989 28.9707 48.2493 26.6301 50.8825 26.4351H51.5651C52.5404 26.4351 53.5156 26.6301 54.3933 27.2152C55.076 27.7029 55.4661 28.3855 55.4661 29.2633C55.4661 29.7509 55.271 30.141 54.9785 30.5311C54.5884 30.8236 54.1983 31.0187 53.7107 31.0187C53.3206 31.0187 52.9305 30.9212 52.6379 30.7261C52.2478 30.336 52.1503 29.9459 52.1503 29.6533Z" fill="white"/>
<path fill-rule="evenodd" clip-rule="evenodd" d="M50.8283 24.9722H51.5651C52.7353 24.9722 54.019 25.2076 55.2047 25.998L55.2243 26.0111L55.2435 26.0248C56.2807 26.7656 56.9289 27.8774 56.9289 29.2632C56.9289 30.126 56.5928 30.787 56.2341 31.2918C56.2914 31.3402 56.3477 31.3919 56.4029 31.4471C56.6699 31.7141 56.8929 32.0285 57.0386 32.4074C57.1818 32.7798 57.2215 33.1396 57.2215 33.4567C57.2215 34.8271 56.4898 36.1434 55.3318 36.8984C54.1774 37.7736 52.8151 38.1285 51.5192 38.1377C49.7377 38.2501 48.0784 37.5977 46.8248 36.3441C45.5651 35.0844 44.9335 33.3447 45.028 31.6059C44.8348 28.2383 47.3431 25.2303 50.7744 24.9762L50.8283 24.9722ZM51.8425 31.9539C51.727 32.1486 51.6268 32.3587 51.5516 32.5775C51.5509 32.5779 51.5503 32.5783 51.5497 32.5786C51.5197 32.5769 51.4958 32.5695 51.4655 32.5529C51.4282 32.5323 51.365 32.4876 51.2838 32.3948C51.0838 32.0718 50.9799 31.6951 50.9799 31.3112V31.2073L50.9652 31.1043C50.954 31.0255 50.951 30.947 50.9621 30.8627C51.1064 31.1674 51.3148 31.4718 51.6034 31.7605L51.7059 31.8629L51.8264 31.9432C51.8317 31.9468 51.8371 31.9504 51.8425 31.9539ZM53.9278 34.2902C54.0695 34.0943 54.1879 33.8779 54.2774 33.6433C54.2334 33.8724 54.1117 34.1071 53.9278 34.2902ZM49.6304 34.8374C49.3767 34.6428 49.153 34.4169 48.9599 34.1755L48.9203 34.126L48.8851 34.0731C48.3477 33.2671 48.0738 32.3383 48.0552 31.4124C48.0041 30.9714 48.0306 30.5598 48.1142 30.175C47.9779 30.5875 47.9185 31.0341 47.9527 31.4957L47.9606 31.6019L47.953 31.708C47.8847 32.6647 48.2285 33.6102 48.8936 34.2753C49.1214 34.5031 49.3682 34.6908 49.6304 34.8374ZM53.987 29.0557L53.7375 29.5547C53.7647 29.5523 53.7905 29.5457 53.8241 29.5319C53.8503 29.5211 53.8838 29.5047 53.9267 29.4793C53.9521 29.4364 53.9685 29.4029 53.9793 29.3767C53.9975 29.3324 54.0032 29.3016 54.0032 29.2632C54.0032 29.1897 53.998 29.1208 53.987 29.0557Z" fill="#829AB1"/>
<path fill-rule="evenodd" clip-rule="evenodd" d="M22.4055 28.5806C22.4055 29.4048 22.7124 30.0958 23.1648 30.617C22.3837 31.3989 21.9563 32.4796 22.0108 33.6259C21.9061 34.9438 22.5763 36.0865 23.3216 36.8318L23.3613 36.8715L23.404 36.9081C24.4495 37.8043 25.7221 38.0404 26.7941 38.0404C27.7953 38.0404 28.8312 37.8149 29.7664 37.3033C30.4596 37.8431 31.3355 38.1172 32.2329 38.04C32.5734 38.0362 32.8998 38.0067 33.1801 37.9572C33.3283 37.9311 33.4912 37.8946 33.6491 37.8419L33.6531 37.8406C33.7348 37.8134 33.994 37.7271 34.2441 37.5238C34.9336 36.9904 35.3762 36.1999 35.3762 35.3098C35.3762 34.7268 35.1866 34.0266 34.6552 33.4952C34.3483 33.1883 33.9851 32.9954 33.6208 32.8872V29.7713C33.8603 28.1369 33.0885 26.6942 31.9629 25.85L31.8573 25.7708L31.7394 25.7118C30.6385 25.1614 29.3392 24.7764 27.9666 24.87C26.6608 24.7741 25.4554 25.0301 24.2869 25.6143C23.2788 26.1184 22.4055 27.2671 22.4055 28.5806ZM32.1579 36.5775C32.1579 36.5775 32.158 36.5775 32.158 36.5775C32.7431 36.5775 33.2307 36.48 33.3283 36.3824C33.7184 36.0899 33.9134 35.6998 33.9134 35.3097C33.9134 35.0171 33.8159 34.7245 33.6208 34.5295C33.4258 34.3344 33.1332 34.2369 32.8406 34.2369H32.4506C32.2555 34.2369 32.158 34.0419 32.158 33.6518V29.6533C32.353 28.5805 31.8654 27.6053 31.0852 27.0202C30.11 26.5325 29.0372 26.24 27.9645 26.3375C26.8917 26.24 25.9165 26.435 24.9412 26.9226C24.3561 27.2152 23.8685 27.8979 23.8685 28.5805C23.8685 29.0682 24.0635 29.4583 24.3561 29.7508C24.7462 30.1409 25.1363 30.2384 25.6239 30.2384C26.1115 30.2384 26.5016 30.1409 26.7942 29.8483C27.0867 29.6533 27.2818 29.3607 27.2818 28.9706V28.5805C27.2818 28.288 27.5744 28.1904 27.9645 28.1904C28.3546 28.1904 28.6471 28.288 28.9397 28.483C29.2323 28.6781 29.3298 28.9706 29.3298 29.2632C29.3298 29.5558 29.1347 29.9459 28.8422 30.1409L28.8421 30.1409C28.257 30.336 27.6719 30.531 26.9892 30.6285C26.4041 30.7261 25.8189 30.8236 25.2338 31.0186C24.0635 31.4087 23.3808 32.4815 23.4784 33.6518C23.3808 34.432 23.7709 35.2122 24.3561 35.7973C25.0387 36.3824 25.9165 36.5775 26.7942 36.5775C27.9645 36.5775 29.1347 36.1874 30.0125 35.3097C30.4025 36.1874 31.2802 36.675 32.1579 36.5775L32.1579 36.5776V36.5775ZM33.6228 33.6984C33.6226 33.6987 33.6219 33.6933 33.6213 33.6817C33.6228 33.6923 33.623 33.6982 33.6228 33.6984ZM29.3298 32.0914V32.4815C29.4273 32.579 29.4273 32.7741 29.3298 32.8716C29.2323 33.7493 28.4521 34.3344 27.5744 34.2369H27.3793C26.8917 34.2369 26.5991 33.8468 26.5991 33.3592C26.6966 32.9691 27.1843 32.579 27.6719 32.579C28.1376 32.5014 28.5415 32.362 28.9819 32.21C29.0949 32.171 29.2103 32.1312 29.3298 32.0914Z" fill="#829AB1"/>
<path d="M38.7893 23.997V27.6054C39.472 26.8252 40.5447 26.3376 41.52 26.3376C42.5927 26.3376 43.6655 26.8252 44.2506 27.7029C45.0308 28.7756 45.3234 30.0435 45.3234 31.3113C45.4209 32.6766 45.0308 34.1395 44.1531 35.2122C43.3729 36.1875 42.2026 36.6751 41.0323 36.6751C39.7645 36.6751 38.5943 36.0899 37.9116 35.1147V35.6023C37.9116 36.0899 37.5215 36.48 37.1314 36.48H36.9363C36.4487 36.5776 35.8636 36.1875 35.8636 35.6998V26.6301C35.8636 25.9475 35.7661 25.6549 35.571 25.6549C35.4735 25.6549 35.376 25.6549 35.2784 25.7524H34.9859C34.4983 25.7524 34.1082 25.3623 34.1082 24.9722V24.7772C34.1082 24.3871 34.2057 24.0945 34.4007 23.8019C34.5958 23.6069 34.8883 23.4118 35.2784 23.4118C35.571 23.4118 35.7661 23.4118 36.0586 23.5094C36.2537 23.5094 36.5463 23.6069 36.8388 23.6069C37.1314 23.6069 37.5215 23.6069 37.8141 23.5094C38.0091 23.5094 38.2042 23.4118 38.4967 23.4118C38.7893 23.3143 39.0819 23.5094 39.1794 23.8019C38.7893 23.8019 38.7893 23.8995 38.7893 23.997ZM40.5447 34.1395C41.6175 34.1395 42.2026 33.2617 42.2026 31.4088C42.2026 29.5558 41.6175 28.6781 40.5447 28.6781C40.0571 28.6781 39.472 28.9707 39.2769 29.4583C38.8868 30.0435 38.6918 30.7261 38.7893 31.4088C38.7893 33.2617 39.3744 34.1395 40.5447 34.1395Z" fill="white"/>
<path d="M52.1503 29.6533C52.1503 29.4583 52.2478 29.2632 52.3453 29.0682C52.0528 28.8732 51.7602 28.7756 51.3701 28.7756C50.785 28.7756 50.2973 29.0682 50.0048 29.4583C49.6147 30.0434 49.4196 30.6286 49.5171 31.3112C49.5171 31.9939 49.7122 32.6766 50.1023 33.2617C50.4924 33.7493 50.98 34.0419 51.5651 34.0419C52.1503 34.0419 52.7354 33.6518 52.9305 33.0667C53.028 32.7741 53.223 32.4815 53.4181 32.2865C53.7107 32.0914 54.0032 31.9939 54.2958 32.0914C54.6859 32.0914 55.076 32.189 55.3686 32.4815C55.6611 32.7741 55.7587 33.0667 55.7587 33.4568C55.7587 34.3345 55.271 35.2122 54.4909 35.6998C53.6131 36.3825 52.5404 36.6751 51.4676 36.6751C50.1023 36.7726 48.8345 36.285 47.8592 35.3097C46.884 34.3345 46.3964 32.9691 46.4939 31.6038C46.2989 28.9707 48.2493 26.6301 50.8825 26.4351H51.5651C52.5404 26.4351 53.5156 26.6301 54.3933 27.2152C55.076 27.7029 55.4661 28.3855 55.4661 29.2633C55.4661 29.7509 55.271 30.141 54.9785 30.5311C54.5884 30.8236 54.1983 31.0187 53.7107 31.0187C53.3206 31.0187 52.9305 30.9212 52.6379 30.7261C52.2478 30.336 52.1503 29.9459 52.1503 29.6533Z" fill="white"/>
<path fill-rule="evenodd" clip-rule="evenodd" d="M61.0248 16C61.5634 16 62 16.4366 62 16.9752V42.9166C62 43.4552 61.5634 43.8918 61.0248 43.8918C60.4862 43.8918 60.0496 43.4552 60.0496 42.9166V16.9752C60.0496 16.4366 60.4862 16 61.0248 16Z" fill="#007BFF"/>
</svg>
