<svg width="40" height="40" viewBox="0 0 40 40"  xmlns="http://www.w3.org/2000/svg">
<path fill-rule="evenodd" clip-rule="evenodd" d="M3.33325 9.16658C3.33325 8.6193 3.44107 8.07737 3.65055 7.57177C3.86003 7.06616 4.16706 6.60678 4.55412 6.21986C4.94117 5.83294 5.40066 5.52606 5.90634 5.31675C6.41201 5.10745 6.95397 4.99981 7.50125 5H32.5C33.6051 5 34.6648 5.43898 35.4462 6.22036C36.2276 7.00175 36.6666 8.06153 36.6666 9.16658V30.0002C36.6666 31.1052 36.2276 32.165 35.4462 32.9464C34.6648 33.7278 33.6051 34.1668 32.5 34.1668H7.50125C6.95397 34.1669 6.41201 34.0593 5.90634 33.85C5.40066 33.6407 4.94117 33.3338 4.55412 32.9469C4.16706 32.56 3.86003 32.1006 3.65055 31.595C3.44107 31.0894 3.33325 30.5475 3.33325 30.0002L3.33325 9.16658ZM5.41832 27.9165L10.9308 23.0123C11.1011 22.8425 11.3248 22.7369 11.564 22.7133C11.8032 22.6897 12.0432 22.7496 12.2433 22.8828L17.785 26.5763L25.5142 18.8478C25.6687 18.6931 25.868 18.591 26.0838 18.5559C26.2995 18.5208 26.5209 18.5545 26.7165 18.6522L34.5851 22.7071V29.9988C34.5852 30.2726 34.5313 30.5437 34.4265 30.7967C34.3218 31.0497 34.1682 31.2795 33.9745 31.4731C33.7809 31.6667 33.551 31.8202 33.298 31.9248C33.045 32.0295 32.7738 32.0833 32.5 32.0831H7.50125C6.94864 32.0831 6.41865 31.8636 6.02789 31.4728C5.63713 31.0821 5.41761 30.5521 5.41761 29.9995V27.9165H5.41832ZM15.8344 14.3753C15.8344 14.9934 15.6511 15.5976 15.3077 16.1116C14.9643 16.6255 14.4763 17.026 13.9052 17.2626C13.3342 17.4991 12.7058 17.561 12.0996 17.4404C11.4934 17.3198 10.9366 17.0222 10.4995 16.5851C10.0625 16.1481 9.76482 15.5912 9.64423 14.985C9.52365 14.3788 9.58554 13.7504 9.82207 13.1794C10.0586 12.6084 10.4592 12.1203 10.9731 11.7769C11.487 11.4335 12.0912 11.2502 12.7093 11.2502C13.5381 11.2502 14.333 11.5795 14.9191 12.1655C15.5052 12.7516 15.8344 13.5465 15.8344 14.3753Z" />
</svg>
