<svg width="18" height="18" viewBox="0 0 18 18" fill="none" xmlns="http://www.w3.org/2000/svg">
<path fill-rule="evenodd" clip-rule="evenodd" d="M8.73628 15.0363C8.5675 15.205 8.33863 15.2998 8.09998 15.2998C7.86133 15.2998 7.63245 15.205 7.46368 15.0363L2.06368 9.6363C1.89495 9.46753 1.80017 9.23865 1.80017 9C1.80017 8.76135 1.89495 8.53248 2.06368 8.3637L7.46368 2.9637C7.63342 2.79976 7.86076 2.70904 8.09674 2.71109C8.33272 2.71314 8.55845 2.8078 8.72532 2.97466C8.89218 3.14153 8.98683 3.36726 8.98889 3.60324C8.99094 3.83922 8.90022 4.06656 8.73628 4.2363L4.87258 8.1H15.3C15.5387 8.1 15.7676 8.19482 15.9364 8.3636C16.1052 8.53239 16.2 8.76131 16.2 9C16.2 9.2387 16.1052 9.46761 15.9364 9.6364C15.7676 9.80518 15.5387 9.9 15.3 9.9H4.87258L8.73628 13.7637C8.905 13.9325 8.99979 14.1614 8.99979 14.4C8.99979 14.6386 8.905 14.8675 8.73628 15.0363Z" fill="#243B53"/>
</svg>
