<svg width="16" height="16" viewBox="0 0 16 16" fill="none" xmlns="http://www.w3.org/2000/svg">
<path fill-rule="evenodd" clip-rule="evenodd" d="M4.23435 5.83432C4.38437 5.68434 4.58782 5.60009 4.79995 5.60009C5.01208 5.60009 5.21553 5.68434 5.36555 5.83432L7.99995 8.46872L10.6344 5.83432C10.7081 5.75791 10.7964 5.69696 10.894 5.65504C10.9916 5.61311 11.0966 5.59104 11.2028 5.59012C11.3091 5.5892 11.4144 5.60944 11.5127 5.64966C11.611 5.68989 11.7004 5.74929 11.7755 5.8244C11.8506 5.89952 11.91 5.98884 11.9502 6.08716C11.9904 6.18547 12.0107 6.29082 12.0098 6.39704C12.0088 6.50326 11.9868 6.60824 11.9448 6.70584C11.9029 6.80345 11.842 6.89172 11.7656 6.96552L8.56555 10.1655C8.41553 10.3155 8.21208 10.3997 7.99995 10.3997C7.78782 10.3997 7.58437 10.3155 7.43435 10.1655L4.23435 6.96552C4.08437 6.8155 4.00012 6.61205 4.00012 6.39992C4.00012 6.18779 4.08437 5.98434 4.23435 5.83432Z" fill="#102A43"/>
</svg>
