<svg width="16" height="16" viewBox="0 0 16 16" fill="none" xmlns="http://www.w3.org/2000/svg">
<path fill-rule="evenodd" clip-rule="evenodd" d="M7.99998 2.66671C6.58549 2.66671 5.22894 3.22861 4.22874 4.2288C3.22855 5.229 2.66665 6.58555 2.66665 8.00004C2.66665 8.70042 2.8046 9.39395 3.07262 10.041C3.34065 10.6881 3.7335 11.276 4.22874 11.7713C4.72399 12.2665 5.31193 12.6594 5.959 12.9274C6.60607 13.1954 7.2996 13.3334 7.99998 13.3334C8.70036 13.3334 9.39389 13.1954 10.041 12.9274C10.688 12.6594 11.276 12.2665 11.7712 11.7713C12.2665 11.276 12.6593 10.6881 12.9273 10.041C13.1954 9.39395 13.3333 8.70042 13.3333 8.00004C13.3333 6.58555 12.7714 5.229 11.7712 4.2288C10.771 3.22861 9.41447 2.66671 7.99998 2.66671ZM3.28593 3.286C4.53618 2.03575 6.23187 1.33337 7.99998 1.33337C9.76809 1.33337 11.4638 2.03575 12.714 3.286C13.9643 4.53624 14.6666 6.23193 14.6666 8.00004C14.6666 8.87552 14.4942 9.74242 14.1592 10.5513C13.8241 11.3601 13.3331 12.095 12.714 12.7141C12.095 13.3331 11.36 13.8242 10.5512 14.1592C9.74236 14.4943 8.87546 14.6667 7.99998 14.6667C7.1245 14.6667 6.25759 14.4943 5.44876 14.1592C4.63992 13.8242 3.90499 13.3331 3.28593 12.7141C2.66688 12.095 2.17581 11.3601 1.84078 10.5513C1.50575 9.74243 1.33331 8.87552 1.33331 8.00004C1.33331 6.23193 2.03569 4.53624 3.28593 3.286ZM7.99998 4.66671C8.36817 4.66671 8.66665 4.96518 8.66665 5.33337V7.7239L10.4714 9.52864C10.7317 9.78899 10.7317 10.2111 10.4714 10.4714C10.211 10.7318 9.78893 10.7318 9.52858 10.4714L7.52858 8.47144C7.40355 8.34642 7.33331 8.17685 7.33331 8.00004V5.33337C7.33331 4.96518 7.63179 4.66671 7.99998 4.66671Z" fill="#007BFF"/>
</svg>
