<svg width="18" height="18" viewBox="0 0 18 18" fill="none" xmlns="http://www.w3.org/2000/svg">
<path fill-rule="evenodd" clip-rule="evenodd" d="M3.86373 3.86363C4.0325 3.6949 4.26138 3.60012 4.50003 3.60012C4.73868 3.60012 4.96755 3.6949 5.13633 3.86363L9.00003 7.72733L12.8637 3.86363C12.9467 3.77767 13.0461 3.7091 13.1559 3.66194C13.2657 3.61477 13.3838 3.58994 13.5033 3.5889C13.6228 3.58786 13.7413 3.61063 13.8519 3.65589C13.9625 3.70114 14.063 3.76797 14.1475 3.85247C14.232 3.93697 14.2988 4.03746 14.3441 4.14807C14.3893 4.25867 14.4121 4.37719 14.4111 4.49669C14.41 4.61619 14.3852 4.73429 14.338 4.84409C14.2909 4.95389 14.2223 5.0532 14.1363 5.13623L10.2726 8.99993L14.1363 12.8636C14.3003 13.0334 14.391 13.2607 14.3889 13.4967C14.3869 13.7327 14.2922 13.9584 14.1254 14.1253C13.9585 14.2921 13.7328 14.3868 13.4968 14.3888C13.2608 14.3909 13.0335 14.3002 12.8637 14.1362L9.00003 10.2725L5.13633 14.1362C4.96659 14.3002 4.73924 14.3909 4.50327 14.3888C4.26729 14.3868 4.04156 14.2921 3.87469 14.1253C3.70782 13.9584 3.61317 13.7327 3.61112 13.4967C3.60907 13.2607 3.69979 13.0334 3.86373 12.8636L7.72743 8.99993L3.86373 5.13623C3.695 4.96745 3.60022 4.73857 3.60022 4.49993C3.60022 4.26128 3.695 4.0324 3.86373 3.86363Z" fill="#243B53"/>
</svg>
