<svg width="56" height="56" viewBox="0 0 56 56" fill="none" xmlns="http://www.w3.org/2000/svg">
<g filter="url(#filter0_d_233_340)">
<circle cx="28" cy="22" r="10" fill="#EF4E4E"/>
</g>
<path fill-rule="evenodd" clip-rule="evenodd" d="M24.0051 18.0051C24.1364 17.8739 24.3144 17.8001 24.5 17.8001C24.6856 17.8001 24.8636 17.8739 24.9949 18.0051L28 21.0102L31.0051 18.0051C31.0697 17.9382 31.1469 17.8849 31.2323 17.8482C31.3177 17.8115 31.4096 17.7922 31.5025 17.7914C31.5955 17.7906 31.6876 17.8083 31.7737 17.8435C31.8597 17.8787 31.9379 17.9307 32.0036 17.9964C32.0693 18.0621 32.1213 18.1403 32.1565 18.2263C32.1917 18.3123 32.2094 18.4045 32.2086 18.4975C32.2078 18.5904 32.1885 18.6823 32.1518 18.7677C32.1151 18.8531 32.0618 18.9303 31.9949 18.9949L28.9898 22L31.9949 25.0051C32.1224 25.1371 32.193 25.3139 32.1914 25.4975C32.1898 25.681 32.1162 25.8566 31.9864 25.9864C31.8566 26.1161 31.681 26.1898 31.4975 26.1914C31.3139 26.193 31.1371 26.1224 31.0051 25.9949L28 22.9898L24.9949 25.9949C24.8629 26.1224 24.6861 26.193 24.5025 26.1914C24.319 26.1898 24.1434 26.1161 24.0136 25.9864C23.8838 25.8566 23.8102 25.681 23.8086 25.4975C23.807 25.3139 23.8776 25.1371 24.0051 25.0051L27.0102 22L24.0051 18.9949C23.8739 18.8636 23.8002 18.6856 23.8002 18.5C23.8002 18.3144 23.8739 18.1364 24.0051 18.0051Z" fill="white"/>
<defs>
<filter id="filter0_d_233_340" x="0" y="0" width="56" height="56" filterUnits="userSpaceOnUse" color-interpolation-filters="sRGB">
<feFlood flood-opacity="0" result="BackgroundImageFix"/>
<feColorMatrix in="SourceAlpha" type="matrix" values="0 0 0 0 0 0 0 0 0 0 0 0 0 0 0 0 0 0 127 0" result="hardAlpha"/>
<feOffset dy="6"/>
<feGaussianBlur stdDeviation="9"/>
<feColorMatrix type="matrix" values="0 0 0 0 0.384314 0 0 0 0 0.490196 0 0 0 0 0.596078 0 0 0 0.24 0"/>
<feBlend mode="normal" in2="BackgroundImageFix" result="effect1_dropShadow_233_340"/>
<feBlend mode="normal" in="SourceGraphic" in2="effect1_dropShadow_233_340" result="shape"/>
</filter>
</defs>
</svg>
