<svg width="40" height="40" viewBox="0 0 40 40"  xmlns="http://www.w3.org/2000/svg">
<path d="M17.9166 7.49992C17.9166 6.39485 17.4776 5.33504 16.6962 4.55364C15.9148 3.77224 14.855 3.33325 13.7499 3.33325H7.49992C6.39485 3.33325 5.33504 3.77224 4.55364 4.55364C3.77224 5.33504 3.33325 6.39485 3.33325 7.49992V29.3749C3.33325 31.3088 4.10148 33.1635 5.46893 34.5309C6.83638 35.8984 8.69105 36.6666 10.6249 36.6666C12.5588 36.6666 14.4135 35.8984 15.7809 34.5309C17.1484 33.1635 17.9166 31.3088 17.9166 29.3749V7.49992ZM10.6249 32.4999C10.0069 32.4999 9.40266 32.3166 8.88876 31.9733C8.37486 31.6299 7.97432 31.1418 7.73779 30.5708C7.50127 29.9998 7.43939 29.3715 7.55996 28.7653C7.68054 28.1591 7.97817 27.6022 8.41521 27.1652C8.85225 26.7282 9.40907 26.4305 10.0153 26.31C10.6215 26.1894 11.2498 26.2513 11.8208 26.4878C12.3918 26.7243 12.8799 27.1249 13.2233 27.6388C13.5666 28.1527 13.7499 28.7569 13.7499 29.3749C13.7499 30.2037 13.4207 30.9986 12.8346 31.5846C12.2486 32.1707 11.4537 32.4999 10.6249 32.4999ZM31.249 19.0629L21.0416 29.2703V8.66544C21.8285 7.92525 22.8726 7.52028 23.9528 7.53622C25.033 7.55216 26.0646 7.98777 26.8294 8.75086L31.249 13.1703C32.0303 13.9517 32.4693 15.0115 32.4693 16.1166C32.4693 17.2217 32.0303 18.2815 31.249 19.0629ZM36.6666 26.2499V32.4999C36.6666 33.605 36.2276 34.6648 35.4462 35.4462C34.6648 36.2276 33.605 36.6666 32.4999 36.6666H18.043L32.6147 22.0948C33.6983 22.1231 34.7281 22.5731 35.4849 23.3491C36.2416 24.1252 36.6656 25.166 36.6666 26.2499Z" />
</svg>
