<svg width="18" height="18" viewBox="0 0 18 18" fill="none" xmlns="http://www.w3.org/2000/svg">
<path d="M8.27068 16.6136H9.62428C9.93172 16.6136 10.1868 16.3623 10.1868 16.0511V14.75L10.4679 14.675C12.7626 14.0975 13.5764 12.5191 13.5764 11.3455C13.5764 9.17075 11.7015 8.26715 9.86422 7.66721C8.13946 7.09733 7.5883 6.75227 7.5883 6.24233C7.5883 5.78495 8.11696 5.32739 9.3019 5.32739C10.6067 5.32739 11.4241 5.69855 11.7728 5.85983C11.8478 5.89349 11.9265 5.91239 12.0051 5.91239C12.2226 5.91239 12.4213 5.78495 12.5151 5.58983L13.0513 4.45367C13.115 4.32245 13.1226 4.16495 13.07 4.02617C13.0212 3.88361 12.9163 3.77111 12.7813 3.70739C12.1364 3.40373 11.4353 3.20861 10.644 3.11501L10.314 3.07379V1.94519C10.314 1.63775 10.0628 1.38647 9.75154 1.38647H8.42044C8.113 1.38647 7.85794 1.63775 7.85794 1.94519V3.20123L7.57678 3.27251C5.7244 3.74123 4.6183 4.92977 4.6183 6.44843C4.6183 8.45075 6.6019 9.34301 8.54788 9.95429C10.3439 10.5393 10.5876 11.0455 10.5876 11.4654C10.5876 12.1141 9.74776 12.5864 8.59288 12.5864C7.61044 12.5864 6.55312 12.3352 5.76562 11.9152C5.68318 11.8702 5.59318 11.8477 5.4994 11.8477C5.43946 11.8477 5.37934 11.8591 5.3194 11.8778C5.17324 11.9303 5.05318 12.0391 4.98946 12.1814L4.47196 13.3325C4.35568 13.5988 4.45324 13.9062 4.70812 14.0488C5.36422 14.4275 6.3391 14.7086 7.3741 14.8249L7.70782 14.8588V16.0511C7.70818 16.3623 7.95946 16.6136 8.27068 16.6136Z" fill="white"/>
</svg>
