<svg width="24" height="56" viewBox="0 0 24 56" fill="none" xmlns="http://www.w3.org/2000/svg">
<g clip-path="url(#clip0)">
<path d="M17.3085 0.141159C17.3085 0.141159 17.5798 0.158659 18.0385 0.743859C18.5222 1.50756 18.6494 1.96606 19.5407 3.21363C20.4319 4.46121 21.4249 6.95706 22.0358 9.04463C22.6467 11.1322 23.258 14.2647 22.9526 16.5817C22.6473 18.8987 22.4178 20.8342 22.3669 21.7253C22.316 22.6164 22.3925 28.7778 22.036 31.1977C21.6795 33.6176 21.5523 35.9337 21.5523 35.9337C21.5523 35.9337 21.7051 40.1353 21.5267 40.9501C21.3484 41.7649 21.3484 42.5799 21.5267 42.8599C21.7051 43.1399 21.756 44.7441 21.9852 45.5082C22.2145 46.2722 22.418 47.112 22.4945 48.9207C22.571 50.7293 22.0869 53.8095 22.0869 53.8095C22.0869 53.8095 18.2163 55.9474 13.5313 55.9987C8.84642 56.05 3.0149 54.573 3.0149 54.573C3.0149 54.573 0.010498 53.3762 0.010498 51.9749C0.010498 50.5737 0.72345 46.5513 0.5705 45.5836C0.41755 44.6158 0.162923 42.9862 0.111998 39.7526C0.0610734 36.5189 0.646798 30.3567 0.799573 28.1415C0.952349 25.9264 1.61437 19.7387 1.56362 18.0326C1.51287 16.3266 1.3853 16.4538 2.12363 14.6712C2.86195 12.8887 6.45242 6.44623 6.65612 5.73398C6.65671 5.46244 6.73637 5.19695 6.88538 4.96993C6.88538 4.96993 9.17682 3.44218 10.3736 2.80571C11.5705 2.16923 13.0982 0.590384 14.2949 0.233209C15.2768 -0.0433641 16.3116 -0.0749703 17.3085 0.141159Z" fill="url(#paint0_linear)"/>
<path d="M17.298 0.141322C17.298 0.141322 17.5694 0.158822 18.0279 0.744022C18.5116 1.50772 18.6389 1.96622 19.5301 3.2138C20.4214 4.46137 21.4144 6.95722 22.0253 9.0448C22.6362 11.1324 23.2475 14.2649 22.9421 16.5819C22.6367 18.8989 22.4073 20.8344 22.3564 21.7255C22.3055 22.6166 22.3819 28.778 22.0255 31.1979C21.669 33.6178 21.5418 35.9339 21.5418 35.9339C21.5418 35.9339 21.6945 40.1355 21.5162 40.9503C21.3379 41.7651 21.3379 42.58 21.5162 42.86C21.6945 43.14 21.7455 44.7443 21.9747 45.5083C22.204 46.2724 22.4075 47.1122 22.484 48.9208C22.5604 50.7294 22.0764 53.8096 22.0764 53.8096C22.0764 53.8096 18.2061 55.9486 13.5208 55.9994C8.83554 56.0501 3.00437 54.5737 3.00437 54.5737C3.00437 54.5737 0.000671387 53.3763 0.000671387 51.9751C0.000671387 50.5739 0.713621 46.5515 0.560671 45.5837C0.407721 44.616 0.153097 42.9864 0.102172 39.7527C0.0512467 36.5191 0.636972 30.3568 0.789747 28.1417C0.942522 25.9265 1.6049 19.7389 1.5538 18.0328C1.5027 16.3267 1.37547 16.4539 2.1138 14.6714C2.85212 12.8888 6.44225 6.4464 6.6463 5.73415C6.64688 5.4626 6.72654 5.19711 6.87555 4.9701C6.87555 4.9701 9.16699 3.44235 10.3638 2.80587C11.5606 2.1694 13.0887 0.590547 14.2854 0.233372C15.267 -0.0430913 16.3014 -0.0746972 17.298 0.141322Z" fill="url(#paint1_linear)"/>
<path d="M17.3085 0.141159C17.3085 0.141159 17.5798 0.158659 18.0385 0.743859C18.5222 1.50756 18.6494 1.96606 19.5407 3.21363C20.4319 4.46121 21.4249 6.95706 22.0358 9.04463C22.6467 11.1322 23.258 14.2647 22.9526 16.5817C22.6473 18.8987 22.4178 20.8342 22.3669 21.7253C22.316 22.6164 22.3925 28.7778 22.036 31.1977C21.6795 33.6176 21.5523 35.9337 21.5523 35.9337C21.5523 35.9337 21.7051 40.1353 21.5267 40.9501C21.3484 41.7649 21.3484 42.5799 21.5267 42.8599C21.7051 43.1399 21.756 44.7441 21.9852 45.5082C22.2145 46.2722 22.418 47.112 22.4945 48.9207C22.571 50.7293 22.0869 53.8095 22.0869 53.8095C22.0869 53.8095 18.2163 55.9474 13.5313 55.9987C8.84642 56.05 3.0149 54.573 3.0149 54.573C3.0149 54.573 0.010498 53.3762 0.010498 51.9749C0.010498 50.5737 0.72345 46.5513 0.5705 45.5836C0.41755 44.6158 0.162923 42.9862 0.111998 39.7526C0.0610734 36.5189 0.646798 30.3567 0.799573 28.1415C0.952349 25.9264 1.61437 19.7387 1.56362 18.0326C1.51287 16.3266 1.3853 16.4538 2.12363 14.6712C2.86195 12.8887 6.45242 6.44623 6.65612 5.73398C6.65671 5.46244 6.73637 5.19695 6.88538 4.96993C6.88538 4.96993 9.17682 3.44218 10.3736 2.80571C11.5705 2.16923 13.0982 0.590384 14.2949 0.233209C15.2768 -0.0433641 16.3116 -0.0749703 17.3085 0.141159Z" fill="url(#paint2_linear)"/>
<path opacity="0.5" d="M17.3301 0.141158C17.3301 0.141158 17.6019 0.158658 18.06 0.743858C18.5437 1.50756 18.6709 1.96606 19.5622 3.21363C20.4535 4.46121 21.4464 6.95706 22.0574 9.04463C22.6683 11.1322 23.2796 14.2647 22.9742 16.5817C22.6688 18.8987 22.4394 20.8342 22.3888 21.7253C22.3382 22.6164 22.414 28.7778 22.0575 31.1977C21.7011 33.6176 21.5733 35.9337 21.5733 35.9337C21.5733 35.9337 21.7261 40.1353 21.5478 40.9501C21.3694 41.7649 21.3698 42.5799 21.5478 42.8599C21.7257 43.1399 21.777 44.7441 22.0063 45.5081C22.2355 46.2722 22.439 47.112 22.5155 48.9206C22.592 50.7293 22.1079 53.8094 22.1079 53.8094C22.1079 53.8094 18.2376 55.9485 13.5524 55.9992C8.86709 56.05 3.03592 54.5735 3.03592 54.5735C3.03592 54.5735 0.0320435 53.3761 0.0320435 51.9749C0.0320435 50.5737 0.744993 46.5513 0.592043 45.5836C0.439093 44.6158 0.184469 42.9862 0.133544 39.7526C0.0826188 36.5189 0.668344 30.3566 0.821119 28.1415C0.973894 25.9263 1.63627 19.7387 1.58517 18.0326C1.53407 16.3266 1.40684 16.4538 2.14517 14.6712C2.88349 12.8887 6.47362 6.44623 6.67767 5.73398C6.67825 5.46244 6.75791 5.19694 6.90692 4.96993C6.90692 4.96993 9.19942 3.44218 10.3955 2.80571C11.5917 2.16923 13.1201 0.590383 14.3168 0.233208C15.2986 -0.0433637 16.3332 -0.07497 17.3301 0.141158Z" fill="url(#paint3_linear)"/>
<path style="mix-blend-mode:multiply" d="M21.2916 14.801C21.4765 15.9032 21.541 17.0222 21.4841 18.1383C21.4072 20.1508 20.3641 22.2158 20.2489 23.4177C20.1338 24.6196 19.9402 25.5949 19.9402 25.5949C18.5733 25.5731 17.2064 25.6405 15.8482 25.7965C13.8023 26.0499 9.55605 26.3722 9.36303 25.6832C9.17 24.9943 9.51755 24.4078 9.55553 24.3007C9.5935 24.1936 8.55173 18.0762 8.28153 16.9894C8.10547 16.2218 7.98939 15.4416 7.93433 14.656C7.93433 14.656 13.9956 10.0346 17.0459 9.62331C20.0961 9.21206 18.8596 14.0158 21.2916 14.801Z" fill="url(#paint4_linear)"/>
<path d="M18.8022 24.4331C18.8209 24.461 18.8327 24.4928 18.8367 24.5262C18.8407 24.5595 18.8368 24.5933 18.8252 24.6247C18.8136 24.6562 18.7948 24.6845 18.7701 24.7073C18.7455 24.7301 18.7158 24.7467 18.6835 24.7558C18.4287 24.8745 16.239 24.501 14.3378 24.3993C12.4366 24.2977 8.80355 24.9086 8.88842 23.9069C8.9733 22.9052 12.2659 22.2601 13.9809 22.3959C15.6959 22.5317 18.3776 22.6336 18.8022 24.4331Z" fill="url(#paint5_linear)"/>
<path d="M18.9282 23.9944L18.7955 24.5927C18.7955 24.5927 17.7835 23.4313 16.383 23.1768C14.9825 22.9224 11.7997 22.9731 10.9085 23.1257C10.0172 23.2783 8.82037 23.9405 8.82037 23.9405C8.72491 23.5646 8.72491 23.1707 8.82037 22.7948C8.9735 22.1072 8.9987 22.0055 8.9987 22.0055C8.9987 22.0055 8.94795 19.8665 8.84592 18.7717C8.7874 18.0901 8.8304 17.4037 8.9735 16.7347C8.33937 15.8201 7.98533 14.7406 7.95465 13.6281C7.9039 11.7689 8.9987 7.79711 9.63465 6.72751C10.2706 5.65791 13.4283 4.10461 14.931 4.30849C16.4337 4.51236 18.725 7.28786 19.6159 8.71359C20.5069 10.1393 21.424 11.8967 21.2713 13.8827C21.1185 15.8688 19.9218 16.3784 19.9218 17.2952C19.9218 18.2121 19.463 22.4922 18.9282 23.9944Z" fill="url(#paint6_linear)"/>
<path d="M18.9138 24.0796L18.8064 24.5957C18.8064 24.5957 17.7835 23.4313 16.383 23.1768C14.9825 22.9224 11.7997 22.9731 10.9085 23.1257C10.0172 23.2783 8.82037 23.9405 8.82037 23.9405C8.72491 23.5646 8.72491 23.1707 8.82037 22.7948C8.9735 22.1072 8.9987 22.0055 8.9987 22.0055C8.9987 22.0055 8.94795 19.8665 8.84592 18.7717C8.7874 18.0901 8.8304 17.4037 8.9735 16.7347C8.33937 15.8201 7.98533 14.7406 7.95465 13.6281C7.9039 11.7689 8.9987 7.79711 9.63465 6.72751C10.2706 5.65791 13.4283 4.10461 14.931 4.30849C16.4337 4.51236 18.725 7.28786 19.6159 8.71359C20.5069 10.1393 21.424 11.8967 21.2713 13.8827C21.1185 15.8688 19.9218 16.3784 19.9218 17.2952C19.9218 18.2121 19.4486 22.5769 18.9138 24.0796Z" fill="url(#paint7_linear)"/>
<path opacity="0.8" d="M18.9916 24.1008L18.8003 24.6032C18.8003 24.6032 17.7832 23.4307 16.3827 23.1768C14.9821 22.9229 11.7994 22.9731 10.9081 23.1257C10.0169 23.2783 8.82003 23.9405 8.82003 23.9405C8.72457 23.5646 8.72457 23.1707 8.82003 22.7948C8.97316 22.1072 8.99836 22.0055 8.99836 22.0055C8.99836 22.0055 8.94761 19.8665 8.84559 18.7717C8.78707 18.0901 8.83006 17.4037 8.97316 16.7347C8.33903 15.8201 7.985 14.7406 7.95431 13.6281C7.90356 11.7689 8.99836 7.79711 9.63431 6.72751C10.2703 5.65791 13.428 4.10461 14.9307 4.30849C16.4334 4.51236 18.7247 7.28786 19.6156 8.71359C20.5065 10.1393 21.4237 11.8967 21.2709 13.8827C21.1182 15.8688 19.9215 16.3784 19.9215 17.2952C19.9215 18.2121 19.5265 22.5983 18.9916 24.1008Z" fill="url(#paint8_linear)"/>
<path opacity="0.7" d="M22.1634 22.4128C22.1634 22.4128 21.5521 26.2835 19.9234 28.4222C18.2947 30.5608 17.0709 34.5335 17.5805 37.589C18.0901 40.6445 21.0436 39.3205 21.1453 37.0798C21.2469 34.8391 21.7565 31.7493 21.9604 30.0178C22.1643 28.2864 22.1634 22.4128 22.1634 22.4128Z" fill="url(#paint9_linear)"/>
<path opacity="0.4" d="M21.4163 39.7957C21.4163 39.7957 20.7034 42.0026 20.2613 42.5458C19.8193 43.089 17.783 44.3115 18.2584 45.8393C18.7339 47.367 20.9064 49.3361 21.7553 47.6047C22.6042 45.8732 20.9064 43.4966 21.0765 42.6139C21.2466 41.7312 21.8239 40.0674 21.4163 39.7957Z" fill="url(#paint10_linear)"/>
<path opacity="0.3" d="M3.01492 20.0703C3.01492 20.0703 3.11695 28.6259 6.2743 34.126C9.43165 39.626 10.4503 38.9131 10.4503 38.9131C10.4503 38.9131 11.7744 35.0428 9.02425 32.089C6.27413 29.1351 4.64487 29.339 3.01492 20.0703Z" fill="url(#paint11_linear)"/>
<path opacity="0.3" d="M2.60786 22.2095C2.60786 22.2095 2.30196 43.2924 5.56081 43.6995C8.81966 44.1065 9.83869 39.9308 9.83869 39.9308C9.83869 39.9308 4.54266 37.9962 2.60786 22.2095Z" fill="url(#paint12_linear)"/>
<path opacity="0.4" d="M9.66931 18.5087C9.66931 18.5087 8.03988 18.169 7.15683 16.8789C6.60854 16.0725 6.10974 15.2334 5.66321 14.3665C5.66321 14.3665 5.73111 17.1507 6.74961 18.7801C7.76811 20.4096 9.60211 20.6813 9.60211 20.6813L9.66931 18.5087Z" fill="url(#paint13_linear)"/>
<g style="mix-blend-mode:multiply" opacity="0.5">
<path d="M14.864 0.175049C14.864 0.175049 15.1695 0.922299 14.9657 1.56735C14.7618 2.2124 14.3547 2.2803 14.1167 4.65662" stroke="#707070" stroke-width="0.567" stroke-miterlimit="10"/>
</g>
<path d="M21.1787 14.4344C21.1787 14.4344 21.9935 12.0239 19.6847 8.86638C17.3759 5.70885 16.052 5.19995 16.052 5.19995" stroke="#707070" stroke-width="0.567" stroke-miterlimit="10"/>
<path d="M20.2538 10.6233C20.2538 10.6233 21.043 12.0494 20.661 13.1958C20.279 14.3422 17.7075 13.1958 17.6311 13.2975C17.5546 13.3991 20.3045 13.9854 20.3556 14.5452C20.4067 15.105 16.587 16.073 16.3578 16.7098C16.1285 17.3466 19.5408 15.2837 19.8719 15.5637C20.203 15.8437 17.6566 16.9131 16.9692 17.6774C16.2818 18.4416 19.7193 16.0224 19.6938 16.4296C19.6682 16.8368 19.439 18.0338 18.9045 18.6959C18.3701 19.3579 18.9553 20.4529 18.8534 21.3186C18.7516 22.1843 18.3697 23.7884 18.3697 23.7884L18.8384 24.5988C18.8384 24.5988 19.4264 22.0823 19.6045 20.4784C19.7827 18.8745 19.8208 16.837 20.0121 16.5059C20.2034 16.1748 21.1449 15.4489 21.2215 14.2526C21.2982 13.0563 20.9793 11.4003 20.2538 10.6233Z" fill="url(#paint14_linear)"/>
<g style="mix-blend-mode:multiply" opacity="0.5">
<path d="M18.8531 23.355C18.8531 23.355 18.3183 22.1073 15.2883 21.9034C12.2584 21.6995 9.22791 22.6419 9.22791 22.6419" stroke="#707070" stroke-width="0.567" stroke-miterlimit="10"/>
</g>
<g style="mix-blend-mode:multiply" opacity="0.5">
<path d="M21.7049 52.9175C21.7049 52.9175 17.5798 54.8017 14.1678 54.8017C10.7558 54.8017 3.42282 53.274 3.42282 53.274C3.42282 53.274 0.825473 52.5103 0.316223 51.4407" stroke="#707070" stroke-width="0.567" stroke-miterlimit="10"/>
</g>
<path d="M17.7499 0.701421C17.7499 0.701421 15.9841 0.277047 14.813 0.599396C13.6419 0.921746 12.2327 2.12715 11.4858 2.53472C10.7389 2.9423 7.37763 4.91139 6.81763 5.62434" stroke="#707070" stroke-width="0.567" stroke-miterlimit="10"/>
<path opacity="0.1" d="M19.8179 10.2715C19.8179 10.2715 18.2394 6.60468 16.4313 5.866C14.6232 5.12733 11.3132 5.586 10.5495 6.706C9.78584 7.826 9.09791 9.50705 9.55624 10.3219C10.0146 11.1367 12.5865 7.64838 14.6235 8.33595C16.6605 9.02353 18.4175 11.1885 19.054 11.1885C19.6905 11.1885 18.0607 10.2452 19.8179 10.2715Z" fill="url(#paint15_linear)"/>
<path opacity="0.1" d="M9.48272 21.98C8.52804 21.6278 7.6212 21.1575 6.78334 20.58C5.48484 19.6632 4.87357 18.161 4.31357 18.263C3.75357 18.365 4.56802 25.3155 6.29947 27.8623C8.03092 30.409 11.061 32.9042 12.1051 30.1285C13.1491 27.3528 12.3599 25.418 14.0915 24.5268C15.8231 23.6355 13.8623 21.7507 9.48272 21.98Z" fill="url(#paint16_linear)"/>
<path opacity="0.2" d="M6.86052 5.83624C6.6822 6.09104 5.10352 8.58636 5.4089 8.94284C5.71427 9.29931 7.26757 8.25526 8.0318 7.77156C8.79602 7.28786 9.91603 5.22531 11.7243 4.71606C13.5326 4.20681 13.5069 1.40576 13.5069 1.40576L6.86052 5.83624Z" fill="url(#paint17_linear)"/>
<g style="mix-blend-mode:multiply" opacity="0.5">
<path d="M20.2794 15.8687C20.2794 15.8687 20.7886 15.1561 20.9414 13.7555C21.0942 12.355 20.1014 9.7321 18.9814 8.51025" stroke="#707070" stroke-width="0.567" stroke-miterlimit="10"/>
</g>
<g style="mix-blend-mode:multiply" opacity="0.5">
<path d="M8.61715 16.1322C8.24785 15.1586 8.10836 14.113 8.20957 13.0767C8.39647 11.4299 9.17714 8.61206 9.17714 8.61206" stroke="#707070" stroke-width="0.567" stroke-miterlimit="10"/>
</g>
<path d="M18.2674 7.7972C18.2674 7.7972 17.3509 6.1172 15.976 5.7847C14.601 5.4522 12.0292 5.35192 10.8835 6.16672C10.2216 6.61203 9.74254 7.281 9.53403 8.05094" stroke="#707070" stroke-width="0.567" stroke-miterlimit="10"/>
<path opacity="0.2" d="M18.162 40.8833C17.567 40.3069 16.1991 42.309 14.5864 42.5469C12.9738 42.7847 9.79582 40.8494 9.58547 41.5284C9.37512 42.2074 11.1043 44.7534 10.707 46.6209C10.3098 48.4883 8.08957 50.2197 7.85594 51.9172C7.62232 53.6147 8.18477 54.5727 8.18477 54.5727C8.18477 54.5727 10.6836 53.6146 12.9502 53.5808C15.2168 53.547 17.0163 54.8369 18.7691 53.5129C20.5219 52.1888 19.0491 50.6954 18.5122 48.2165C17.9753 45.7376 17.3906 44.279 18.1151 43.2936C18.8396 42.3082 18.7227 41.4263 18.162 40.8833Z" fill="url(#paint18_linear)"/>
</g>
<defs>
<linearGradient id="paint0_linear" x1="23.0338" y1="27.9998" x2="0.010498" y2="27.9998" gradientUnits="userSpaceOnUse">
<stop stop-color="#B8C2CC"/>
<stop offset="0.077" stop-color="#C7CFD7"/>
<stop offset="0.187" stop-color="#D6DCE1"/>
<stop offset="0.317" stop-color="#DFE3E8"/>
<stop offset="0.514" stop-color="#E2E6EA"/>
<stop offset="0.774" stop-color="#E0E4E8"/>
<stop offset="0.868" stop-color="#D9DEE3"/>
<stop offset="0.934" stop-color="#CDD4DB"/>
<stop offset="0.988" stop-color="#BCC6CF"/>
<stop offset="1" stop-color="#B8C2CC"/>
</linearGradient>
<linearGradient id="paint1_linear" x1="11.512" y1="56.0007" x2="11.512" y2="-0.000244141" gradientUnits="userSpaceOnUse">
<stop stop-color="white" stop-opacity="0"/>
<stop offset="0.347" stop-color="white" stop-opacity="0.365"/>
<stop offset="0.799" stop-color="white" stop-opacity="0.82"/>
<stop offset="1" stop-color="white"/>
</linearGradient>
<linearGradient id="paint2_linear" x1="11.5222" y1="56" x2="11.5222" y2="-0.000488281" gradientUnits="userSpaceOnUse">
<stop stop-color="white" stop-opacity="0"/>
<stop offset="0.347" stop-color="white" stop-opacity="0.365"/>
<stop offset="0.799" stop-color="white" stop-opacity="0.82"/>
<stop offset="1" stop-color="white"/>
</linearGradient>
<linearGradient id="paint3_linear" x1="11.5437" y1="56.0005" x2="11.5437" y2="-0.000488281" gradientUnits="userSpaceOnUse">
<stop stop-color="#B8C2CC"/>
<stop offset="0.016" stop-color="#B9C3CD" stop-opacity="0.953"/>
<stop offset="0.103" stop-color="#C3CBD4" stop-opacity="0.733"/>
<stop offset="0.197" stop-color="#CBD2D9" stop-opacity="0.533"/>
<stop offset="0.294" stop-color="#D2D8DE" stop-opacity="0.369"/>
<stop offset="0.398" stop-color="#D8DDE2" stop-opacity="0.235"/>
<stop offset="0.51" stop-color="#DCE1E6" stop-opacity="0.129"/>
<stop offset="0.634" stop-color="#DFE3E8" stop-opacity="0.055"/>
<stop offset="0.78" stop-color="#E1E5E9" stop-opacity="0.012"/>
<stop offset="1" stop-color="#E2E6EA" stop-opacity="0"/>
</linearGradient>
<linearGradient id="paint4_linear" x1="18.6137" y1="-1.98393" x2="24.5589" y2="11.9015" gradientUnits="userSpaceOnUse">
<stop stop-color="#C3CFDA"/>
<stop offset="1" stop-color="#C3CFDA" stop-opacity="0"/>
</linearGradient>
<linearGradient id="paint5_linear" x1="18.8383" y1="23.5784" x2="8.88696" y2="23.5784" gradientUnits="userSpaceOnUse">
<stop stop-color="#B0BCC7"/>
<stop offset="0.179" stop-color="#D3DAE0"/>
<stop offset="0.587" stop-color="#D8DEE4"/>
<stop offset="0.86" stop-color="#CAD3DA"/>
<stop offset="1" stop-color="#B0BCC7"/>
</linearGradient>
<linearGradient id="paint6_linear" x1="21.2881" y1="14.4415" x2="7.95294" y2="14.4415" gradientUnits="userSpaceOnUse">
<stop stop-color="#C4C9CF"/>
<stop offset="0.073" stop-color="#D2D5D9"/>
<stop offset="0.184" stop-color="#E1E2E4"/>
<stop offset="0.316" stop-color="#EAEAEB"/>
<stop offset="0.514" stop-color="#EDEDED"/>
<stop offset="0.776" stop-color="#EBEBEB"/>
<stop offset="0.87" stop-color="#E4E5E6"/>
<stop offset="0.937" stop-color="#D8DBDE"/>
<stop offset="0.99" stop-color="#C7CCD1"/>
<stop offset="1" stop-color="#C4C9CF"/>
</linearGradient>
<linearGradient id="paint7_linear" x1="14.6205" y1="24.5957" x2="14.6205" y2="4.29028" gradientUnits="userSpaceOnUse">
<stop stop-color="#B8C2CC"/>
<stop offset="0.016" stop-color="#B9C3CD" stop-opacity="0.953"/>
<stop offset="0.103" stop-color="#C3CBD4" stop-opacity="0.733"/>
<stop offset="0.197" stop-color="#CBD2D9" stop-opacity="0.533"/>
<stop offset="0.294" stop-color="#D2D8DE" stop-opacity="0.369"/>
<stop offset="0.398" stop-color="#D8DDE2" stop-opacity="0.235"/>
<stop offset="0.51" stop-color="#DCE1E6" stop-opacity="0.129"/>
<stop offset="0.634" stop-color="#DFE3E8" stop-opacity="0.055"/>
<stop offset="0.78" stop-color="#E1E5E9" stop-opacity="0.012"/>
<stop offset="1" stop-color="#E2E6EA" stop-opacity="0"/>
</linearGradient>
<linearGradient id="paint8_linear" x1="14.6202" y1="24.6032" x2="14.6202" y2="4.29028" gradientUnits="userSpaceOnUse">
<stop stop-color="white" stop-opacity="0"/>
<stop offset="0.347" stop-color="white" stop-opacity="0.365"/>
<stop offset="0.799" stop-color="white" stop-opacity="0.82"/>
<stop offset="1" stop-color="white"/>
</linearGradient>
<linearGradient id="paint9_linear" x1="18.7842" y1="28.7238" x2="22.975" y2="29.1838" gradientUnits="userSpaceOnUse">
<stop stop-color="#AEBECD"/>
<stop offset="1" stop-color="#C3CFDA" stop-opacity="0"/>
</linearGradient>
<linearGradient id="paint10_linear" x1="19.8889" y1="43.0111" x2="22.4951" y2="43.7619" gradientUnits="userSpaceOnUse">
<stop stop-color="#AEBECD"/>
<stop offset="1" stop-color="#C3CFDA" stop-opacity="0"/>
</linearGradient>
<linearGradient id="paint11_linear" x1="3.04594" y1="29.4124" x2="5.65935" y2="29.4252" gradientUnits="userSpaceOnUse">
<stop stop-color="#AEBECD"/>
<stop offset="1" stop-color="#C3CFDA" stop-opacity="0"/>
</linearGradient>
<linearGradient id="paint12_linear" x1="2.9549" y1="32.9254" x2="5.56828" y2="32.9351" gradientUnits="userSpaceOnUse">
<stop stop-color="#AEBECD"/>
<stop offset="1" stop-color="#C3CFDA" stop-opacity="0"/>
</linearGradient>
<linearGradient id="paint13_linear" x1="4.55352" y1="18.3575" x2="9.54222" y2="17.8145" gradientUnits="userSpaceOnUse">
<stop stop-color="#AEBECD"/>
<stop offset="1" stop-color="#C3CFDA" stop-opacity="0"/>
</linearGradient>
<linearGradient id="paint14_linear" x1="21.2327" y1="17.611" x2="16.3467" y2="17.611" gradientUnits="userSpaceOnUse">
<stop stop-color="#AEBECD"/>
<stop offset="1" stop-color="#C3CFDA" stop-opacity="0"/>
</linearGradient>
<linearGradient id="paint15_linear" x1="14.6133" y1="11.1885" x2="14.6133" y2="5.50659" gradientUnits="userSpaceOnUse">
<stop stop-color="#C3CFDA" stop-opacity="0"/>
<stop offset="1" stop-color="#AEBECD"/>
</linearGradient>
<linearGradient id="paint16_linear" x1="4.85779" y1="24.7365" x2="8.49773" y2="24.7964" gradientUnits="userSpaceOnUse">
<stop stop-color="#AEBECD"/>
<stop offset="1" stop-color="#C3CFDA" stop-opacity="0"/>
</linearGradient>
<linearGradient id="paint17_linear" x1="6.38694" y1="3.84852" x2="11.5764" y2="6.42786" gradientUnits="userSpaceOnUse">
<stop stop-color="#AEBECD"/>
<stop offset="1" stop-color="#C3CFDA" stop-opacity="0"/>
</linearGradient>
<linearGradient id="paint18_linear" x1="11.8595" y1="42.9037" x2="16.6601" y2="55.055" gradientUnits="userSpaceOnUse">
<stop stop-color="#AEBECD"/>
<stop offset="1" stop-color="#C3CFDA" stop-opacity="0"/>
</linearGradient>
<clipPath id="clip0">
<rect width="23.0555" height="56" fill="white"/>
</clipPath>
</defs>
</svg>
