<svg width="104" height="32" viewBox="0 0 104 32" fill="none" xmlns="http://www.w3.org/2000/svg">
<path d="M14.612 31.9996C15.1006 31.9606 15.5766 31.8256 16.0129 31.6024C17.8145 30.0126 16.0129 26.8322 15.8128 24.4468C14.8137 26.6343 12.2105 29.2154 13.6114 31.2047C13.6114 31.602 14.2099 32 14.612 32V31.9996ZM7.20545 29.4189C7.41268 29.5467 7.64409 29.6303 7.88515 29.6645C8.12622 29.6987 8.37175 29.6827 8.60634 29.6175C11.0079 29.022 11.0079 25.4437 11.8084 23.2584C10.0069 24.8482 6.40457 25.8421 6.60469 28.2275C6.59884 28.4604 6.65063 28.6911 6.75543 28.8992C6.86024 29.1072 7.01483 29.2861 7.20545 29.42V29.4189ZM2.00213 23.6534C2.10691 23.8857 2.27525 24.0836 2.48772 24.2243C2.70019 24.3651 2.94812 24.4428 3.2029 24.4486C5.60443 25.0438 7.20545 21.6659 9.20672 20.2748C6.80519 20.8703 3.2029 20.0761 2.20077 22.2626C2.03148 22.4475 1.92185 22.6791 1.88615 22.9273C1.85045 23.1755 1.89035 23.4286 2.00064 23.6537L2.00213 23.6534ZM0.000485537 16.2977C-0.00561326 16.5303 0.0458236 16.7609 0.150231 16.969C0.254639 17.177 0.408788 17.356 0.598998 17.4902C2.40052 19.08 5.40206 16.8947 7.80396 16.4963C5.40468 15.9019 2.60252 13.5164 0.598998 15.107C0.409055 15.241 0.255072 15.4197 0.150678 15.6274C0.0462832 15.8351 -0.00530284 16.0653 0.000485537 16.2977ZM1.60151 8.74443C1.50257 8.96298 1.4514 9.20012 1.4514 9.44002C1.4514 9.67992 1.50257 9.91705 1.60151 10.1356C2.60214 12.322 6.20444 11.9244 8.40621 12.5207C6.60544 10.9327 5.20492 7.55377 2.80302 7.95103C2.55568 7.98391 2.31906 8.07258 2.11103 8.21036C1.90301 8.34813 1.72903 8.5314 1.60225 8.74631L1.60151 8.74443ZM6.80557 2.78363C6.59009 2.90827 6.40596 3.08051 6.26722 3.2872C6.12848 3.49388 6.03881 3.72953 6.00506 3.97616C5.80493 6.55987 9.2071 7.75427 11.0086 9.34257C10.2081 7.15613 10.4101 3.57853 8.00633 2.78363C7.82181 2.68429 7.61552 2.63229 7.40595 2.63229C7.19639 2.63229 6.99009 2.68429 6.80557 2.78363ZM14.0105 0.000546118C13.7632 0.0334198 13.5266 0.122097 13.3185 0.259872C13.1105 0.397648 12.9365 0.580915 12.8098 0.795819C11.4089 2.78363 14.0105 5.56596 14.6113 7.75352C15.0115 5.36733 16.8123 2.38599 15.212 0.595692C15.0757 0.405926 14.8949 0.252458 14.6855 0.148709C14.4761 0.0449605 14.2445 -0.00591004 14.0109 0.000546118H14.0105ZM21.2151 22.8585C21.2151 22.6598 21.015 22.0632 21.2151 21.6659C21.3159 21.0664 21.6406 20.5274 22.1236 20.1581C22.6066 19.7888 23.2118 19.6167 23.8168 19.6766H24.0158C23.6471 19.4422 23.3658 19.0929 23.2153 18.6827C23.0346 18.1004 23.0782 17.4715 23.3378 16.9197C23.5973 16.3679 24.0538 15.9332 24.6177 15.701H24.8178C24.5881 15.6864 24.3637 15.6263 24.1575 15.524C23.9514 15.4218 23.7676 15.2795 23.617 15.1055C23.3912 14.9124 23.2065 14.6759 23.0738 14.4101C22.9411 14.1443 22.8631 13.8545 22.8444 13.558C22.8258 13.2615 22.8668 12.9643 22.9652 12.6839C23.0635 12.4036 23.2171 12.1458 23.4169 11.9259H23.617C23.3969 12.0252 23.1581 12.0765 22.9166 12.0765C22.6751 12.0765 22.4363 12.0252 22.2161 11.9259C21.6571 11.7352 21.1865 11.3478 20.8919 10.8359C20.5974 10.3239 20.499 9.72231 20.6151 9.14319V8.94456C20.4645 9.11838 20.2808 9.26048 20.0747 9.3626C19.8686 9.46471 19.6443 9.52479 19.4147 9.53933C19.1257 9.62944 18.8212 9.65933 18.5202 9.62716C18.2192 9.59499 17.9279 9.50144 17.6644 9.3523C17.4019 9.20373 17.173 9.0025 16.992 8.76123C16.811 8.51995 16.6818 8.24386 16.6126 7.95028V7.75165C16.4619 8.16208 16.1803 8.5115 15.8113 8.74593C15.6008 8.96778 15.3441 9.14078 15.0595 9.25275C14.7749 9.36471 14.4692 9.41293 14.1639 9.39399C13.8587 9.37505 13.5613 9.28943 13.2926 9.14314C13.024 8.99686 12.7908 8.79347 12.6093 8.5473V8.34867C12.6409 8.75656 12.5722 9.16598 12.4091 9.5412C12.3178 9.83882 12.1648 10.1138 11.96 10.3483C11.7552 10.5828 11.5033 10.7715 11.2207 10.9021C10.9373 11.0333 10.6295 11.1038 10.3172 11.109C10.0049 11.1142 9.6949 11.0541 9.40723 10.9324H9.2071C9.60735 11.3296 9.00697 14.51 7.80621 14.7105L7.60645 14.5133C8.03223 14.7367 8.38091 15.083 8.60709 15.5072C8.78312 15.7531 8.90754 16.032 8.97285 16.3272C9.03815 16.6224 9.04298 16.9278 8.98705 17.2249C8.93112 17.522 8.81559 17.8047 8.64742 18.056C8.47926 18.3073 8.26194 18.5219 8.00858 18.6868H7.80733C8.21774 18.6553 8.6297 18.7234 9.00809 18.8855C9.53799 19.1984 9.93331 19.6964 10.1179 20.2835C10.3024 20.8706 10.2631 21.5052 10.0076 22.0651L9.80748 22.2637C10.173 22.0433 10.5833 21.9075 11.0082 21.8664C11.3118 21.8739 11.6107 21.9422 11.8874 22.0672C12.164 22.1923 12.4128 22.3715 12.619 22.5944C12.8242 22.8164 12.9823 23.0776 13.0838 23.3623C13.1853 23.6471 13.2281 23.9494 13.2096 24.2511V24.4498C13.4098 24.0525 16.6137 23.6545 17.2122 24.6484V24.847C17.2538 24.4244 17.3907 24.0167 17.6125 23.6545C17.7846 23.3525 18.0181 23.09 18.2979 22.8838C18.5777 22.6776 18.8977 22.5323 19.2371 22.4574C19.5765 22.3825 19.9279 22.3795 20.2685 22.4487C20.6091 22.5179 20.9315 22.6578 21.2147 22.8592L21.2151 22.8585ZM22.2158 31.0072C22.6412 30.7834 22.9897 30.4372 23.2164 30.0133C24.0169 27.6282 21.015 25.6404 19.6141 23.6541C19.8142 26.0392 18.8136 29.4182 20.8149 30.8097C21.2665 30.9606 21.7418 31.0281 22.2176 31.0091L22.2158 31.0072Z" fill="#007BFF"/>
<path fill-rule="evenodd" clip-rule="evenodd" d="M16.012 22.66C17.3074 22.651 18.571 22.2586 19.6437 21.5324C20.7163 20.8062 21.55 19.7787 22.0394 18.5793C22.5289 17.38 22.6523 16.0626 22.3941 14.7933C22.1358 13.5239 21.5076 12.3594 20.5884 11.4466C19.6693 10.5339 18.5005 9.91366 17.2294 9.66424C15.9582 9.41483 14.6417 9.54736 13.4458 10.0451C12.2499 10.5429 11.2282 11.3836 10.5094 12.4613C9.79068 13.539 9.40711 14.8053 9.40708 16.1007C9.39818 16.9658 9.56297 17.8239 9.89169 18.6242C10.2204 19.4245 10.7064 20.1506 11.3208 20.7597C11.9379 21.3714 12.6704 21.8545 13.4757 22.1807C14.281 22.5069 15.1432 22.6698 16.012 22.66Z" fill="white"/>
<path fill-rule="evenodd" clip-rule="evenodd" d="M28.6205 26.4361C28.8999 26.0274 29.0403 25.5396 29.0208 25.0449C28.6205 22.6594 25.0182 22.2622 23.0169 21.0696C24.4178 23.0575 25.0182 26.6351 27.4197 26.8337C27.8507 26.8243 28.269 26.686 28.6205 26.4364V26.4361ZM32.2228 19.4784C32.2883 19.2453 32.3044 19.0012 32.2699 18.7616C32.2354 18.522 32.1512 18.2923 32.0227 18.0872C30.6218 16.0994 27.2196 17.4917 24.8177 17.2919C27.0191 18.4844 29.2205 21.2672 31.4223 20.2733C31.6228 20.2733 32.023 19.8771 32.2228 19.4795V19.4784ZM32.0227 11.7265C31.984 11.5067 31.8903 11.3003 31.7503 11.1265C31.6103 10.9527 31.4286 10.8172 31.2222 10.7326C29.0208 9.73869 26.6192 12.3224 24.4174 13.5153C26.819 13.5153 30.0214 15.1051 31.6224 13.118C31.7776 12.924 31.8929 12.7012 31.9616 12.4625C32.0303 12.2237 32.051 11.9737 32.0227 11.7269V11.7265ZM28.2202 4.97079C28.0839 4.78101 27.9032 4.62751 27.6939 4.52369C27.4846 4.41988 27.253 4.36892 27.0195 4.37528C24.6179 4.37528 23.8174 7.95288 22.2164 9.94069C24.4178 8.94678 28.0201 8.74815 28.4207 6.36308C28.4864 6.12988 28.5025 5.8855 28.4679 5.64571C28.4334 5.40591 28.349 5.176 28.2202 4.97079ZM21.8158 0.796173C21.5812 0.731007 21.3357 0.715012 21.0946 0.749193C20.8535 0.783373 20.6221 0.866992 20.4149 0.994804C18.2135 2.18734 19.2141 5.76495 18.8139 7.95251C20.2148 5.9647 23.4168 4.1744 22.6163 1.79082C22.4 1.42162 22.1302 1.08644 21.8158 0.796173ZM16.0117 16.2995H15.8116L13.8103 15.5042C13.7022 15.4909 13.5924 15.5016 13.4889 15.5357C13.3855 15.5698 13.2908 15.6263 13.2118 15.7014C13.0117 15.9 13.2118 16.0986 13.4119 16.2969L15.4132 17.0922C15.4132 17.4894 15.8135 17.6877 16.2137 17.6877C16.614 17.6877 16.8122 17.2904 16.8122 16.8924L19.0136 13.7128C19.2138 13.5142 19.0136 13.3155 18.8135 13.1173C18.6134 12.9187 18.4132 13.1173 18.215 13.3159L16.0117 16.2995Z" fill="#102A43"/>
<path d="M99.7448 14.5066C99.7941 14.5116 99.8438 14.5056 99.8905 14.4891C99.9372 14.4726 99.9797 14.446 100.015 14.4112C100.05 14.3765 100.077 14.3343 100.093 14.2878C100.11 14.2414 100.116 14.1918 100.111 14.1426V10.7281L103.383 4.62817C103.413 4.5787 103.431 4.52336 103.437 4.46604C103.443 4.40872 103.436 4.35081 103.417 4.29637C103.389 4.25292 103.349 4.21777 103.302 4.19441C103.256 4.17105 103.204 4.16029 103.151 4.1632H101.182C100.982 4.1632 100.815 4.29637 100.715 4.56047C99.9812 6.01809 99.3807 7.24442 98.9137 8.23945C98.8478 8.07448 98.7476 7.90765 98.6477 7.67497C98.5478 7.4423 98.3484 7.011 98.0492 6.41473C97.7499 5.81846 97.4507 5.15449 97.114 4.42692C97.0735 4.34672 97.0114 4.27946 96.9346 4.23278C96.8578 4.1861 96.7695 4.16187 96.6797 4.16283H94.6365C94.5022 4.16283 94.4024 4.19687 94.3706 4.296C94.3517 4.35044 94.345 4.40835 94.3509 4.46567C94.3567 4.52299 94.3751 4.57832 94.4046 4.6278L97.6066 10.7278V14.1423C97.5988 14.1919 97.6028 14.2426 97.6184 14.2904C97.634 14.3381 97.6608 14.3815 97.6964 14.4168C97.7323 14.4524 97.776 14.479 97.824 14.4945C97.872 14.5101 97.923 14.5141 97.9729 14.5062L99.7448 14.5066ZM88.629 10.2972C89.0954 8.67337 89.3973 7.57809 89.5641 6.98182C89.5882 7.11639 89.6216 7.24913 89.664 7.37909C89.7299 7.61176 89.8301 8.00902 89.9981 8.5387C90.166 9.06839 90.3321 9.66578 90.5322 10.2617H88.629V10.2972ZM87.1259 14.5066C87.2167 14.5096 87.3058 14.4816 87.3786 14.4272C87.4513 14.3728 87.5034 14.2953 87.5262 14.2074L88.0604 12.5177H91.0986L91.5987 14.2092C91.6215 14.2972 91.6736 14.3747 91.7463 14.4291C91.8191 14.4835 91.9082 14.5115 91.999 14.5085H93.9344C94.0687 14.5085 94.1686 14.4744 94.2004 14.409C94.2662 14.3435 94.2662 14.244 94.2344 14.1097L91.1648 4.495C91.142 4.40708 91.0899 4.32954 91.0172 4.27515C90.9444 4.22076 90.8553 4.19275 90.7645 4.19575H88.495C88.4043 4.19275 88.3152 4.22076 88.2424 4.27515C88.1697 4.32954 88.1176 4.40708 88.0948 4.495L84.9249 14.1086C84.8909 14.2418 84.8909 14.3413 84.959 14.4079C84.9931 14.4432 85.0347 14.4705 85.0807 14.4877C85.1267 14.5049 85.176 14.5117 85.2249 14.5074L87.1259 14.5066ZM78.1198 12.1533V6.51835C78.276 6.51841 78.4319 6.50703 78.5863 6.48431C78.8523 6.48431 79.0206 6.45027 79.1545 6.45027C80.7896 6.45027 81.5897 7.34317 81.5897 9.16938C81.6401 9.6517 81.5722 10.139 81.392 10.5892C81.2117 11.0394 80.9244 11.4389 80.555 11.7531C80.0611 12.0415 79.4896 12.1687 78.92 12.1171H78.1195L78.1198 12.1533ZM78.5541 14.5066C79.6164 14.5813 80.6808 14.3972 81.6563 13.9702C82.4441 13.5882 83.0967 12.9748 83.5266 12.2121C84.0416 11.305 84.2957 10.2732 84.2609 9.23073C84.274 8.62604 84.195 8.02289 84.0268 7.44193C83.7866 6.52843 83.2455 5.72257 82.4909 5.15449C82.1554 4.89375 81.7847 4.68168 81.39 4.52456C80.5978 4.24671 79.7597 4.12316 78.9211 4.16059C78.0525 4.16059 77.1862 4.16059 76.2832 4.19463C76.0995 4.18194 75.9157 4.21618 75.749 4.29413C75.6491 4.35959 75.5829 4.5268 75.5829 4.82456V14.1688C75.5829 14.4329 75.6828 14.5328 75.9495 14.5328H78.5511L78.5541 14.5066ZM73.5506 14.5066C73.5998 14.5116 73.6496 14.5056 73.6963 14.4891C73.7429 14.4726 73.7854 14.446 73.8207 14.4112C73.8557 14.3765 73.8825 14.3343 73.8992 14.2878C73.9158 14.2414 73.9218 14.1918 73.9168 14.1426V12.6172C73.9218 12.5681 73.9158 12.5185 73.8992 12.472C73.8825 12.4255 73.8557 12.3834 73.8207 12.3486C73.7854 12.3138 73.7429 12.2872 73.6963 12.2708C73.6496 12.2543 73.5998 12.2483 73.5506 12.2532H70.0044V10.3922H72.9083C72.9576 10.3972 73.0073 10.3912 73.054 10.3747C73.1007 10.3582 73.1431 10.3316 73.1784 10.2968C73.2134 10.2621 73.2403 10.2199 73.2569 10.1734C73.2735 10.127 73.2795 10.0774 73.2745 10.0282V8.57349C73.2831 8.52339 73.2796 8.47195 73.2642 8.42351C73.2487 8.37507 73.2219 8.33106 73.1859 8.29518C73.1497 8.25914 73.1054 8.23223 73.0568 8.21668C73.0081 8.20114 72.9564 8.1974 72.9061 8.20578H70.0044V6.48506H73.2506C73.2998 6.49015 73.3496 6.48431 73.3964 6.46795C73.4431 6.45159 73.4857 6.42512 73.521 6.39042C73.5562 6.35585 73.5832 6.31386 73.6 6.26751C73.6168 6.22117 73.6231 6.17165 73.6183 6.12258V4.56271C73.6233 4.51361 73.6173 4.464 73.6007 4.41752C73.584 4.37104 73.5572 4.32888 73.5221 4.29413C73.4869 4.25935 73.4444 4.23277 73.3978 4.21628C73.3511 4.19979 73.3013 4.1938 73.2521 4.19874H67.867C67.8177 4.1938 67.7679 4.19979 67.7213 4.21628C67.6746 4.23277 67.6321 4.25935 67.5969 4.29413C67.5618 4.32888 67.535 4.37104 67.5184 4.41752C67.5017 4.464 67.4957 4.51361 67.5007 4.56271V14.1426C67.4929 14.1923 67.4969 14.243 67.5125 14.2908C67.5281 14.3385 67.5549 14.3818 67.5905 14.4172C67.6264 14.4528 67.67 14.4794 67.7181 14.4949C67.7661 14.5104 67.8171 14.5144 67.867 14.5066H73.5506ZM58.33 14.5066C58.3792 14.5114 58.4288 14.5054 58.4753 14.4889C58.5219 14.4724 58.5642 14.4459 58.5994 14.4112C58.6344 14.3765 58.6613 14.3343 58.6779 14.2878C58.6945 14.2414 58.7005 14.1918 58.6955 14.1426V8.63933L60.4562 11.7838C60.5221 11.9169 60.6564 11.9487 60.8565 11.9487H60.956C61.1555 11.9487 61.3222 11.8163 61.4561 11.5515L63.0572 8.60192V14.1086C63.0493 14.1582 63.0533 14.209 63.0689 14.2567C63.0845 14.3045 63.1113 14.3478 63.1469 14.3832C63.1828 14.4187 63.2265 14.4453 63.2745 14.4609C63.3225 14.4764 63.3735 14.4804 63.4234 14.4726H65.2593C65.3086 14.4775 65.3583 14.4715 65.405 14.455C65.4517 14.4385 65.4942 14.412 65.5294 14.3772C65.5644 14.3424 65.5913 14.3003 65.6079 14.2538C65.6245 14.2073 65.6306 14.1577 65.6255 14.1086V4.5687C65.6306 4.51959 65.6245 4.46998 65.6079 4.42351C65.5913 4.37703 65.5644 4.33487 65.5294 4.30011C65.4942 4.26533 65.4517 4.23875 65.405 4.22227C65.3583 4.20578 65.3086 4.19979 65.2593 4.20473H63.5262C63.4364 4.20376 63.3481 4.22799 63.2713 4.27467C63.1946 4.32135 63.1324 4.38861 63.0919 4.46882L60.8902 8.38122L58.6207 4.42954C58.5803 4.34956 58.5184 4.28246 58.4419 4.23579C58.3655 4.18913 58.2775 4.16476 58.1879 4.16545H56.4511C56.4018 4.16051 56.3521 4.1665 56.3054 4.18299C56.2587 4.19948 56.2162 4.22606 56.181 4.26084C56.1459 4.29559 56.1191 4.33775 56.1025 4.38423C56.0858 4.4307 56.0798 4.48031 56.0849 4.52942V14.109C56.0849 14.3731 56.1847 14.4729 56.4515 14.4729H58.3218L58.33 14.5066ZM49.3243 10.2972C49.7908 8.67337 50.0926 7.57809 50.2595 6.98182C50.2836 7.11639 50.3169 7.24912 50.3594 7.37909C50.4252 7.61176 50.5254 8.00902 50.6934 8.5387C50.8614 9.06839 51.0274 9.66578 51.2276 10.2617H49.3243V10.2972ZM47.8074 14.5066C47.8982 14.5096 47.9873 14.4816 48.0601 14.4272C48.1328 14.3728 48.1849 14.2953 48.2077 14.2074L48.7407 12.5154H51.7789L52.2776 14.2089C52.3004 14.2968 52.3525 14.3743 52.4252 14.4287C52.498 14.4831 52.5871 14.5111 52.6778 14.5081H54.6133C54.7476 14.5081 54.8474 14.4741 54.8792 14.4086C54.9451 14.3431 54.9451 14.2436 54.9133 14.1094L51.8347 4.49575C51.8119 4.40783 51.7598 4.33029 51.6871 4.2759C51.6143 4.2215 51.5252 4.1935 51.4344 4.1965H49.1728C49.082 4.1935 48.9929 4.2215 48.9202 4.2759C48.8474 4.33029 48.7954 4.40783 48.7725 4.49575L45.6042 14.109C45.5701 14.2421 45.5701 14.3417 45.6382 14.4082C45.6723 14.4436 45.7139 14.4709 45.7599 14.4881C45.8059 14.5053 45.8552 14.512 45.9042 14.5077L47.8074 14.5066ZM41.1647 14.7052C42.1676 14.7712 43.1612 14.4773 43.9669 13.8763C44.3072 13.5763 44.5744 13.2024 44.7478 12.7832C44.9213 12.364 44.9964 11.9107 44.9675 11.4579C44.9766 11.1216 44.9313 10.7859 44.8332 10.464C44.7421 10.1827 44.5943 9.92294 44.3989 9.70094C44.197 9.46794 43.9608 9.26712 43.6983 9.10542C43.38 8.90117 43.0453 8.72375 42.6976 8.57499L41.8994 8.20728C41.6192 8.063 41.3511 7.89638 41.0977 7.70901C41.0137 7.62141 40.9493 7.51686 40.9089 7.40234C40.8685 7.28783 40.8531 7.16601 40.8636 7.04504C40.8557 6.91991 40.8826 6.79504 40.9412 6.68421C40.9998 6.57338 41.0879 6.4809 41.1958 6.41698C41.461 6.26968 41.7626 6.20091 42.0655 6.21872C42.7778 6.22188 43.4779 6.4043 44.1012 6.74915C44.1508 6.78175 44.2088 6.79912 44.2682 6.79912C44.3275 6.79912 44.3856 6.78175 44.4352 6.74915C44.5351 6.71511 44.5695 6.61598 44.5695 6.44989V4.92556C44.5765 4.8387 44.5582 4.75166 44.5166 4.67507C44.475 4.59848 44.412 4.53566 44.3353 4.49426C43.4949 4.16927 42.599 4.01207 41.6981 4.03153C40.7748 3.98398 39.8645 4.26596 39.1298 4.82718C38.8017 5.11396 38.5439 5.47216 38.376 5.87423C38.2081 6.27629 38.1346 6.71152 38.1613 7.14641C38.1616 7.50579 38.2168 7.86302 38.3248 8.20578C38.4192 8.51228 38.5782 8.79495 38.7912 9.03472C38.9894 9.25927 39.2138 9.45921 39.4597 9.63024C39.723 9.81094 40.0031 9.96578 40.2961 10.0926L41.1303 10.4902C41.4319 10.5918 41.7059 10.7619 41.9308 10.987C41.9999 11.0631 42.0532 11.1522 42.0875 11.2491C42.1219 11.346 42.1366 11.4488 42.1309 11.5515C42.1506 11.6922 42.1296 11.8357 42.0704 11.9649C42.0112 12.0942 41.9163 12.2038 41.7969 12.2809C41.4743 12.4335 41.1183 12.5019 40.7622 12.4795C39.954 12.4438 39.1701 12.1919 38.4924 11.7501C38.4478 11.71 38.3932 11.6828 38.3344 11.6713C38.2755 11.6597 38.2147 11.6644 38.1583 11.6846C38.0603 11.722 38.0259 11.8197 38.0259 11.9839V13.5737C38.0188 13.6605 38.0372 13.7476 38.0788 13.8242C38.1204 13.9008 38.1834 13.9636 38.2601 14.005C39.161 14.4597 40.1548 14.7004 41.164 14.7082L41.1647 14.7052Z" fill="#102A43"/>
<path d="M85.0349 28.4204C85.0842 28.4253 85.1339 28.4192 85.1806 28.4027C85.2273 28.3861 85.2697 28.3595 85.3049 28.3246C85.3399 28.2899 85.3667 28.2478 85.3834 28.2014C85.4 28.155 85.4061 28.1054 85.4011 28.0564V22.552L87.17 25.7001C87.2359 25.8333 87.3702 25.8651 87.5366 25.8651H87.6365C87.8033 25.8651 87.9701 25.7327 88.1367 25.4678L89.7059 22.5501V28.022C89.7008 28.0711 89.7069 28.1207 89.7235 28.1672C89.7401 28.2136 89.767 28.2558 89.802 28.2906C89.8372 28.3253 89.8797 28.3519 89.9264 28.3684C89.9731 28.3849 90.0228 28.3909 90.0721 28.386H91.8732C91.9226 28.3909 91.9724 28.385 92.0191 28.3685C92.0659 28.352 92.1084 28.3254 92.1437 28.2906C92.1787 28.2558 92.2056 28.2136 92.2222 28.1672C92.2388 28.1207 92.2449 28.0711 92.2398 28.022V18.5075C92.2451 18.4585 92.2393 18.409 92.2229 18.3625C92.2066 18.316 92.18 18.2738 92.1452 18.2389C92.1101 18.2039 92.0678 18.1771 92.0212 18.1604C91.9745 18.1436 91.9248 18.1374 91.8755 18.142H90.1405C90.0534 18.1348 89.9661 18.1529 89.889 18.1942C89.8119 18.2355 89.7485 18.2982 89.7063 18.3747L87.5366 22.2527L85.367 18.3747C85.3248 18.2982 85.2613 18.2355 85.1843 18.1942C85.1072 18.1529 85.0199 18.1348 84.9327 18.142H83.2337C83.1845 18.1371 83.1347 18.1431 83.088 18.1596C83.0413 18.1761 82.9989 18.2026 82.9636 18.2374C82.9286 18.2722 82.9017 18.3143 82.8851 18.3608C82.8685 18.4073 82.8625 18.4569 82.8675 18.506V28.0463C82.8596 28.0959 82.8637 28.1467 82.8793 28.1944C82.8949 28.2421 82.9216 28.2855 82.9573 28.3209C82.9931 28.3564 83.0368 28.383 83.0848 28.3986C83.1329 28.4141 83.1839 28.4181 83.2337 28.4103H85.0352L85.0349 28.4204ZM76.723 26.2657C76.416 26.2739 76.1117 26.2055 75.8378 26.0667C75.5638 25.9278 75.3287 25.7229 75.1538 25.4704C74.7425 24.8057 74.5442 24.031 74.5856 23.2503C74.5442 22.4697 74.7424 21.695 75.1538 21.0302C75.3305 20.7817 75.5668 20.5816 75.841 20.4483C76.1152 20.315 76.4185 20.2527 76.723 20.2671C77.0171 20.2604 77.3082 20.3265 77.5705 20.4597C77.8328 20.5928 78.058 20.7888 78.226 21.0302C78.6421 21.693 78.8407 22.4692 78.7942 23.2503C78.8407 24.0315 78.6421 24.8077 78.226 25.4704C78.0706 25.7263 77.8489 25.9354 77.5842 26.0754C77.3196 26.2154 77.022 26.2812 76.723 26.2657ZM76.6291 28.619C77.5017 28.6284 78.3587 28.3869 79.098 27.9232C79.8478 27.4464 80.4489 26.7689 80.8329 25.9676C81.2576 25.0779 81.475 24.1034 81.4688 23.1175C81.4695 22.3948 81.3456 21.6773 81.1026 20.9966C80.8902 20.379 80.5488 19.8136 80.1013 19.3379C79.6913 18.8935 79.1901 18.5431 78.6319 18.3107C78.061 18.0728 77.4489 17.9491 76.8304 17.9468C76.1895 17.9489 75.5549 18.0724 74.96 18.3107C74.38 18.5544 73.857 18.9159 73.4241 19.3724C72.977 19.867 72.6262 20.4406 72.3894 21.0639C72.1279 21.7624 72.0035 22.5048 72.0232 23.2503C72.0121 23.9713 72.125 24.6887 72.3572 25.3713C72.5581 25.9968 72.8882 26.5731 73.3261 27.0629C73.7404 27.5277 74.2388 27.9101 74.7951 28.1899C75.3597 28.4863 75.9905 28.6338 76.628 28.6186L76.6291 28.619ZM68.5866 28.4204C68.6359 28.4254 68.6858 28.4194 68.7325 28.4029C68.7793 28.3864 68.8218 28.3598 68.8571 28.325C68.8921 28.2902 68.919 28.2481 68.9356 28.2016C68.9522 28.1551 68.9583 28.1055 68.9532 28.0564V20.5032H70.9223C70.9719 20.5074 71.0218 20.5005 71.0685 20.4831C71.1151 20.4657 71.1573 20.4382 71.192 20.4025C71.2266 20.367 71.2527 20.3241 71.2684 20.2771C71.2841 20.2301 71.2891 20.1802 71.2829 20.131V18.5075C71.2911 18.4577 71.2873 18.4067 71.2719 18.3587C71.2564 18.3107 71.2296 18.267 71.1939 18.2314C71.158 18.1957 71.1141 18.1689 71.0659 18.1533C71.0176 18.1377 70.9664 18.1337 70.9163 18.1417H64.4711C64.4218 18.1367 64.3721 18.1427 64.3254 18.1592C64.2787 18.1757 64.2363 18.2023 64.201 18.2371C64.166 18.2718 64.1391 18.314 64.1225 18.3604C64.1059 18.4069 64.0999 18.4565 64.1049 18.5056V20.0973C64.0999 20.1464 64.1059 20.196 64.1225 20.2425C64.1391 20.289 64.166 20.3311 64.201 20.3659C64.2363 20.4007 64.2787 20.4272 64.3254 20.4437C64.3721 20.4602 64.4218 20.4662 64.4711 20.4613H66.4402V28.0145C66.4352 28.0636 66.4412 28.1132 66.4578 28.1597C66.4745 28.2062 66.5013 28.2483 66.5364 28.2831C66.5716 28.3179 66.6141 28.3444 66.6607 28.3609C66.7074 28.3774 66.7572 28.3834 66.8064 28.3785H68.5754L68.5866 28.4204ZM59.6755 28.5853C60.6686 28.6576 61.6537 28.3626 62.4436 27.7564C62.7805 27.4609 63.0457 27.0925 63.2191 26.6793C63.3925 26.266 63.4695 25.8188 63.4443 25.3713C63.4533 25.0349 63.408 24.6993 63.31 24.3774C63.2114 24.0994 63.0643 23.8411 62.8757 23.6143C62.6775 23.3898 62.4531 23.1898 62.2072 23.0188C61.9006 22.814 61.5765 22.6365 61.2388 22.4884L60.4383 22.1244C60.1516 21.9931 59.8827 21.8262 59.6377 21.6276C59.4871 21.4523 59.404 21.2289 59.4036 20.9977C59.3965 20.876 59.4203 20.7545 59.4726 20.6444C59.5249 20.5343 59.6041 20.4392 59.7028 20.3678C59.9679 20.2211 60.269 20.1522 60.5714 20.1691C61.2679 20.1757 61.9533 20.3451 62.5727 20.6636C62.7061 20.73 62.8059 20.73 62.872 20.6636C62.9718 20.6296 63.0062 20.5305 63.0062 20.3644V18.873C63.0133 18.7861 62.9949 18.6991 62.9533 18.6225C62.9117 18.5459 62.8488 18.4831 62.7721 18.4417C61.944 18.1168 61.0597 17.9594 60.1704 17.9786C59.2564 17.9299 58.3555 18.2123 57.6327 18.7738C57.3124 19.0583 57.0616 19.4124 56.8994 19.8089C56.7373 20.2055 56.6683 20.6339 56.6976 21.0613C56.6981 21.4215 56.7537 21.7795 56.8625 22.1229C56.9645 22.4261 57.1227 22.7073 57.329 22.9518C57.5272 23.1764 57.7516 23.3763 57.9974 23.5474C58.2605 23.7287 58.5405 23.8842 58.8335 24.0116L59.668 24.4088C59.9654 24.5192 60.2377 24.6881 60.4686 24.9056C60.5377 24.9817 60.5909 25.0708 60.6253 25.1677C60.6596 25.2647 60.6744 25.3674 60.6687 25.4701C60.6846 25.6105 60.662 25.7527 60.6031 25.8812C60.5442 26.0098 60.4514 26.1198 60.3346 26.1995C60.0121 26.3521 59.6561 26.4205 59.3 26.3981C58.497 26.3603 57.7164 26.121 57.0301 25.7024C56.9855 25.6623 56.9309 25.6351 56.8721 25.6235C56.8133 25.612 56.7525 25.6166 56.6961 25.6369C56.5962 25.671 56.5618 25.7701 56.5618 25.9362V27.5226C56.5547 27.6095 56.5731 27.6965 56.6147 27.7731C56.6563 27.8497 56.7192 27.9125 56.7959 27.9539C57.6947 28.3701 58.6735 28.5851 59.6639 28.5838L59.6755 28.5853ZM50.8976 28.6194C51.9124 28.6534 52.906 28.3241 53.6998 27.6909C54.4867 27.0312 54.9885 26.0932 55.1007 25.0724C55.1765 24.5676 55.2099 24.0574 55.2005 23.547V18.5075C55.206 18.4577 55.2001 18.4073 55.1832 18.3602C55.1664 18.313 55.139 18.2702 55.1033 18.2352C55.0673 18.2 55.0239 18.1734 54.9762 18.1572C54.9286 18.141 54.8779 18.1357 54.828 18.1417H52.992C52.9428 18.1367 52.893 18.1427 52.8463 18.1592C52.7996 18.1757 52.7572 18.2023 52.7219 18.2371C52.6869 18.2718 52.6601 18.314 52.6434 18.3604C52.6268 18.4069 52.6208 18.4565 52.6258 18.5056V23.6472C52.6364 24.0233 52.625 24.3996 52.5918 24.7743C52.592 24.982 52.5488 25.1874 52.4651 25.3774C52.3813 25.5674 52.2589 25.7378 52.1055 25.8778C51.9513 26.0183 51.7697 26.1255 51.5722 26.1925C51.3746 26.2595 51.1653 26.2849 50.9574 26.2672C50.5621 26.296 50.1701 26.1779 49.8566 25.9354C49.5627 25.64 49.3749 25.2557 49.3224 24.8424C49.2744 24.4578 49.2524 24.0703 49.2566 23.6828V18.5131C49.2627 18.4632 49.2573 18.4126 49.2409 18.3651C49.2245 18.3176 49.1975 18.2744 49.1619 18.2389C49.1261 18.2034 49.0828 18.1763 49.0352 18.1597C48.9875 18.1431 48.9367 18.1375 48.8866 18.1432H47.0851C47.0358 18.1383 46.986 18.1443 46.9393 18.1609C46.8927 18.1774 46.8502 18.2041 46.815 18.2389C46.78 18.2736 46.7532 18.3157 46.7366 18.3621C46.7199 18.4086 46.7139 18.4581 46.7189 18.5071V23.6764C46.7189 24.2068 46.7529 24.704 46.7847 25.1693C46.8231 25.8398 47.0553 26.4848 47.4532 27.0258C47.8089 27.5434 48.3074 27.9463 48.8881 28.1854C49.5145 28.4774 50.1983 28.6254 50.8894 28.6186L50.8976 28.6194ZM42.3179 28.6194C43.3358 28.6316 44.3422 28.4041 45.2559 27.9554C45.3221 27.9135 45.3757 27.8544 45.4109 27.7845C45.4462 27.7145 45.4618 27.6363 45.456 27.5581V26.0316C45.456 25.866 45.4227 25.7662 45.3561 25.7323C45.2903 25.6668 45.2218 25.6668 45.0902 25.7323C44.3324 26.0702 43.5176 26.2618 42.6886 26.2968C42.3581 26.314 42.0279 26.2575 41.722 26.1313C41.416 26.0051 41.142 25.8125 40.9197 25.5673C40.4286 24.923 40.1908 24.121 40.2512 23.3132C40.2402 22.8304 40.3077 22.349 40.4513 21.888C40.5561 21.5336 40.7524 21.213 41.0203 20.9584C41.2383 20.7402 41.5002 20.5709 41.7886 20.4617C42.0892 20.3559 42.4051 20.3001 42.7238 20.2967C43.5184 20.2956 44.3039 20.4655 45.0269 20.7949C45.0677 20.823 45.1174 20.8351 45.1664 20.8288C45.2155 20.8225 45.2606 20.7983 45.2929 20.7609C45.3313 20.7153 45.3599 20.6624 45.3771 20.6053C45.3943 20.5483 45.3996 20.4883 45.3928 20.4291V18.873C45.3928 18.6403 45.3269 18.509 45.1586 18.4757C44.3082 18.1425 43.4022 17.9739 42.4889 17.9789C41.9784 17.9724 41.4704 18.051 40.9859 18.2116C40.5049 18.3519 40.053 18.5773 39.6516 18.8771C39.2463 19.1782 38.8854 19.5348 38.5795 19.9365C38.2671 20.3931 38.0305 20.8973 37.8788 21.4294C37.7018 22.0323 37.6122 22.6575 37.6129 23.2859C37.5455 24.7064 38.0102 26.101 38.9161 27.1972C39.3486 27.6614 39.875 28.0283 40.4602 28.2734C41.0455 28.5185 41.6762 28.6362 42.3104 28.6186L42.3179 28.6194Z" fill="#007BFF"/>
</svg>
