<svg width="40" height="40" viewBox="0 0 40 40"  xmlns="http://www.w3.org/2000/svg">
<path d="M31.0257 4.61548H29.7437V7.17958C29.7437 8.19965 29.3385 9.17793 28.6172 9.89922C27.8959 10.6205 26.9176 11.0257 25.8975 11.0257H15.6411C14.621 11.0257 13.6428 10.6205 12.9215 9.89922C12.2002 9.17793 11.795 8.19965 11.795 7.17958V4.61548H10.5129C9.49284 4.61548 8.51455 5.0207 7.79326 5.74199C7.07197 6.46328 6.66675 7.44157 6.66675 8.46163V32.8206C6.66675 33.8407 7.07197 34.819 7.79326 35.5403C8.51455 36.2615 9.49284 36.6668 10.5129 36.6668H31.0257C32.0458 36.6668 33.0241 36.2615 33.7454 35.5403C34.4667 34.819 34.8719 33.8407 34.8719 32.8206V8.46163C34.8719 7.44157 34.4667 6.46328 33.7454 5.74199C33.0241 5.0207 32.0458 4.61548 31.0257 4.61548ZM13.077 16.1539H20.7693C21.1093 16.1539 21.4354 16.289 21.6759 16.5294C21.9163 16.7699 22.0514 17.096 22.0514 17.436C22.0514 17.776 21.9163 18.1021 21.6759 18.3425C21.4354 18.583 21.1093 18.718 20.7693 18.718H13.077C12.737 18.718 12.4109 18.583 12.1705 18.3425C11.93 18.1021 11.795 17.776 11.795 17.436C11.795 17.096 11.93 16.7699 12.1705 16.5294C12.4109 16.289 12.737 16.1539 13.077 16.1539ZM13.077 22.5642H20.7693C21.1093 22.5642 21.4354 22.6993 21.6759 22.9397C21.9163 23.1801 22.0514 23.5062 22.0514 23.8463C22.0514 24.1863 21.9163 24.5124 21.6759 24.7528C21.4354 24.9932 21.1093 25.1283 20.7693 25.1283H13.077C12.737 25.1283 12.4109 24.9932 12.1705 24.7528C11.93 24.5124 11.795 24.1863 11.795 23.8463C11.795 23.5062 11.93 23.1801 12.1705 22.9397C12.4109 22.6993 12.737 22.5642 13.077 22.5642ZM24.6155 31.5386H13.077C12.737 31.5386 12.4109 31.4035 12.1705 31.1631C11.93 30.9226 11.795 30.5965 11.795 30.2565C11.795 29.9165 11.93 29.5904 12.1705 29.35C12.4109 29.1095 12.737 28.9745 13.077 28.9745H24.6155C24.9555 28.9745 25.2816 29.1095 25.522 29.35C25.7624 29.5904 25.8975 29.9165 25.8975 30.2565C25.8975 30.5965 25.7624 30.9226 25.522 31.1631C25.2816 31.4035 24.9555 31.5386 24.6155 31.5386Z" />
<path d="M25.8976 3.33325H15.6412C14.9331 3.33325 14.3591 3.90725 14.3591 4.6153V7.17941C14.3591 7.88746 14.9331 8.46146 15.6412 8.46146H25.8976C26.6056 8.46146 27.1796 7.88746 27.1796 7.17941V4.6153C27.1796 3.90725 26.6056 3.33325 25.8976 3.33325Z" />
</svg>
