<svg width="18" height="18" viewBox="0 0 18 18" fill="none" xmlns="http://www.w3.org/2000/svg">
<path fill-rule="evenodd" clip-rule="evenodd" d="M9 3C8.40326 3 7.83097 3.23705 7.40901 3.65901C6.98705 4.08097 6.75 4.65326 6.75 5.25C6.75 5.84674 6.98705 6.41903 7.40901 6.84099C7.83097 7.26295 8.40326 7.5 9 7.5C9.59674 7.5 10.169 7.26295 10.591 6.84099C11.0129 6.41903 11.25 5.84674 11.25 5.25C11.25 4.65326 11.0129 4.08097 10.591 3.65901C10.169 3.23705 9.59674 3 9 3ZM6.34835 2.59835C7.05161 1.89509 8.00544 1.5 9 1.5C9.99456 1.5 10.9484 1.89509 11.6517 2.59835C12.3549 3.30161 12.75 4.25544 12.75 5.25C12.75 6.24456 12.3549 7.19839 11.6517 7.90165C10.9484 8.60491 9.99456 9 9 9C8.00544 9 7.05161 8.60491 6.34835 7.90165C5.64509 7.19839 5.25 6.24456 5.25 5.25C5.25 4.25544 5.64509 3.30161 6.34835 2.59835ZM4.75736 11.5074C5.88258 10.3821 7.4087 9.75 9 9.75C10.5913 9.75 12.1174 10.3821 13.2426 11.5074C14.3679 12.6326 15 14.1587 15 15.75C15 16.1642 14.6642 16.5 14.25 16.5H3.75C3.55109 16.5 3.36032 16.421 3.21967 16.2803C3.07902 16.1397 3 15.9489 3 15.75C3 14.1587 3.63214 12.6326 4.75736 11.5074ZM9 11.25C7.80653 11.25 6.66193 11.7241 5.81802 12.568C5.153 13.233 4.71762 14.0848 4.56292 15H13.4371C13.2824 14.0848 12.847 13.233 12.182 12.568C11.3381 11.7241 10.1935 11.25 9 11.25Z" fill="#102A43"/>
</svg>
