<svg width="20" height="20" viewBox="0 0 20 20" fill="none" xmlns="http://www.w3.org/2000/svg">
<path fill-rule="evenodd" clip-rule="evenodd" d="M10.0001 3.33341C8.23197 3.33341 6.53628 4.03579 5.28604 5.28604C4.03579 6.53628 3.33341 8.23197 3.33341 10.0001C3.33341 10.8756 3.50585 11.7425 3.84088 12.5513C4.17592 13.3601 4.66698 14.0951 5.28604 14.7141C5.90509 15.3332 6.64002 15.8242 7.44886 16.1593C8.2577 16.4943 9.1246 16.6667 10.0001 16.6667C10.8756 16.6667 11.7425 16.4943 12.5513 16.1593C13.3601 15.8242 14.0951 15.3332 14.7141 14.7141C15.3332 14.0951 15.8242 13.3601 16.1593 12.5513C16.4943 11.7425 16.6667 10.8756 16.6667 10.0001C16.6667 8.23197 15.9644 6.53628 14.7141 5.28604C13.4639 4.03579 11.7682 3.33341 10.0001 3.33341ZM4.10752 4.10752C5.67033 2.54472 7.78994 1.66675 10.0001 1.66675C12.2102 1.66675 14.3298 2.54472 15.8926 4.10752C17.4554 5.67033 18.3334 7.78994 18.3334 10.0001C18.3334 11.0944 18.1179 12.1781 17.6991 13.1891C17.2803 14.2002 16.6665 15.1188 15.8926 15.8926C15.1188 16.6665 14.2002 17.2803 13.1891 17.6991C12.1781 18.1179 11.0944 18.3334 10.0001 18.3334C8.90573 18.3334 7.8221 18.1179 6.81105 17.6991C5.80001 17.2803 4.88135 16.6665 4.10752 15.8926C3.3337 15.1188 2.71987 14.2002 2.30109 13.1891C1.8823 12.1781 1.66675 11.0944 1.66675 10.0001C1.66675 7.78994 2.54472 5.67033 4.10752 4.10752ZM10.0001 6.66675C10.4603 6.66675 10.8334 7.03984 10.8334 7.50008V9.16675H12.5001C12.9603 9.16675 13.3334 9.53984 13.3334 10.0001C13.3334 10.4603 12.9603 10.8334 12.5001 10.8334H10.8334V12.5001C10.8334 12.9603 10.4603 13.3334 10.0001 13.3334C9.53984 13.3334 9.16675 12.9603 9.16675 12.5001V10.8334H7.50008C7.03984 10.8334 6.66675 10.4603 6.66675 10.0001C6.66675 9.53984 7.03984 9.16675 7.50008 9.16675H9.16675V7.50008C9.16675 7.03984 9.53984 6.66675 10.0001 6.66675Z" fill="#007BFF"/>
</svg>
