<svg width="24" height="24" viewBox="0 0 24 24" fill="none" xmlns="http://www.w3.org/2000/svg">
<path d="M18.172 7.00005L15.636 9.53605L17.05 10.95L22 6.00005L17.05 1.05005L15.636 2.46405L18.172 5.00005H11C8.87827 5.00005 6.84344 5.8429 5.34315 7.34319C3.84285 8.84349 3 10.8783 3 13C3 15.1218 3.84285 17.1566 5.34315 18.6569C6.84344 20.1572 8.87827 21 11 21H20V19H11C9.4087 19 7.88258 18.3679 6.75736 17.2427C5.63214 16.1175 5 14.5913 5 13C5 11.4087 5.63214 9.88263 6.75736 8.75741C7.88258 7.63219 9.4087 7.00005 11 7.00005H18.172Z" fill="#486581"/>
</svg>
