<svg width="24" height="56" viewBox="0 0 24 56" fill="none" xmlns="http://www.w3.org/2000/svg">
<path d="M5.74703 0.141159C5.74703 0.141159 5.47579 0.158659 5.01711 0.743859C4.53341 1.50756 4.40619 1.96606 3.51491 3.21363C2.62364 4.46121 1.63069 6.95706 1.01976 9.04463C0.408837 11.1322 -0.202438 14.2647 0.102937 16.5817C0.408312 18.8987 0.637737 20.8342 0.688662 21.7253C0.739587 22.6164 0.663111 28.7778 1.01959 31.1977C1.37606 33.6176 1.50329 35.9337 1.50329 35.9337C1.50329 35.9337 1.35051 40.1353 1.52884 40.9501C1.70716 41.7649 1.70716 42.5799 1.52884 42.8599C1.35051 43.1399 1.29959 44.7441 1.07034 45.5082C0.841087 46.2722 0.637561 47.112 0.561086 48.9207C0.484611 50.7293 0.96866 53.8095 0.96866 53.8095C0.96866 53.8095 4.83896 55.9485 9.52424 55.9992C14.2095 56.05 20.0407 54.5735 20.0407 54.5735C20.0407 54.5735 23.0451 53.3762 23.0451 51.9749C23.0451 50.5737 22.3321 46.5513 22.4851 45.5836C22.638 44.6158 22.8927 42.9862 22.9436 39.7526C22.9945 36.5189 22.4088 30.3567 22.256 28.1415C22.1032 25.9264 21.4412 19.7387 21.492 18.0326C21.5427 16.3266 21.6703 16.4538 20.932 14.6712C20.1936 12.8887 16.6032 6.44623 16.3995 5.73398C16.3989 5.46244 16.3192 5.19695 16.1702 4.96993C16.1702 4.96993 13.8788 3.44218 12.6819 2.80571C11.4851 2.16923 9.95736 0.590384 8.76071 0.233209C7.77878 -0.0433641 6.74401 -0.0749703 5.74703 0.141159Z" fill="url(#paint0_linear)"/>
<path d="M5.75754 0.141189C5.75754 0.141189 5.48611 0.158689 5.02761 0.743889C4.54391 1.50759 4.41668 1.96609 3.52541 3.21366C2.63413 4.46124 1.64118 6.95709 1.03026 9.04467C0.419335 11.1322 -0.19194 14.2647 0.113435 16.5817C0.41881 18.8987 0.648235 20.8342 0.69916 21.7253C0.750085 22.6164 0.673611 28.7778 1.03009 31.1977C1.38656 33.6176 1.51378 35.9338 1.51378 35.9338C1.51378 35.9338 1.36101 40.1353 1.53933 40.9501C1.71766 41.7649 1.71766 42.5799 1.53933 42.8599C1.36101 43.1399 1.31009 44.7441 1.08084 45.5082C0.851585 46.2722 0.648059 47.1121 0.571584 48.9207C0.495109 50.7293 0.979161 53.8095 0.979161 53.8095C0.979161 53.8095 4.84928 55.9475 9.53526 55.9987C14.2212 56.05 20.0517 54.573 20.0517 54.573C20.0517 54.573 23.0563 53.3762 23.0563 51.9757C23.0563 50.5751 22.3433 46.5521 22.4963 45.5843C22.6492 44.6166 22.9039 42.987 22.9548 39.7533C23.0057 36.5197 22.42 30.3574 22.2672 28.1422C22.1144 25.9271 21.4521 19.7394 21.5032 18.0334C21.5543 16.3273 21.6815 16.4545 20.9432 14.672C20.2048 12.8894 16.6147 6.44696 16.4107 5.73471C16.4101 5.46317 16.3304 5.19768 16.1814 4.97066C16.1814 4.97066 13.89 3.44291 12.6931 2.80644C11.4963 2.16996 9.96821 0.591114 8.77156 0.233939C7.78959 -0.0429878 6.75468 -0.0748346 5.75754 0.141189Z" fill="url(#paint1_linear)"/>
<path d="M5.74703 0.141159C5.74703 0.141159 5.47579 0.158659 5.01711 0.743859C4.53341 1.50756 4.40619 1.96606 3.51491 3.21363C2.62364 4.46121 1.63069 6.95706 1.01976 9.04463C0.408837 11.1322 -0.202438 14.2647 0.102937 16.5817C0.408312 18.8987 0.637737 20.8342 0.688662 21.7253C0.739587 22.6164 0.663111 28.7778 1.01959 31.1977C1.37606 33.6176 1.50329 35.9337 1.50329 35.9337C1.50329 35.9337 1.35051 40.1353 1.52884 40.9501C1.70716 41.7649 1.70716 42.5799 1.52884 42.8599C1.35051 43.1399 1.29959 44.7441 1.07034 45.5082C0.841087 46.2722 0.637561 47.112 0.561086 48.9207C0.484611 50.7293 0.96866 53.8095 0.96866 53.8095C0.96866 53.8095 4.83896 55.9485 9.52424 55.9992C14.2095 56.05 20.0407 54.5735 20.0407 54.5735C20.0407 54.5735 23.0451 53.3762 23.0451 51.9749C23.0451 50.5737 22.3321 46.5513 22.4851 45.5836C22.638 44.6158 22.8927 42.9862 22.9436 39.7526C22.9945 36.5189 22.4088 30.3567 22.256 28.1415C22.1032 25.9264 21.4412 19.7387 21.492 18.0326C21.5427 16.3266 21.6703 16.4538 20.932 14.6712C20.1936 12.8887 16.6032 6.44623 16.3995 5.73398C16.3989 5.46244 16.3192 5.19695 16.1702 4.96993C16.1702 4.96993 13.8788 3.44218 12.6819 2.80571C11.4851 2.16923 9.95736 0.590384 8.76071 0.233209C7.77878 -0.0433641 6.74401 -0.0749703 5.74703 0.141159Z" fill="url(#paint2_linear)"/>
<path opacity="0.5" d="M5.72549 0.141158C5.72549 0.141158 5.45372 0.158658 4.99557 0.743858C4.51187 1.50756 4.38464 1.96606 3.49337 3.21363C2.60209 4.46121 1.60914 6.95706 0.998216 9.04463C0.387291 11.1322 -0.223983 14.2647 0.0813916 16.5817C0.386767 18.8987 0.616192 20.8342 0.666767 21.7253C0.717342 22.6164 0.641568 28.7778 0.998043 31.1977C1.35452 33.6176 1.48174 35.9337 1.48174 35.9337C1.48174 35.9337 1.32897 40.1353 1.50729 40.9501C1.68562 41.7649 1.68527 42.5799 1.50729 42.8599C1.32932 43.1399 1.27804 44.7441 1.04879 45.5081C0.819542 46.2722 0.616019 47.112 0.539544 48.9206C0.463069 50.7293 0.947118 53.8094 0.947118 53.8094C0.947118 53.8094 4.81742 55.9485 9.50269 55.9992C14.188 56.05 20.0191 54.5735 20.0191 54.5735C20.0191 54.5735 23.0235 53.3761 23.0235 51.9749C23.0235 50.5737 22.3106 46.5513 22.4635 45.5836C22.6165 44.6158 22.8711 42.9862 22.922 39.7526C22.973 36.5189 22.3872 30.3566 22.2345 28.1415C22.0817 25.9263 21.4193 19.7387 21.4704 18.0326C21.5215 16.3266 21.6487 16.4538 20.9104 14.6712C20.1721 12.8887 16.582 6.44623 16.3779 5.73398C16.3773 5.46244 16.2977 5.19694 16.1487 4.96993C16.1487 4.96993 13.8562 3.44218 12.66 2.80571C11.4639 2.16923 9.93546 0.590383 8.73882 0.233208C7.757 -0.0433637 6.72235 -0.07497 5.72549 0.141158Z" fill="url(#paint3_linear)"/>
<path style="mix-blend-mode:multiply" d="M1.76402 14.8008C1.57911 15.9029 1.51457 17.0219 1.57152 18.138C1.64834 20.1505 2.69152 22.2155 2.80667 23.4174C2.92182 24.6193 3.11537 25.5946 3.11537 25.5946C4.48231 25.5729 5.84921 25.6402 7.2074 25.7962C9.25332 26.0496 13.4995 26.372 13.6925 25.683C13.8856 24.994 13.538 24.4076 13.5 24.3005C13.4621 24.1934 14.5038 18.0759 14.774 16.9892C14.9501 16.2215 15.0662 15.4414 15.1212 14.6557C15.1212 14.6557 9.05994 10.0343 6.01004 9.62307C2.96014 9.21182 4.19599 14.0156 1.76402 14.8008Z" fill="url(#paint4_linear)"/>
<path d="M4.25336 24.4329C4.23465 24.4607 4.22281 24.4926 4.2188 24.5259C4.2148 24.5592 4.21875 24.593 4.23033 24.6245C4.2419 24.656 4.26078 24.6843 4.28541 24.7071C4.31004 24.7299 4.33971 24.7465 4.37201 24.7556C4.62681 24.8742 6.81658 24.5008 8.71778 24.3991C10.619 24.2974 14.252 24.9083 14.1671 23.9066C14.0822 22.9049 10.7896 22.2599 9.07461 22.3957C7.35961 22.5315 4.67791 22.6333 4.25336 24.4329Z" fill="url(#paint5_linear)"/>
<path d="M4.12722 23.9944L4.25987 24.5927C4.25987 24.5927 5.27189 23.4313 6.67242 23.1768C8.07294 22.9224 11.2557 22.9731 12.1469 23.1257C13.0382 23.2783 14.235 23.9405 14.235 23.9405C14.3305 23.5646 14.3305 23.1707 14.235 22.7948C14.0819 22.1072 14.0567 22.0055 14.0567 22.0055C14.0567 22.0055 14.1075 19.8665 14.2095 18.7717C14.268 18.0901 14.225 17.4037 14.0819 16.7347C14.7161 15.8201 15.0701 14.7406 15.1008 13.6281C15.1515 11.7689 14.0567 7.79711 13.4208 6.72751C12.7848 5.65791 9.62712 4.10461 8.1244 4.30849C6.62168 4.51236 4.3304 7.28786 3.43947 8.71359C2.54855 10.1393 1.63137 11.8967 1.78415 13.8827C1.93692 15.8688 3.13357 16.3784 3.13357 17.2952C3.13357 18.2121 3.59242 22.4922 4.12722 23.9944Z" fill="url(#paint6_linear)"/>
<path d="M4.14157 24.0796L4.24902 24.5957C4.24902 24.5957 5.27189 23.4313 6.67242 23.1768C8.07294 22.9224 11.2557 22.9731 12.1469 23.1257C13.0382 23.2783 14.235 23.9405 14.235 23.9405C14.3305 23.5646 14.3305 23.1707 14.235 22.7948C14.0819 22.1072 14.0567 22.0055 14.0567 22.0055C14.0567 22.0055 14.1075 19.8665 14.2095 18.7717C14.268 18.0901 14.225 17.4037 14.0819 16.7347C14.7161 15.8201 15.0701 14.7406 15.1008 13.6281C15.1515 11.7689 14.0567 7.79711 13.4208 6.72751C12.7848 5.65791 9.62712 4.10461 8.1244 4.30849C6.62168 4.51236 4.3304 7.28786 3.43947 8.71359C2.54855 10.1393 1.63137 11.8967 1.78415 13.8827C1.93692 15.8688 3.13357 16.3784 3.13357 17.2952C3.13357 18.2121 3.60677 22.5769 4.14157 24.0796Z" fill="url(#paint7_linear)"/>
<path opacity="0.8" d="M4.06371 24.1008L4.25498 24.6032C4.25498 24.6032 5.27208 23.4307 6.67261 23.1768C8.07313 22.9229 11.2559 22.9731 12.1471 23.1257C13.0384 23.2783 14.2352 23.9405 14.2352 23.9405C14.3307 23.5646 14.3307 23.1707 14.2352 22.7948C14.0821 22.1072 14.0569 22.0055 14.0569 22.0055C14.0569 22.0055 14.1077 19.8665 14.2097 18.7717C14.2682 18.0901 14.2252 17.4037 14.0821 16.7347C14.7162 15.8201 15.0703 14.7406 15.101 13.6281C15.1517 11.7689 14.0569 7.79711 13.421 6.72751C12.785 5.65791 9.6273 4.10461 8.12458 4.30849C6.62185 4.51236 4.33058 7.28786 3.43966 8.71359C2.54873 10.1393 1.63156 11.8967 1.78433 13.8827C1.93711 15.8688 3.13376 16.3784 3.13376 17.2952C3.13376 18.2121 3.52891 22.5983 4.06371 24.1008Z" fill="url(#paint8_linear)"/>
<path opacity="0.7" d="M0.891998 22.4126C0.891998 22.4126 1.50327 26.2832 3.132 28.4219C4.76072 30.5606 5.9845 34.5333 5.4749 37.5888C4.9653 40.6443 2.01182 39.3202 1.91015 37.0795C1.80847 34.8388 1.29887 31.749 1.095 30.0176C0.891121 28.2861 0.891998 22.4126 0.891998 22.4126Z" fill="url(#paint9_linear)"/>
<path opacity="0.4" d="M1.63924 39.7957C1.63924 39.7957 2.35219 42.0026 2.79424 42.5458C3.23629 43.089 5.27259 44.3115 4.79712 45.8393C4.32165 47.367 2.14919 49.3361 1.30027 47.6047C0.451344 45.8732 2.14919 43.4966 1.97909 42.6139C1.80899 41.7312 1.23167 40.0674 1.63924 39.7957Z" fill="url(#paint10_linear)"/>
<path opacity="0.3" d="M20.0401 20.0701C20.0401 20.0701 19.9381 28.6256 16.7807 34.1257C13.6234 39.6258 12.6047 38.9129 12.6047 38.9129C12.6047 38.9129 11.2807 35.0426 14.0308 32.0887C16.7809 29.1349 18.4109 29.3388 20.0401 20.0701Z" fill="url(#paint11_linear)"/>
<path opacity="0.3" d="M20.4472 22.2097C20.4472 22.2097 20.7531 43.2932 17.4937 43.7008C14.2343 44.1083 13.2159 39.9321 13.2159 39.9321C13.2159 39.9321 18.5129 37.9965 20.4472 22.2097Z" fill="url(#paint12_linear)"/>
<path opacity="0.4" d="M13.3861 18.5087C13.3861 18.5087 15.0156 18.169 15.8986 16.8789C16.4469 16.0725 16.9457 15.2334 17.3922 14.3665C17.3922 14.3665 17.3243 17.1507 16.3058 18.7801C15.2873 20.4096 13.4533 20.6813 13.4533 20.6813L13.3861 18.5087Z" fill="url(#paint13_linear)"/>
<g style="mix-blend-mode:multiply" opacity="0.5">
<path d="M8.1909 0.174805C8.1909 0.174805 7.88535 0.922055 8.08923 1.5671C8.2931 2.21215 8.70015 2.28005 8.93815 4.65638" stroke="#707070" stroke-width="0.567" stroke-miterlimit="10"/>
</g>
<path d="M1.87671 14.4344C1.87671 14.4344 1.06192 12.0239 3.37069 8.86638C5.67946 5.70885 7.00334 5.19995 7.00334 5.19995" stroke="#707070" stroke-width="0.567" stroke-miterlimit="10"/>
<path d="M2.80176 10.6233C2.80176 10.6233 2.01251 12.0494 2.39453 13.1958C2.77655 14.3422 5.34801 13.1958 5.42448 13.2975C5.50096 13.3991 2.75101 13.9854 2.69991 14.5452C2.64881 15.105 6.46853 16.073 6.69778 16.7098C6.92703 17.3466 3.51471 15.2837 3.18361 15.5637C2.85251 15.8437 5.39893 16.9131 6.08633 17.6774C6.77373 18.4416 3.33621 16.0224 3.36176 16.4296C3.38731 16.8368 3.61656 18.0338 4.15101 18.6959C4.68546 19.3579 4.10026 20.4529 4.20211 21.3186C4.30396 22.1843 4.68581 23.7884 4.68581 23.7884L4.21716 24.5988C4.21716 24.5988 3.62916 22.0823 3.45101 20.4784C3.27286 18.8745 3.23471 16.837 3.04343 16.5059C2.85216 16.1748 1.91066 15.4489 1.83401 14.2526C1.75736 13.0563 2.07621 11.4003 2.80176 10.6233Z" fill="url(#paint14_linear)"/>
<g style="mix-blend-mode:multiply" opacity="0.5">
<path d="M4.20227 23.355C4.20227 23.355 4.73707 22.1073 7.76702 21.9034C10.797 21.6995 13.8274 22.6419 13.8274 22.6419" stroke="#707070" stroke-width="0.567" stroke-miterlimit="10"/>
</g>
<g style="mix-blend-mode:multiply" opacity="0.5">
<path d="M1.35068 52.9175C1.35068 52.9175 5.47578 54.8017 8.88775 54.8017C12.2997 54.8017 19.6328 53.274 19.6328 53.274C19.6328 53.274 22.2301 52.5103 22.7393 51.4407" stroke="#707070" stroke-width="0.567" stroke-miterlimit="10"/>
</g>
<path d="M5.30563 0.701666C5.30563 0.701666 7.07138 0.27729 8.24248 0.599641C9.41358 0.921991 10.8229 2.12739 11.5698 2.53497C12.3167 2.94254 15.6779 4.91164 16.2379 5.62459" stroke="#707070" stroke-width="0.567" stroke-miterlimit="10"/>
<path opacity="0.1" d="M3.23822 10.2715C3.23822 10.2715 4.81672 6.60468 6.62482 5.866C8.43292 5.12733 11.7429 5.586 12.5066 6.706C13.2703 7.826 13.9582 9.50705 13.4999 10.3219C13.0415 11.1367 10.4696 7.64838 8.43257 8.33595C6.39557 9.02353 4.63857 11.1885 4.00209 11.1885C3.36562 11.1885 4.99487 10.2452 3.23822 10.2715Z" fill="url(#paint15_linear)"/>
<path opacity="0.1" d="M13.5727 21.98C14.5274 21.6278 15.4342 21.1575 16.2721 20.58C17.5706 19.6632 18.1818 18.161 18.7418 18.263C19.3018 18.365 18.4874 25.3155 16.7559 27.8623C15.0245 30.409 11.9938 32.9037 10.9501 30.1282C9.90644 27.3527 10.6953 25.4177 8.96371 24.5264C7.23208 23.6351 9.19384 21.7507 13.5727 21.98Z" fill="url(#paint16_linear)"/>
<path opacity="0.2" d="M16.1955 5.83624C16.3739 6.09104 17.9525 8.58636 17.6472 8.94284C17.3418 9.29931 15.7885 8.25526 15.0243 7.77156C14.26 7.28786 13.14 5.22531 11.3318 4.71606C9.52349 4.20681 9.54921 1.40576 9.54921 1.40576L16.1955 5.83624Z" fill="url(#paint17_linear)"/>
<g style="mix-blend-mode:multiply" opacity="0.5">
<path d="M2.77638 15.8687C2.77638 15.8687 2.26713 15.1561 2.11435 13.7555C1.96158 12.355 2.95435 9.7321 4.07435 8.51025" stroke="#707070" stroke-width="0.567" stroke-miterlimit="10"/>
</g>
<g style="mix-blend-mode:multiply" opacity="0.5">
<path d="M14.4385 16.1322C14.8078 15.1586 14.9473 14.113 14.8461 13.0767C14.6592 11.4299 13.8785 8.61206 13.8785 8.61206" stroke="#707070" stroke-width="0.567" stroke-miterlimit="10"/>
</g>
<path d="M4.78821 7.7972C4.78821 7.7972 5.70468 6.1172 7.07966 5.7847C8.45463 5.4522 11.0264 5.35192 12.1722 6.16672C12.834 6.61203 13.3131 7.281 13.5216 8.05094" stroke="#707070" stroke-width="0.567" stroke-miterlimit="10"/>
<path opacity="0.2" d="M4.89354 40.8836C5.48854 40.3071 6.85652 42.3093 8.46914 42.5471C10.0818 42.7849 13.2598 40.8496 13.4701 41.5286C13.6805 42.2076 11.9513 44.7537 12.3485 46.6211C12.7458 48.4885 14.966 50.22 15.1996 51.9175C15.4333 53.615 14.8708 54.573 14.8708 54.573C14.8708 54.573 12.372 53.6148 10.1054 53.5811C7.83879 53.5473 6.03927 54.8372 4.28647 53.5132C2.53367 52.1891 4.00647 50.6957 4.54337 48.2168C5.08027 45.7379 5.66494 44.2793 4.94044 43.2938C4.21594 42.3084 4.33284 41.4266 4.89354 40.8836Z" fill="url(#paint18_linear)"/>
<defs>
<linearGradient id="paint0_linear" x1="0.021759" y1="28" x2="23.0451" y2="28" gradientUnits="userSpaceOnUse">
<stop stop-color="#B8C2CC"/>
<stop offset="0.077" stop-color="#C7CFD7"/>
<stop offset="0.187" stop-color="#D6DCE1"/>
<stop offset="0.317" stop-color="#DFE3E8"/>
<stop offset="0.514" stop-color="#E2E6EA"/>
<stop offset="0.774" stop-color="#E0E4E8"/>
<stop offset="0.868" stop-color="#D9DEE3"/>
<stop offset="0.934" stop-color="#CDD4DB"/>
<stop offset="0.988" stop-color="#BCC6CF"/>
<stop offset="1" stop-color="#B8C2CC"/>
</linearGradient>
<linearGradient id="paint1_linear" x1="11.5443" y1="56" x2="11.5443" y2="-0.000244141" gradientUnits="userSpaceOnUse">
<stop stop-color="white" stop-opacity="0"/>
<stop offset="0.347" stop-color="white" stop-opacity="0.365"/>
<stop offset="0.799" stop-color="white" stop-opacity="0.82"/>
<stop offset="1" stop-color="white"/>
</linearGradient>
<linearGradient id="paint2_linear" x1="11.5334" y1="56.0005" x2="11.5334" y2="-0.000488281" gradientUnits="userSpaceOnUse">
<stop stop-color="white" stop-opacity="0"/>
<stop offset="0.347" stop-color="white" stop-opacity="0.365"/>
<stop offset="0.799" stop-color="white" stop-opacity="0.82"/>
<stop offset="1" stop-color="white"/>
</linearGradient>
<linearGradient id="paint3_linear" x1="11.5119" y1="56.0005" x2="11.5119" y2="-0.000488281" gradientUnits="userSpaceOnUse">
<stop stop-color="#B8C2CC"/>
<stop offset="0.016" stop-color="#B9C3CD" stop-opacity="0.953"/>
<stop offset="0.103" stop-color="#C3CBD4" stop-opacity="0.733"/>
<stop offset="0.197" stop-color="#CBD2D9" stop-opacity="0.533"/>
<stop offset="0.294" stop-color="#D2D8DE" stop-opacity="0.369"/>
<stop offset="0.398" stop-color="#D8DDE2" stop-opacity="0.235"/>
<stop offset="0.51" stop-color="#DCE1E6" stop-opacity="0.129"/>
<stop offset="0.634" stop-color="#DFE3E8" stop-opacity="0.055"/>
<stop offset="0.78" stop-color="#E1E5E9" stop-opacity="0.012"/>
<stop offset="1" stop-color="#E2E6EA" stop-opacity="0"/>
</linearGradient>
<linearGradient id="paint4_linear" x1="4.44184" y1="-1.98418" x2="-1.50334" y2="11.9012" gradientUnits="userSpaceOnUse">
<stop stop-color="#C3CFDA"/>
<stop offset="1" stop-color="#C3CFDA" stop-opacity="0"/>
</linearGradient>
<linearGradient id="paint5_linear" x1="4.21729" y1="23.5781" x2="14.1686" y2="23.5781" gradientUnits="userSpaceOnUse">
<stop stop-color="#B0BCC7"/>
<stop offset="0.179" stop-color="#D3DAE0"/>
<stop offset="0.587" stop-color="#D8DEE4"/>
<stop offset="0.86" stop-color="#CAD3DA"/>
<stop offset="1" stop-color="#B0BCC7"/>
</linearGradient>
<linearGradient id="paint6_linear" x1="1.76736" y1="14.4415" x2="15.1025" y2="14.4415" gradientUnits="userSpaceOnUse">
<stop stop-color="#C4C9CF"/>
<stop offset="0.073" stop-color="#D2D5D9"/>
<stop offset="0.184" stop-color="#E1E2E4"/>
<stop offset="0.316" stop-color="#EAEAEB"/>
<stop offset="0.514" stop-color="#EDEDED"/>
<stop offset="0.776" stop-color="#EBEBEB"/>
<stop offset="0.87" stop-color="#E4E5E6"/>
<stop offset="0.937" stop-color="#D8DBDE"/>
<stop offset="0.99" stop-color="#C7CCD1"/>
<stop offset="1" stop-color="#C4C9CF"/>
</linearGradient>
<linearGradient id="paint7_linear" x1="8.43492" y1="24.5957" x2="8.43492" y2="4.29028" gradientUnits="userSpaceOnUse">
<stop stop-color="#B8C2CC"/>
<stop offset="0.016" stop-color="#B9C3CD" stop-opacity="0.953"/>
<stop offset="0.103" stop-color="#C3CBD4" stop-opacity="0.733"/>
<stop offset="0.197" stop-color="#CBD2D9" stop-opacity="0.533"/>
<stop offset="0.294" stop-color="#D2D8DE" stop-opacity="0.369"/>
<stop offset="0.398" stop-color="#D8DDE2" stop-opacity="0.235"/>
<stop offset="0.51" stop-color="#DCE1E6" stop-opacity="0.129"/>
<stop offset="0.634" stop-color="#DFE3E8" stop-opacity="0.055"/>
<stop offset="0.78" stop-color="#E1E5E9" stop-opacity="0.012"/>
<stop offset="1" stop-color="#E2E6EA" stop-opacity="0"/>
</linearGradient>
<linearGradient id="paint8_linear" x1="8.4351" y1="24.6032" x2="8.4351" y2="4.29028" gradientUnits="userSpaceOnUse">
<stop stop-color="white" stop-opacity="0"/>
<stop offset="0.347" stop-color="white" stop-opacity="0.365"/>
<stop offset="0.799" stop-color="white" stop-opacity="0.82"/>
<stop offset="1" stop-color="white"/>
</linearGradient>
<linearGradient id="paint9_linear" x1="4.27121" y1="28.7236" x2="0.0804614" y2="29.1835" gradientUnits="userSpaceOnUse">
<stop stop-color="#AEBECD"/>
<stop offset="1" stop-color="#C3CFDA" stop-opacity="0"/>
</linearGradient>
<linearGradient id="paint10_linear" x1="3.16668" y1="43.0111" x2="0.560444" y2="43.7619" gradientUnits="userSpaceOnUse">
<stop stop-color="#AEBECD"/>
<stop offset="1" stop-color="#C3CFDA" stop-opacity="0"/>
</linearGradient>
<linearGradient id="paint11_linear" x1="20.0091" y1="29.4122" x2="17.3957" y2="29.4249" gradientUnits="userSpaceOnUse">
<stop stop-color="#AEBECD"/>
<stop offset="1" stop-color="#C3CFDA" stop-opacity="0"/>
</linearGradient>
<linearGradient id="paint12_linear" x1="20.1001" y1="32.9262" x2="17.4866" y2="32.9359" gradientUnits="userSpaceOnUse">
<stop stop-color="#AEBECD"/>
<stop offset="1" stop-color="#C3CFDA" stop-opacity="0"/>
</linearGradient>
<linearGradient id="paint13_linear" x1="18.5019" y1="18.3575" x2="13.5132" y2="17.8145" gradientUnits="userSpaceOnUse">
<stop stop-color="#AEBECD"/>
<stop offset="1" stop-color="#C3CFDA" stop-opacity="0"/>
</linearGradient>
<linearGradient id="paint14_linear" x1="1.82288" y1="17.611" x2="6.70882" y2="17.611" gradientUnits="userSpaceOnUse">
<stop stop-color="#AEBECD"/>
<stop offset="1" stop-color="#C3CFDA" stop-opacity="0"/>
</linearGradient>
<linearGradient id="paint15_linear" x1="8.44279" y1="11.1885" x2="8.44279" y2="5.50659" gradientUnits="userSpaceOnUse">
<stop stop-color="#C3CFDA" stop-opacity="0"/>
<stop offset="1" stop-color="#AEBECD"/>
</linearGradient>
<linearGradient id="paint16_linear" x1="18.1976" y1="24.7363" x2="14.5577" y2="24.7962" gradientUnits="userSpaceOnUse">
<stop stop-color="#AEBECD"/>
<stop offset="1" stop-color="#C3CFDA" stop-opacity="0"/>
</linearGradient>
<linearGradient id="paint17_linear" x1="16.6691" y1="3.84852" x2="11.4797" y2="6.42786" gradientUnits="userSpaceOnUse">
<stop stop-color="#AEBECD"/>
<stop offset="1" stop-color="#C3CFDA" stop-opacity="0"/>
</linearGradient>
<linearGradient id="paint18_linear" x1="11.1961" y1="42.9039" x2="6.39551" y2="55.0553" gradientUnits="userSpaceOnUse">
<stop stop-color="#AEBECD"/>
<stop offset="1" stop-color="#C3CFDA" stop-opacity="0"/>
</linearGradient>
</defs>
</svg>
