<svg width="16" height="16" viewBox="0 0 16 16" fill="none" xmlns="http://www.w3.org/2000/svg">
<path fill-rule="evenodd" clip-rule="evenodd" d="M6.66665 2.66671C5.60578 2.66671 4.58836 3.08813 3.83822 3.83828C3.08807 4.58843 2.66665 5.60584 2.66665 6.66671C2.66665 7.192 2.77011 7.71214 2.97113 8.19744C3.17215 8.68274 3.46678 9.1237 3.83822 9.49513C4.20965 9.86657 4.65061 10.1612 5.13591 10.3622C5.62121 10.5632 6.14136 10.6667 6.66665 10.6667C7.19193 10.6667 7.71208 10.5632 8.19738 10.3622C8.68268 10.1612 9.12364 9.86657 9.49507 9.49513C9.86651 9.1237 10.1611 8.68274 10.3622 8.19744C10.5632 7.71214 10.6666 7.192 10.6666 6.66671C10.6666 5.60584 10.2452 4.58843 9.49507 3.83828C8.74493 3.08813 7.72751 2.66671 6.66665 2.66671ZM2.89541 2.89547C3.8956 1.89528 5.25216 1.33337 6.66665 1.33337C8.08113 1.33337 9.43769 1.89528 10.4379 2.89547C11.4381 3.89567 12 5.25222 12 6.66671C12 7.36709 11.862 8.06062 11.594 8.70769C11.4115 9.14841 11.171 9.5617 10.8797 9.93696L14.4714 13.5286C14.7317 13.789 14.7317 14.2111 14.4714 14.4714C14.211 14.7318 13.7889 14.7318 13.5286 14.4714L9.9369 10.8798C9.56164 11.1711 9.14835 11.4115 8.70763 11.5941C8.06055 11.8621 7.36703 12 6.66665 12C5.96626 12 5.27274 11.8621 4.62567 11.5941C3.9786 11.326 3.39066 10.9332 2.89541 10.4379C2.40016 9.9427 2.00731 9.35476 1.73929 8.70769C1.47126 8.06062 1.33331 7.36709 1.33331 6.66671C1.33331 5.25222 1.89522 3.89567 2.89541 2.89547Z" fill="#829AB1"/>
</svg>
