<svg width="52" height="56" viewBox="0 0 52 56" fill="none" xmlns="http://www.w3.org/2000/svg">
<path d="M51.915 19.83C51.9563 19.9154 51.97 20.0116 51.954 20.1052C51.9381 20.1987 51.8933 20.285 51.8261 20.3519C51.5027 20.684 51.1514 20.9878 50.7761 21.2598C50.2549 21.6028 48.4851 22.5493 48.0597 22.7964C47.6343 23.0435 45.1789 24.2916 44.7809 24.429C44.2413 24.6075 43.6852 24.7316 43.1209 24.7995C42.5722 24.8541 41.9825 24.6346 41.9825 24.5797C41.9825 24.5247 40.7204 22.1929 40.638 21.5615C40.5223 20.9604 40.3616 20.369 40.1572 19.792C40.1572 19.792 40.1165 20.107 40.0619 20.6145C40.0073 21.122 40.0344 21.8495 40.0069 22.1237C39.9794 22.398 39.4716 31.905 39.4854 32.2755C39.4992 32.646 39.3484 33.7707 39.3484 33.7707C39.3484 33.7707 39.554 40.0814 39.4991 40.3419C39.4441 40.6025 39.4716 40.6569 39.5127 41.0141C39.5538 41.3713 39.6912 44.2929 39.7325 44.7456C39.7738 45.1984 40.103 49.3413 40.1987 50.4935C40.2944 51.6457 40.1576 52.7433 40.2811 53.388C40.4047 54.0327 40.4322 54.5406 40.1438 54.76C39.8554 54.9795 38.333 55.2675 37.5923 55.309C36.8515 55.3505 34.5333 55.4871 34.1078 55.5015C33.6824 55.5159 32.1048 55.7346 31.5836 55.7071C31.0625 55.6796 23.0232 55.7208 21.5689 55.8307C20.1147 55.9406 16.7263 55.9677 15.5326 55.7621C14.339 55.5564 12.1994 55.0211 12.1994 54.7194C12.1994 54.4177 12.3776 50.9608 12.3776 49.3557C12.3776 47.7506 12.7626 44.3207 12.7755 43.0863C12.7885 41.8518 13.1185 36.5838 13.1185 35.9113C13.1185 35.2388 12.8718 32.6738 12.8441 30.7803C12.8165 28.8868 12.5561 21.1639 12.3912 20.8483C12.2264 20.5328 12.1306 20.5461 12.0062 20.9579C11.8818 21.3697 11.6912 22.1241 11.4165 22.4671C11.1417 22.8101 10.8675 23.2488 10.5248 23.7703C10.4176 24.0328 10.1244 24.4068 10.0719 24.5246C9.97149 24.7508 6.84809 23.8114 6.01194 23.4273C5.17579 23.0432 2.88399 22.1103 2.12922 21.6301C1.37444 21.1499 0.20859 20.2444 0.13999 19.9289C0.104204 19.8135 0.0858005 19.6934 0.0853882 19.5726L0.661492 18.6944C0.661492 18.6944 0.565415 18.763 0.702614 18.5163C0.769315 18.3842 0.862758 18.2674 0.977013 18.1733L1.12769 17.6518L5.06519 9.18757C5.06519 9.18757 5.70989 8.14492 5.88769 7.78862C5.99891 7.53283 6.09246 7.26971 6.16769 7.00112C6.30185 6.55604 6.55195 6.15464 6.89236 5.83807C7.30083 5.44786 7.75081 5.10356 8.23426 4.81135C9.19449 4.26237 12.0204 3.13765 14.2291 2.31427C16.4377 1.4909 19.9787 0.352521 19.9787 0.352521L20.9253 0.00952148C20.9253 0.00952148 22.0229 0.640571 22.8328 0.860371C23.6427 1.08017 25.2885 1.5189 26.5506 1.45012C27.8127 1.38135 29.4031 1.45012 31.0914 0.215497C31.2563 0.177961 31.4288 0.1922 31.5854 0.256272L32.5594 0.489722C32.5594 0.489722 32.9157 0.448596 33.0256 0.544671C33.0964 0.604953 33.1747 0.655618 33.2587 0.695346C33.2587 0.695346 39.2401 2.79447 40.2965 3.23285C41.353 3.67122 42.834 4.24785 43.4654 4.6871C44.0968 5.12635 45.9762 7.67785 46.4562 8.7205C46.8979 9.6809 51.0762 18.0903 51.915 19.83Z" fill="url(#paint0_linear)"/>
<path opacity="0.3" d="M51.8296 19.8299C51.8709 19.9153 51.8845 20.0115 51.8685 20.1051C51.8525 20.1986 51.8077 20.2849 51.7403 20.3517C51.4175 20.684 51.0666 20.9877 50.6916 21.2596C50.1701 21.6026 48.4006 22.5492 47.9752 22.7963C47.5498 23.0434 45.0944 24.2915 44.6964 24.4289C44.1568 24.6073 43.6008 24.7314 43.0365 24.7994C42.4879 24.854 41.8976 24.6345 41.8976 24.5796C41.8976 24.5246 40.6355 22.1927 40.5535 21.5613C40.4378 20.9603 40.2771 20.3688 40.0727 19.7919C40.0727 19.7919 40.032 20.1069 39.977 20.6144C39.9221 21.1219 39.9495 21.8494 39.9221 22.1236C39.8946 22.3978 39.3871 31.9049 39.4009 32.2754C39.4147 32.6458 39.2635 33.7706 39.2635 33.7706C39.2635 33.7706 39.4695 40.0812 39.4146 40.3418C39.3596 40.6024 39.3871 40.6568 39.4282 41.014C39.4693 41.3712 39.6064 44.2928 39.6477 44.7455C39.689 45.1982 40.0181 49.3412 40.1142 50.4934C40.2103 51.6456 40.0731 52.7432 40.1966 53.3879C40.3202 54.0326 40.3473 54.5404 40.0592 54.7599C39.7712 54.9793 38.2485 55.2674 37.5078 55.3089C36.767 55.3503 34.4484 55.487 34.023 55.5014C33.5976 55.5157 32.0205 55.7345 31.4988 55.707C30.9771 55.6795 22.9383 55.7206 21.4844 55.8305C20.0305 55.9404 16.6418 55.9676 15.4481 55.7619C14.2545 55.5563 12.1144 55.021 12.1144 54.7193C12.1144 54.4176 12.2929 50.9606 12.2929 49.3555C12.2929 47.7504 12.6779 44.3206 12.6908 43.0862C12.7038 41.8517 13.0338 36.5837 13.0338 35.9112C13.0338 35.2386 12.7866 32.6737 12.7591 30.7802C12.7316 28.8867 12.471 21.1637 12.3065 20.8482C12.142 20.5327 12.046 20.546 11.9215 20.9578C11.7971 21.3695 11.6065 22.124 11.3318 22.467C11.057 22.81 10.7825 23.2487 10.4393 23.7702C10.332 24.0327 10.0392 24.4067 9.98673 24.5244C9.88628 24.7507 6.76288 23.8113 5.92673 23.4272C5.09058 23.0431 2.79913 22.1101 2.04436 21.6299C1.28958 21.1497 0.123732 20.2443 0.0551323 19.9288C0.0191972 19.8134 0.000677477 19.6933 0.000183105 19.5725L0.576629 18.6943C0.576629 18.6943 0.480554 18.7629 0.617404 18.5162C0.684306 18.3841 0.777858 18.2673 0.892155 18.1732L1.04283 17.6517L4.98033 9.18744C4.98033 9.18744 5.62503 8.14478 5.80283 7.78848C5.91404 7.53269 6.0076 7.26957 6.08283 7.00098C6.21685 6.55584 6.46698 6.15441 6.80751 5.83793C7.21585 5.44772 7.66571 5.10343 8.14905 4.81121C9.10928 4.26223 11.9355 3.13751 14.1442 2.31413C16.3529 1.49076 19.8942 0.352383 19.8942 0.352383L20.8392 0.0090332C20.8392 0.0090332 21.9364 0.640083 22.7467 0.859883C23.5569 1.07968 25.2021 1.51841 26.4646 1.44963C27.727 1.38086 29.3171 1.44963 31.0053 0.215009C31.1701 0.177443 31.3425 0.191684 31.499 0.255784L32.473 0.489234C32.473 0.489234 32.8297 0.448108 32.9396 0.544183C33.0102 0.604553 33.0886 0.655226 33.1727 0.694858C33.1727 0.694858 39.154 2.79398 40.2105 3.23236C41.2669 3.67073 42.748 4.24736 43.3794 4.68661C44.0108 5.12586 45.8897 7.67736 46.3701 8.72001C46.8125 9.68076 50.9908 18.0902 51.8296 19.8299Z" fill="url(#paint1_linear)"/>
<path d="M51.8597 19.8009C51.9175 19.9203 51.9363 20.0549 51.9134 20.1856C51.8905 20.3162 51.8271 20.4364 51.7321 20.5291C51.4369 20.8271 51.1173 21.0999 50.7766 21.3447C50.2555 21.6877 48.4857 22.6343 48.0603 22.8811C47.6348 23.1278 45.1794 24.3763 44.7815 24.5136C44.2419 24.6923 43.6858 24.8164 43.1214 24.8841C42.5728 24.9391 41.983 24.7193 41.983 24.6647C41.983 24.6101 40.7209 22.2775 40.6385 21.6464C40.5841 21.3107 40.5064 20.9792 40.4058 20.6544C40.3776 20.5579 40.1625 19.9008 40.1625 19.9008C40.1625 19.9008 40.0736 20.5943 40.0638 20.6846L40.0624 20.6999C40.0075 21.2074 40.0349 21.9345 40.0075 22.2087C39.98 22.4829 39.4721 31.99 39.486 32.3605C39.4659 32.8562 39.4208 33.3506 39.3509 33.8418C39.3495 33.8511 39.349 33.8604 39.3495 33.8697C39.36 34.1971 39.5533 40.1735 39.4998 40.4271C39.4452 40.6877 39.4723 40.7421 39.5134 41.0989C39.5546 41.4557 39.6919 44.3777 39.7332 44.8304C39.7745 45.2832 40.1037 49.4261 40.1994 50.5783C40.2952 51.7305 40.1583 52.8285 40.2819 53.4732C40.4054 54.1179 40.4329 54.6254 40.1445 54.8452C39.8561 55.065 38.3338 55.3527 37.593 55.3938C36.8522 55.4349 34.534 55.5719 34.1086 55.5863C33.6831 55.6006 32.1055 55.8194 31.5844 55.7923C31.0632 55.7651 23.0239 55.8059 21.5696 55.9148C20.1154 56.0236 16.727 56.0521 15.5334 55.8462C14.3397 55.6402 12.2001 55.1056 12.2001 54.8039C12.2001 54.5022 12.3783 51.0449 12.3783 49.4398C12.3783 47.8347 12.7633 44.4048 12.7762 43.1704C12.7892 41.9359 13.1192 36.6679 13.1192 35.9954C13.1192 35.3229 12.8725 32.7579 12.8448 30.8647C12.8172 28.9716 12.5568 21.248 12.3919 20.9324C12.2271 20.6169 12.1314 20.6307 12.0069 21.0423C11.8825 21.4539 11.6919 22.2082 11.4172 22.5512C11.1451 22.8912 10.8726 23.3261 10.5336 23.8422C10.5284 23.8504 10.5239 23.859 10.52 23.8679C10.4087 24.1304 10.1246 24.4932 10.0728 24.6092C9.97238 24.8351 6.84899 23.8957 6.01284 23.5116C5.17669 23.1275 2.88488 22.1945 2.13011 21.7147C1.37533 21.2348 0.209484 20.329 0.140884 20.0135C0.108684 19.8646 0.0946858 19.7767 0.0883858 19.7258C0.0837848 19.6853 0.0936385 19.6445 0.11621 19.6105L0.600787 18.8718C0.619071 18.8412 0.628913 18.8063 0.629311 18.7707C0.643232 18.7099 0.668204 18.6522 0.702985 18.6004C0.764943 18.4839 0.845377 18.3782 0.941158 18.2875C0.965009 18.2662 0.98251 18.2387 0.991734 18.208L1.12439 17.749C1.127 17.7405 1.13015 17.7321 1.13384 17.724L5.06101 9.28094C5.06393 9.27492 5.0672 9.26908 5.07081 9.26344C5.13224 9.16369 5.71953 8.21064 5.88876 7.87272C5.99411 7.63185 6.08287 7.38405 6.15441 7.13107C6.29728 6.65604 6.56429 6.22773 6.92791 5.89032C7.32655 5.51282 7.76471 5.17939 8.23481 4.89579C9.19503 4.34717 12.0209 3.22209 14.2296 2.39872C16.4383 1.57534 19.9778 0.436968 19.9778 0.436968L20.8488 0.121969C20.8724 0.113451 20.8976 0.110106 20.9226 0.11216C20.9476 0.114213 20.9718 0.121616 20.9937 0.133869C21.5769 0.466312 22.1926 0.738163 22.8312 0.945169C23.6408 1.16462 25.287 1.60369 26.5491 1.53492C27.8044 1.46667 29.3851 1.53492 31.062 0.320594C31.0801 0.306937 31.1009 0.297221 31.1231 0.292069C31.2746 0.265168 31.4305 0.280796 31.5737 0.337218C31.5812 0.340263 31.5889 0.342778 31.5968 0.344743L32.5288 0.567693C32.547 0.572047 32.5658 0.573523 32.5845 0.572069C32.6697 0.564894 32.9326 0.549669 33.0239 0.629469C33.0919 0.687535 33.1671 0.736697 33.2476 0.775769C33.2532 0.778524 33.2591 0.78092 33.2651 0.782944C33.5101 0.869394 39.2609 2.88854 40.2946 3.31834C41.3511 3.75707 42.8321 4.33334 43.4635 4.77224C44.0949 5.21114 45.9743 7.76299 46.4543 8.80564C46.8888 9.74679 50.9084 17.8377 51.8597 19.8009Z" fill="url(#paint2_linear)"/>
<path d="M32.5587 0.489301C32.5587 0.489301 31.5544 3.03625 26.244 3.03625C20.434 3.03625 19.2717 0.5761 19.2717 0.5761C19.2717 0.5761 20.1406 0.292775 20.9317 0C23.6117 1.66897 29.099 1.96385 31.1978 0.0845253L32.5587 0.489301Z" fill="url(#paint3_radial)"/>
<path opacity="0.5" d="M12.3923 20.8473C12.3923 20.8473 11.4338 18.5289 11.0864 17.5957C10.7391 16.6624 10.7573 13.9557 10.7573 13.9557C10.7573 13.9557 10.5744 12.1266 9.51318 11.4131C10.0725 12.086 10.4278 12.9047 10.5375 13.7728C10.5924 14.6506 10.4645 16.5712 10.6474 17.3211C10.8302 18.071 12.0638 20.7686 12.0638 20.7686C12.0638 20.7686 12.1188 20.6211 12.2113 20.6247C12.3039 20.6284 12.3923 20.8473 12.3923 20.8473Z" fill="url(#paint4_linear)"/>
<path opacity="0.5" d="M40.1581 19.7918C40.1581 19.7918 40.8831 18.7217 41.1574 17.734C41.4316 16.7463 41.569 15.8134 41.6239 15.6762C41.7456 15.5018 41.9049 15.3571 42.0901 15.2526C42.2753 15.1481 42.4815 15.0866 42.6937 15.0726C43.2701 15.0451 43.7638 15.1275 43.6677 15.5941C43.5717 16.0606 42.1725 15.553 42.0352 16.2941C41.8978 17.0352 42.9954 18.9693 43.0092 19.6278C43.0092 19.6278 42.2957 17.378 41.6647 17.4605C41.0336 17.5429 41.6647 19.2028 41.7471 19.5458C41.7471 19.5458 41.226 18.4893 41.0611 18.6676C40.8963 18.8459 40.4026 20.5198 40.4026 20.5198C40.339 20.2715 40.2573 20.0282 40.1581 19.7918Z" fill="url(#paint5_linear)"/>
<path opacity="0.2" d="M21.4102 17.1624C21.2144 17.6832 20.1785 20.4223 19.3063 22.4057C18.6298 23.9457 15.9563 24.2164 14.8414 22.842C14.8211 22.8166 14.801 22.7911 14.781 22.765C14.2775 22.0989 13.381 26.1673 13.1267 27.455C12.8725 28.7426 14.4279 32.9164 17.0018 33.5737C19.5757 34.231 18.9618 30.8437 19.811 25.1245C20.6603 19.4053 24.9692 17.7474 23.5426 16.8894C22.7269 16.3994 21.8403 16.8355 21.5451 17.0105C21.4841 17.0442 21.4365 17.0978 21.4102 17.1624Z" fill="url(#paint6_linear)"/>
<path opacity="0.2" d="M31.2939 19.5478C31.8724 20.7069 32.7052 22.4315 33.2967 23.8957C33.7052 24.9058 35.004 25.4065 36.1263 24.9818C36.738 24.7593 37.2634 24.3489 37.6273 23.8093C38.1308 23.0618 39.0273 27.6265 39.2816 29.0699C39.5358 30.5133 37.9804 35.1967 35.4065 35.9343C32.8326 36.6719 32.129 31.3794 31.2802 24.9639C30.4315 18.5484 29.3596 18.9493 28.3169 17.2651C28.0795 16.8817 28.391 16.9526 28.8544 17.1776C29.9061 17.6778 30.7636 18.5109 31.2939 19.5478Z" fill="url(#paint7_linear)"/>
<path opacity="0.2" d="M6.64142 6.89576C7.20688 7.70735 7.83694 8.47196 8.52547 9.18214C10.328 11.112 11.2873 12.9961 11.0131 13.7916C10.7389 14.5872 10.6199 14.6059 10.7023 16.1148C10.7847 17.6236 12.3142 20.7104 12.3142 20.7104C12.3142 20.7104 12.2181 20.5799 12.1494 20.6212C12.0806 20.6625 11.7413 22.0037 11.5596 22.2573C11.378 22.5108 10.8874 23.2345 10.7847 23.3956C10.682 23.5568 11.4707 20.5867 11.0864 19.5169C10.7021 18.4472 9.23422 16.5262 9.72824 15.0994C10.2223 13.6726 9.22074 10.5998 7.94464 9.99624C7.08658 9.55638 6.30769 8.9768 5.63989 8.28124C5.63989 8.28124 6.0928 7.70514 6.17522 7.29354C6.19227 7.18233 6.24874 7.08096 6.33433 7.00793C6.41992 6.9349 6.52891 6.89509 6.64142 6.89576Z" fill="url(#paint8_linear)"/>
<path opacity="0.2" d="M40.1581 19.7914C40.1581 19.7914 40.4715 17.8708 40.7732 15.9778C41.0749 14.0848 41.8708 13.0416 42.8585 11.6427C43.8462 10.2437 45.3827 8.04837 45.8493 8.32277C46.3158 8.59717 47.1389 10.0514 47.1389 10.3256C47.1389 10.5999 44.5049 10.8193 43.1329 11.9994C41.7609 13.1794 41.5004 16.5264 41.4043 17.2399C41.3082 17.9534 40.2934 20.1482 40.2934 20.1482L40.1581 19.7914Z" fill="url(#paint9_linear)"/>
<path opacity="0.2" d="M14.3789 38.4486C14.3789 38.4486 13.0069 46.3506 14.0497 48.326C15.0925 50.3014 18.2201 51.728 19.6469 49.9172C21.0737 48.1065 21.4576 42.7288 24.0366 40.0947C26.6156 37.4606 28.0966 31.9733 23.3781 30.7659C18.6595 29.5586 14.9275 34.2234 14.3789 38.4486Z" fill="url(#paint10_linear)"/>
<path opacity="0.2" d="M32.9548 26.9174C32.9548 26.9174 30.7375 35.5342 31.6353 40.0742C30.5503 38.0951 29.4492 36.2169 28.5665 36.4445C26.999 36.849 25.1496 43.2193 22.8615 44.9046C20.5733 46.5898 20.259 50.6005 20.259 50.6005C20.1966 51.3085 20.3219 53.0274 24.3339 52.3529C28.346 51.6785 33.0165 53.3982 35.3047 52.1172C36.4521 51.4749 36.5353 49.8327 36.1272 48.1466C36.9672 49.0715 37.6726 49.653 37.9682 49.6938C38.846 49.8163 38.3862 42.2642 38.846 38.2446C39.3057 34.225 35.8801 18.9398 32.9548 26.9174Z" fill="url(#paint11_linear)"/>
<path opacity="0.2" d="M0.87973 18.8401C2.18028 20.0526 3.64592 21.075 5.23303 21.8767C6.85138 22.651 8.5687 23.1987 10.3366 23.5042" stroke="#707070" stroke-width="0.304" stroke-miterlimit="10" stroke-linecap="round"/>
<path opacity="0.2" d="M51.4192 19.2427C51.4192 19.2427 51.5013 19.5444 49.9923 20.4224C48.4832 21.3003 44.5599 23.4131 43.3524 23.55C42.1449 23.6868 41.6512 23.6049 41.6512 23.6049" stroke="#707070" stroke-width="0.304" stroke-miterlimit="10" stroke-linecap="round"/>
<path opacity="0.2" d="M46.5073 12.1086C46.5073 12.1086 50.4858 16.4987 49.8818 18.5292C49.2779 20.5597 45.6017 22.4527 44.5319 22.7546C43.4621 23.0565 43.7635 22.0136 44.422 20.9985C45.0805 19.9833 46.9735 18.5017 46.1781 16.1422C45.3828 13.7827 45.4923 12.5202 46.5073 12.1086Z" fill="url(#paint12_linear)"/>
<path opacity="0.5" d="M16.2445 28.6261C16.1072 27.446 14.6258 25.6903 13.9123 24.73C13.1988 23.7698 12.3923 20.8477 12.3923 20.8477L12.5405 23.3031C12.5405 23.3031 12.8697 29.0377 12.8835 30.1631C12.8973 31.2885 13.1579 35.2391 13.1579 35.2391C13.1579 35.2391 13.219 36.1796 13.2771 37.2989C13.2477 37.3593 13.226 37.4231 13.2127 37.4889C13.1989 37.6079 13.2313 37.7275 13.3033 37.8232C13.3637 39.0657 13.4099 40.3791 13.3637 40.8225C13.2676 41.7416 12.8147 45.3771 13.0487 45.3771C13.2827 45.3771 13.8712 41.3986 13.9953 39.9993C14.0256 39.2636 13.9609 38.527 13.8028 37.8078C13.9625 37.6777 14.1013 37.5239 14.2144 37.3517C14.9278 36.3367 13.0347 28.2152 13.364 28.2152C13.6934 28.2152 15.5039 32.9346 15.779 32.5228C16.0541 32.111 13.2275 26.5962 13.8309 27.3921C14.4343 28.188 16.381 29.8057 16.2445 28.6261ZM13.8024 35.1698C13.8569 35.6711 13.7791 36.1779 13.5768 36.6398C13.4816 36.1722 13.4104 35.6999 13.3637 35.225C13.2401 33.7432 13.0207 29.751 13.0207 29.751C13.1031 30.3272 13.651 34.0584 13.8024 35.1698Z" fill="url(#paint13_linear)"/>
<path opacity="0.4" d="M39.9779 21.4102C39.9779 21.4102 38.3318 24.5378 37.0146 25.5256C35.6974 26.5135 36.4656 31.4795 37.0421 31.8081C37.6185 32.1368 37.5632 28.2138 38.3591 28.2138C39.155 28.2138 38.0025 34.1677 38.4962 36.3077C38.9898 38.4478 39.1683 39.8886 39.3878 39.9024C39.6072 39.9162 39.3741 35.238 39.3057 34.4834C39.2373 33.7288 39.4564 30.5187 39.4564 30.5187L39.9779 21.4102Z" fill="url(#paint14_linear)"/>
<path opacity="0.2" d="M8.48891 4.81123C8.32406 4.84781 6.91565 5.59768 6.56828 6.74988C6.2209 7.90208 9.56796 9.98738 10.0986 11.2124C10.6292 12.4374 11.5435 12.7491 11.507 11.4686C11.4704 10.1881 9.58633 6.23713 10.885 4.90206C12.1837 3.56698 13.1348 4.57288 14.0676 4.26156C15.0003 3.95023 15.6951 1.90186 15.6951 1.90186L8.48891 4.81123Z" fill="url(#paint15_linear)"/>
<g style="mix-blend-mode:multiply" opacity="0.3">
<path d="M40.1581 19.7913C40.1581 19.7913 40.8625 18.8241 41.1162 17.9327C41.37 17.0412 41.6309 15.6276 41.6309 15.6276C41.8978 15.3337 42.1474 15.0245 42.3783 14.7016C42.68 14.2629 42.7075 13.5769 42.7075 13.5769C42.7075 13.5769 42.8106 14.5303 41.8159 15.6757C41.706 15.8885 41.3836 17.5897 41.1917 18.0216C40.9997 18.4535 40.2246 20.0108 40.2246 20.0108L40.1581 19.7913Z" fill="#728DA1"/>
</g>
<path opacity="0.3" d="M6.42215 10.8467C6.61833 11.0774 7.24465 11.6692 7.50138 13.4257C7.7581 15.1822 8.12333 17.6695 8.72638 18.7121C9.32943 19.7548 10.2813 22.0961 10.0798 22.6997C9.8784 23.3032 7.5922 22.6631 6.8607 21.8947C6.1292 21.1262 7.51923 18.6206 7.29943 16.6272C7.07963 14.6337 7.04358 11.7434 6.2937 11.6155C5.54382 11.4876 6.51315 17.3223 5.81805 18.493C5.12295 19.6638 4.17182 19.8465 3.58627 19.1879C3.00072 18.5294 4.72045 17.8345 4.97665 15.9319C5.23285 14.0293 5.63518 12.1822 5.30583 11.9993C4.97648 11.8164 2.65335 17.3767 2.06833 17.2493C1.4833 17.1219 5.0862 8.78034 5.54365 8.70737C6.0011 8.63439 6.25678 8.99979 6.3301 9.38392C6.40343 9.76804 5.80003 10.1152 6.42215 10.8467Z" fill="url(#paint16_linear)"/>
<path opacity="0.2" d="M44.9806 11.3224C44.0659 12.0358 43.956 12.6944 44.0109 13.7374C44.0659 14.7804 45.255 16.0967 45.255 17.8528C45.255 19.609 43.4987 20.8891 43.9926 21.5291C44.4864 22.169 46.3153 20.8341 46.4251 19.078C46.5348 17.3219 45.2001 14.7793 45.6386 14.5784C46.0772 14.3775 48.7662 17.3219 49.2055 17.0295C49.6447 16.737 45.5655 12.6209 45.8764 12.1272C46.1874 11.6335 47.7785 12.42 47.7601 12.1272C47.7418 11.8344 47.0652 10.8651 46.7359 10.9197C46.4065 10.9743 45.4641 10.9451 44.9806 11.3224Z" fill="url(#paint17_linear)"/>
<path opacity="0.4" d="M19.8936 1.38097C19.8936 1.38097 21.6223 3.0272 25.7103 3.0272C29.7983 3.0272 31.3628 1.87465 32.0759 1.1897" stroke="#C1D1D4" stroke-width="0.304" stroke-miterlimit="10"/>
<path opacity="0.1" d="M20.1406 31.0134C17.7839 32.4912 17.8358 33.8118 18.5218 35.8971C19.2078 37.9824 21.4303 41.2201 22.6378 41.0277C23.8453 40.8354 26.5617 37.3237 26.8361 34.7995C27.1105 32.2753 24.6136 30.7661 23.6532 30.6291C22.6928 30.492 21.7593 29.9982 20.1406 31.0134Z" fill="url(#paint18_linear)"/>
<g style="mix-blend-mode:multiply" opacity="0.5">
<path d="M12.9441 54.2637C12.9441 54.2637 13.8588 55.0322 18.395 55.2884C22.9311 55.5446 31.6013 54.9226 32.2964 54.8859C32.9915 54.8491 37.1264 54.7396 38.1498 54.5201C39.1732 54.3007 39.869 54.3007 40.3081 53.6787" stroke="#707070" stroke-width="0.152" stroke-miterlimit="10"/>
</g>
<defs>
<linearGradient id="paint0_linear" x1="-1115.75" y1="27.9624" x2="-1063.87" y2="27.9624" gradientUnits="userSpaceOnUse">
<stop stop-color="#C5D0DB"/>
<stop offset="0.048" stop-color="#CDD6E0"/>
<stop offset="0.166" stop-color="#DCE2E9"/>
<stop offset="0.304" stop-color="#E5E9EE"/>
<stop offset="0.514" stop-color="#E8ECF0"/>
<stop offset="0.784" stop-color="#E6EAEE"/>
<stop offset="0.881" stop-color="#DFE5EA"/>
<stop offset="0.95" stop-color="#D3DBE3"/>
<stop offset="1" stop-color="#C5D0DB"/>
</linearGradient>
<linearGradient id="paint1_linear" x1="-1089.73" y1="55.9151" x2="-1089.73" y2="0.0090332" gradientUnits="userSpaceOnUse">
<stop stop-color="#C5D0DB"/>
<stop offset="0.04" stop-color="#C8D3DD" stop-opacity="0.89"/>
<stop offset="0.125" stop-color="#D0D8E1" stop-opacity="0.682"/>
<stop offset="0.216" stop-color="#D6DEE5" stop-opacity="0.498"/>
<stop offset="0.312" stop-color="#DBE2E8" stop-opacity="0.345"/>
<stop offset="0.413" stop-color="#E0E5EB" stop-opacity="0.22"/>
<stop offset="0.522" stop-color="#E3E8ED" stop-opacity="0.122"/>
<stop offset="0.643" stop-color="#E6EAEE" stop-opacity="0.051"/>
<stop offset="0.785" stop-color="#E7EBEF" stop-opacity="0.012"/>
<stop offset="1" stop-color="#E8ECF0" stop-opacity="0"/>
</linearGradient>
<linearGradient id="paint2_linear" x1="-1089.81" y1="34.3706" x2="-1089.81" y2="-23.1376" gradientUnits="userSpaceOnUse">
<stop stop-color="white" stop-opacity="0"/>
<stop offset="0.076" stop-color="white" stop-opacity="0.184"/>
<stop offset="0.166" stop-color="white" stop-opacity="0.373"/>
<stop offset="0.262" stop-color="white" stop-opacity="0.541"/>
<stop offset="0.36" stop-color="white" stop-opacity="0.682"/>
<stop offset="0.463" stop-color="white" stop-opacity="0.8"/>
<stop offset="0.572" stop-color="white" stop-opacity="0.886"/>
<stop offset="0.69" stop-color="white" stop-opacity="0.953"/>
<stop offset="0.822" stop-color="white" stop-opacity="0.988"/>
<stop offset="1" stop-color="white"/>
</linearGradient>
<radialGradient id="paint3_radial" cx="0" cy="0" r="1" gradientUnits="userSpaceOnUse" gradientTransform="translate(-78.1793 -10.2885) rotate(-167.152) scale(8.78105 5.17495)">
<stop offset="0.022" stop-color="#F1F4F8"/>
<stop offset="0.324" stop-color="#EEF1F5"/>
<stop offset="0.392" stop-color="#ECF0F4"/>
<stop offset="0.536" stop-color="#E6EBF0"/>
<stop offset="0.719" stop-color="#D6DEE5"/>
<stop offset="0.924" stop-color="#BCCAD3"/>
<stop offset="1" stop-color="#B1C1CC"/>
</radialGradient>
<linearGradient id="paint4_linear" x1="11.3213" y1="16.017" x2="8.88678" y2="16.0861" gradientUnits="userSpaceOnUse">
<stop stop-color="#B3C6D8"/>
<stop offset="1" stop-color="#CCD9E5" stop-opacity="0"/>
</linearGradient>
<linearGradient id="paint5_linear" x1="40.6089" y1="17.2377" x2="44.4867" y2="17.9749" gradientUnits="userSpaceOnUse">
<stop stop-color="#B3C6D8"/>
<stop offset="1" stop-color="#CCD9E5" stop-opacity="0"/>
</linearGradient>
<linearGradient id="paint6_linear" x1="18.4647" y1="31.6668" x2="18.4647" y2="-5.21994" gradientUnits="userSpaceOnUse">
<stop stop-color="#CCD9E5" stop-opacity="0"/>
<stop offset="0.179" stop-color="#CCD9E5" stop-opacity="0.8"/>
<stop offset="1" stop-color="#CCD9E5" stop-opacity="0"/>
</linearGradient>
<linearGradient id="paint7_linear" x1="-1089.04" y1="33.779" x2="-1089.04" y2="-7.49169" gradientUnits="userSpaceOnUse">
<stop stop-color="#CCD9E5" stop-opacity="0"/>
<stop offset="0.179" stop-color="#CCD9E5" stop-opacity="0.8"/>
<stop offset="1" stop-color="#CCD9E5" stop-opacity="0"/>
</linearGradient>
<linearGradient id="paint8_linear" x1="10.9727" y1="14.4556" x2="3.07297" y2="14.8463" gradientUnits="userSpaceOnUse">
<stop stop-color="#CCD9E5"/>
<stop offset="1" stop-color="#CCD9E5" stop-opacity="0"/>
</linearGradient>
<linearGradient id="paint9_linear" x1="46.8247" y1="13.0626" x2="26.8114" y2="15.1697" gradientUnits="userSpaceOnUse">
<stop stop-color="#CCD9E5"/>
<stop offset="1" stop-color="#CCD9E5" stop-opacity="0"/>
</linearGradient>
<linearGradient id="paint10_linear" x1="20.0555" y1="48.3885" x2="20.0555" y2="4.5844" gradientUnits="userSpaceOnUse">
<stop stop-color="white"/>
<stop offset="0.201" stop-color="white" stop-opacity="0.82"/>
<stop offset="0.653" stop-color="white" stop-opacity="0.365"/>
<stop offset="1" stop-color="white" stop-opacity="0"/>
</linearGradient>
<linearGradient id="paint11_linear" x1="29.5686" y1="49.3348" x2="29.5686" y2="-11.3667" gradientUnits="userSpaceOnUse">
<stop stop-color="white"/>
<stop offset="0.183" stop-color="white" stop-opacity="0.988"/>
<stop offset="0.316" stop-color="white" stop-opacity="0.953"/>
<stop offset="0.433" stop-color="white" stop-opacity="0.89"/>
<stop offset="0.54" stop-color="white" stop-opacity="0.8"/>
<stop offset="0.642" stop-color="white" stop-opacity="0.686"/>
<stop offset="0.739" stop-color="white" stop-opacity="0.549"/>
<stop offset="0.832" stop-color="white" stop-opacity="0.384"/>
<stop offset="0.92" stop-color="white" stop-opacity="0.196"/>
<stop offset="1" stop-color="white" stop-opacity="0"/>
</linearGradient>
<linearGradient id="paint12_linear" x1="43.8269" y1="17.4581" x2="49.9442" y2="17.4581" gradientUnits="userSpaceOnUse">
<stop stop-color="white" stop-opacity="0"/>
<stop offset="0.347" stop-color="white" stop-opacity="0.365"/>
<stop offset="0.799" stop-color="white" stop-opacity="0.82"/>
<stop offset="1" stop-color="white"/>
</linearGradient>
<linearGradient id="paint13_linear" x1="14.3218" y1="42.5071" x2="14.3218" y2="-10.7462" gradientUnits="userSpaceOnUse">
<stop stop-color="#CCD9E5" stop-opacity="0"/>
<stop offset="0.179" stop-color="#CCD9E5" stop-opacity="0.8"/>
<stop offset="1" stop-color="#CCD9E5" stop-opacity="0"/>
</linearGradient>
<linearGradient id="paint14_linear" x1="38.1335" y1="37.7388" x2="38.1335" y2="-2.4079" gradientUnits="userSpaceOnUse">
<stop stop-color="#CCD9E5"/>
<stop offset="1" stop-color="#CCD9E5" stop-opacity="0"/>
</linearGradient>
<linearGradient id="paint15_linear" x1="11.1191" y1="11.0763" x2="11.1191" y2="-11.4806" gradientUnits="userSpaceOnUse">
<stop stop-color="#CCD9E5"/>
<stop offset="1" stop-color="#CCD9E5" stop-opacity="0"/>
</linearGradient>
<linearGradient id="paint16_linear" x1="2.00427" y1="15.8183" x2="10.1073" y2="15.8183" gradientUnits="userSpaceOnUse">
<stop stop-color="#CCD9E5"/>
<stop offset="1" stop-color="#CCD9E5" stop-opacity="0"/>
</linearGradient>
<linearGradient id="paint17_linear" x1="43.905" y1="16.3047" x2="49.2386" y2="16.3047" gradientUnits="userSpaceOnUse">
<stop stop-color="#CCD9E5"/>
<stop offset="1" stop-color="#CCD9E5" stop-opacity="0"/>
</linearGradient>
<linearGradient id="paint18_linear" x1="22.4836" y1="41.0359" x2="22.4836" y2="30.3882" gradientUnits="userSpaceOnUse">
<stop stop-color="white"/>
<stop offset="0.201" stop-color="white" stop-opacity="0.82"/>
<stop offset="0.653" stop-color="white" stop-opacity="0.365"/>
<stop offset="1" stop-color="white" stop-opacity="0"/>
</linearGradient>
</defs>
</svg>
