<svg width="51" height="56" viewBox="0 0 51 56" fill="none" xmlns="http://www.w3.org/2000/svg">
<path d="M0.0542467 20.1665C0.0143834 20.2493 0.00128152 20.3424 0.0167618 20.4329C0.0322422 20.5234 0.0755359 20.6069 0.140628 20.6717C0.453337 20.9932 0.793085 21.2872 1.15612 21.5505C1.66064 21.8824 3.37365 22.7986 3.78515 23.038C4.19666 23.2774 6.57385 24.4853 6.95883 24.6182C7.4811 24.791 8.01937 24.911 8.56557 24.9765C9.09695 25.0297 9.66795 24.8174 9.66795 24.7641C9.66795 24.7109 10.8895 22.4539 10.9693 21.8426C11.0811 21.2608 11.2365 20.6883 11.4342 20.1298C11.4342 20.1298 11.4736 20.4359 11.5269 20.9263C11.5801 21.4167 11.5534 22.1213 11.5801 22.3871C11.6068 22.6529 12.0979 31.8549 12.0846 32.2135C12.0713 32.5722 12.2176 33.6608 12.2176 33.6608C12.2176 33.6608 12.0185 39.7692 12.0713 40.0214C12.1242 40.2736 12.0979 40.3275 12.0581 40.6721C12.0183 41.0168 11.8856 43.8458 11.8457 44.2842C11.8057 44.7226 11.4871 48.7327 11.3941 49.8478C11.301 50.963 11.434 52.0256 11.3146 52.6496C11.1953 53.2737 11.1684 53.7653 11.4473 53.9776C11.7261 54.19 13.2002 54.4692 13.9175 54.5087C14.6347 54.5481 16.8784 54.6814 17.2903 54.6947C17.7021 54.708 19.2288 54.9204 19.7335 54.8938C20.2381 54.8673 28.0195 54.9071 29.4273 55.0129C30.835 55.1186 34.1147 55.1455 35.2698 54.9464C36.4249 54.7473 38.4967 54.2293 38.4967 53.9372C38.4967 53.645 38.3242 50.2983 38.3242 48.7454C38.3242 47.1926 37.9523 43.872 37.9391 42.6769C37.9258 41.4819 37.6072 36.3828 37.6072 35.7321C37.6072 35.0813 37.8461 32.5983 37.8726 30.7654C37.8991 28.9326 38.1515 21.4571 38.311 21.1517C38.4705 20.8463 38.5631 20.8593 38.6825 21.2577C38.8019 21.6561 38.9886 22.3866 39.2538 22.7185C39.5191 23.0504 39.7852 23.4752 40.1168 23.9801C40.2207 24.2341 40.5045 24.5961 40.5552 24.7102C40.6525 24.9292 43.6756 24.02 44.4856 23.6481C45.2955 23.2763 47.5133 22.3728 48.2435 21.9084C48.9737 21.444 50.1026 20.5671 50.1689 20.2617C50.2037 20.15 50.2216 20.0337 50.2221 19.9167L49.6645 19.0665C49.6645 19.0665 49.7576 19.133 49.6246 18.8941C49.56 18.7663 49.4697 18.6532 49.3592 18.5622L49.2129 18.0573L45.4019 9.86499C45.4019 9.86499 44.7779 8.85578 44.6053 8.51043C44.4975 8.26318 44.4071 8.00868 44.3349 7.74881C44.205 7.31794 43.9628 6.92941 43.6331 6.62312C43.2379 6.2453 42.8025 5.91201 42.3345 5.62922C41.4051 5.09784 38.6698 4.00923 36.5315 3.21224C34.3932 2.41525 30.9678 1.31337 30.9678 1.31337L30.0517 0.981445C30.0517 0.981445 28.9892 1.59224 28.2057 1.80496C27.4221 2.01769 25.829 2.44194 24.6074 2.37597C23.3858 2.30999 21.8456 2.37597 20.2121 1.18057C20.0524 1.14446 19.8855 1.15842 19.734 1.22053L18.7902 1.44634C18.7902 1.44634 18.4449 1.40638 18.3389 1.49923C18.2705 1.55782 18.1945 1.607 18.113 1.64546C18.113 1.64546 12.3237 3.6773 11.301 4.1019C10.2784 4.5265 8.8446 5.08458 8.2333 5.50968C7.622 5.93479 5.80373 8.40449 5.33985 9.41455C4.91084 10.3433 0.866201 18.4831 0.0542467 20.1665Z" fill="url(#paint0_linear)"/>
<path d="M0.0440415 20.1665C0.00413585 20.2492 -0.0090207 20.3423 0.00639838 20.4328C0.0218175 20.5233 0.0650469 20.6068 0.130083 20.6717C0.442871 20.993 0.782611 21.287 1.14558 21.5504C1.65044 21.8824 3.36311 22.7986 3.77495 23.038C4.18679 23.2774 6.56365 24.4852 6.94863 24.6182C7.47089 24.791 8.00916 24.911 8.55536 24.9765C9.0864 25.0297 9.65741 24.8173 9.65741 24.7641C9.65741 24.7109 10.8793 22.4539 10.9587 21.8426C11.0706 21.2608 11.2261 20.6882 11.424 20.1297C11.424 20.1297 11.4634 20.4358 11.5167 20.9262C11.5699 21.4166 11.5428 22.1213 11.5695 22.387C11.5962 22.6528 12.0877 31.8549 12.0744 32.2135C12.0611 32.5721 12.207 33.6607 12.207 33.6607C12.207 33.6607 12.0079 39.7692 12.0611 40.0213C12.1144 40.2735 12.0877 40.3274 12.0479 40.6721C12.0081 41.0168 11.8751 43.8458 11.8355 44.2841C11.7959 44.7225 11.4769 48.7326 11.3838 49.8478C11.2908 50.9629 11.4238 52.0255 11.3041 52.6495C11.1844 53.2736 11.1582 53.7652 11.4371 53.9776C11.7159 54.19 13.1897 54.4692 13.9069 54.5086C14.6242 54.5481 16.8682 54.6814 17.2796 54.6947C17.6909 54.7079 19.2181 54.9203 19.7231 54.8938C20.2281 54.8673 28.0091 54.907 29.4165 55.0128C30.824 55.1186 34.1039 55.1454 35.2594 54.9463C36.4148 54.7472 38.4863 54.2292 38.4863 53.9371C38.4863 53.645 38.3135 50.2982 38.3135 48.7454C38.3135 47.1925 37.9416 43.8719 37.9284 42.6769C37.9151 41.4818 37.5964 36.3828 37.5964 35.732C37.5964 35.0812 37.8357 32.5983 37.862 30.7654C37.8884 28.9325 38.1413 21.4571 38.3004 21.1517C38.4596 20.8463 38.5526 20.8592 38.6723 21.2576C38.792 21.656 38.9784 22.3865 39.2431 22.7185C39.5079 23.0504 39.7745 23.4752 40.1061 23.98C40.21 24.2341 40.4938 24.5961 40.5445 24.7102C40.6417 24.9292 43.6649 24.02 44.4752 23.6481C45.2854 23.2762 47.5019 22.3728 48.2331 21.9084C48.9643 21.444 50.092 20.5671 50.1585 20.2617C50.1933 20.15 50.2113 20.0337 50.2117 19.9167L49.6538 19.0665C49.6538 19.0665 49.7468 19.1329 49.6139 18.894C49.5494 18.7661 49.459 18.653 49.3483 18.5621L49.2024 18.0573L45.3914 9.86425C45.3914 9.86425 44.7673 8.85505 44.5944 8.5097C44.4869 8.26232 44.3966 8.00785 44.324 7.74807C44.1943 7.31722 43.9522 6.92868 43.6226 6.62239C43.2272 6.24465 42.7916 5.91137 42.3236 5.62849C41.3942 5.09711 38.6589 4.00849 36.5209 3.2115C34.383 2.41451 30.957 1.31264 30.957 1.31264L30.0408 0.980713C30.0408 0.980713 28.9783 1.59151 28.1951 1.80423C27.4119 2.01695 25.8181 2.44121 24.5963 2.37523C23.3746 2.30926 21.8345 2.37523 20.2011 1.17983C20.0415 1.14375 19.8746 1.1577 19.7233 1.21979L18.7805 1.44578C18.7805 1.44578 18.4352 1.40582 18.3289 1.49866C18.2605 1.55721 18.1846 1.60639 18.1033 1.6449C18.1033 1.6449 12.3136 3.67674 11.291 4.10134C10.2684 4.52593 8.83457 5.08401 8.22378 5.50912C7.61298 5.93423 5.7937 8.40444 5.32863 9.41449C4.90029 10.3433 0.855995 18.483 0.0440415 20.1665Z" fill="url(#paint1_linear)"/>
<path d="M0.0904577 20.0699C0.0345066 20.1855 0.0163218 20.3158 0.0384765 20.4423C0.0606313 20.5688 0.122004 20.6851 0.213909 20.7748C0.499722 21.0632 0.809143 21.3273 1.13894 21.5643C1.64346 21.8962 3.35647 22.8124 3.76797 23.0515C4.17947 23.2905 6.55684 24.4989 6.94165 24.6318C7.4639 24.8047 8.00217 24.9249 8.54838 24.9905C9.07943 25.0437 9.65077 24.831 9.65077 24.7781C9.65077 24.7252 10.8724 22.4674 10.9521 21.8566C11.0046 21.5316 11.0798 21.2108 11.1771 20.8963C11.1887 20.8593 11.2126 20.8274 11.2449 20.8059C11.2771 20.7844 11.3157 20.7745 11.3544 20.7779C11.393 20.7814 11.4293 20.7979 11.4572 20.8248C11.4852 20.8517 11.5031 20.8873 11.508 20.9258L11.5097 20.9404C11.5629 21.4315 11.5362 22.1354 11.5629 22.4009C11.5896 22.6663 12.0807 31.8687 12.0674 32.2273C12.0869 32.7072 12.1306 33.1858 12.1985 33.6613C12.1995 33.6702 12.1999 33.6792 12.1995 33.6881C12.1893 34.0051 12.0023 39.79 12.054 40.0352C12.1072 40.2877 12.0805 40.3412 12.0407 40.6859C12.0009 41.0306 11.8683 43.8596 11.8283 44.298C11.7884 44.7363 11.4697 48.7464 11.3767 49.8616C11.2837 50.9767 11.4167 52.0397 11.297 52.6637C11.1772 53.2878 11.1511 53.779 11.4299 53.9918C11.7088 54.2045 13.1829 54.4828 13.8998 54.5228C14.6167 54.5628 16.8611 54.6952 17.2729 54.7085C17.6848 54.7218 19.2114 54.9341 19.7161 54.9079C20.2208 54.8818 28.0021 54.9212 29.4096 55.027C30.817 55.1327 34.0973 55.16 35.2524 54.9605C36.4075 54.761 38.4793 54.2438 38.4793 53.9516C38.4793 53.6595 38.3065 50.3127 38.3065 48.7594C38.3065 47.206 37.935 43.8859 37.9217 42.6909C37.9085 41.4958 37.5898 36.3968 37.5898 35.746C37.5898 35.0952 37.8287 32.6123 37.8552 30.7797C37.8818 28.9472 38.1341 21.4711 38.2933 21.1657C38.4524 20.8603 38.5458 20.8736 38.6652 21.272C38.7845 21.6704 38.9712 22.4005 39.2362 22.7325C39.4999 23.0617 39.7633 23.4825 40.0915 23.9821C40.0967 23.99 40.1011 23.9983 40.1047 24.0069C40.2129 24.2603 40.4878 24.6121 40.5375 24.7245C40.6348 24.9432 43.658 24.034 44.4682 23.6621C45.2785 23.2902 47.495 22.3868 48.2262 21.9227C48.9573 21.4587 50.0852 20.5814 50.1515 20.276C50.1827 20.1318 50.1963 20.0473 50.2026 19.9975C50.2071 19.9584 50.1977 19.9189 50.176 19.886L49.7069 19.1709C49.6888 19.1414 49.6792 19.1076 49.6792 19.073C49.6653 19.0143 49.6411 18.9585 49.6077 18.9082C49.5478 18.7953 49.4698 18.6929 49.3768 18.6052C49.3538 18.5845 49.337 18.5578 49.3282 18.5282L49.1995 18.0838C49.1973 18.0755 49.1943 18.0674 49.1905 18.0597L45.3892 9.88727C45.3865 9.88142 45.3835 9.87575 45.3801 9.87026C45.3203 9.77402 44.7518 8.8512 44.5884 8.52404C44.4861 8.29099 44.4002 8.05111 44.3313 7.80612C44.1931 7.34642 43.9348 6.93186 43.5831 6.6051C43.1972 6.23982 42.7731 5.91705 42.3182 5.64232C41.3887 5.11128 38.6531 4.02233 36.5151 3.22534C34.3772 2.42835 30.9515 1.32647 30.9515 1.32647L30.1081 1.02039C30.0853 1.01209 30.0609 1.00883 30.0367 1.01082C30.0125 1.01282 29.989 1.02003 29.9678 1.03195C29.4034 1.35385 28.8074 1.61704 28.1893 1.81738C27.4061 2.02977 25.8127 2.4547 24.5911 2.38839C23.3761 2.32224 21.8459 2.38839 20.2227 1.21288C20.205 1.19961 20.1847 1.19017 20.1632 1.18516C20.0166 1.15911 19.8658 1.17424 19.7273 1.22886C19.7199 1.23188 19.7123 1.23432 19.7045 1.23618L18.8033 1.45196C18.7856 1.45617 18.7673 1.4576 18.7491 1.45621C18.6669 1.44924 18.4122 1.43445 18.324 1.51181C18.2583 1.56805 18.1856 1.61565 18.1078 1.65346C18.1023 1.65608 18.0966 1.65841 18.0908 1.66043C17.8528 1.74409 12.2871 3.69856 11.2866 4.11449C10.2641 4.53959 8.8298 5.09717 8.21884 5.52193C7.60788 5.9467 5.78893 8.41674 5.32403 9.42611C4.90216 10.3381 1.01158 18.1702 0.0904577 20.0699Z" fill="url(#paint2_linear)"/>
<path d="M19.6629 1.86383C19.6629 1.86383 21.6811 3.59826 24.9038 3.10327C26.9642 2.76625 28.9824 2.20818 30.9233 1.43872C30.9233 1.43872 31.419 7.31693 25.0808 7.49394C18.7426 7.67096 19.6629 1.86383 19.6629 1.86383Z" fill="url(#paint3_linear)"/>
<path d="M19.2731 2.12928C19.2731 2.12928 20.1585 3.59896 24.8152 3.59896C29.4718 3.59896 30.8879 1.9169 30.8879 1.9169L30.0377 0.695312C30.0377 0.695312 28.5502 2.07606 25.2838 2.10275C24.1151 2.1825 22.07 2.27552 20.1182 0.881168L19.2731 2.12928Z" fill="url(#paint4_radial)"/>
<path d="M18.3527 1.35015C18.2112 2.58772 18.4786 3.83761 19.114 4.90897C20.1764 6.67946 21.8585 8.39672 24.9922 8.39672C28.6837 8.39672 31.0117 6.0066 31.5963 3.8644C32.0036 2.19985 31.4722 1.26172 31.4722 1.26172L30.0382 0.695312C30.0382 0.695312 30.2374 1.23945 30.3037 1.51849C30.3037 1.51849 30.5958 6.85647 25.0055 6.85647C23.2125 6.85647 20.6364 5.40924 20.1453 3.65627C19.6542 1.9033 20.1718 0.920958 20.1718 0.920958L20.0656 0.867736C20.0656 0.867736 18.4192 1.11583 18.3527 1.35015Z" fill="url(#paint5_radial)"/>
<path d="M11.5006 19.498C11.5006 19.498 11.5539 16.8964 11.5006 15.5144C11.4474 14.1325 10.9696 12.4338 10.9696 12.4338L9.69429 11.3181C10.2618 11.766 10.6409 12.4103 10.7567 13.124C10.9691 14.3459 11.0223 16.6296 11.0223 16.6296L11.1815 17.3733C11.1815 17.3733 9.90616 15.8861 9.3224 14.9302C8.73864 13.9742 7.94131 12.0087 7.94131 12.0087C7.94131 12.0087 8.7383 14.2395 9.00374 14.7174C9.53966 15.5444 10.1251 16.3381 10.7567 17.0945C11.0628 17.4264 11.4648 17.7983 11.4648 17.7983L11.4478 18.0991C11.4478 18.0991 11.1337 18.0726 11.1024 18.1656C11.0711 18.2586 11.3724 18.2586 11.4654 18.2275C11.4736 18.4094 11.5006 19.498 11.5006 19.498Z" fill="#C3CFDA"/>
<path style="mix-blend-mode:multiply" opacity="0.3" d="M6.18918 12.3274C7.25161 12.3274 6.72022 16.8424 6.77345 18.4359C6.82667 20.0294 6.40156 21.2515 6.56106 21.9415C6.72056 22.6315 8.41997 23.8531 8.41997 23.8531C8.41997 23.8531 8.89779 24.2782 9.37612 24.0655C9.85445 23.8528 10.4914 22.2064 10.4914 21.5691C10.4914 20.9318 8.20776 20.9318 7.99503 19.8161C7.78231 18.7005 6.87972 11.4772 7.03888 10.3617C7.46399 12.5395 9.11051 18.2228 9.90716 18.701C10.7038 19.1791 10.9696 17.9572 10.5445 17.4794C10.1194 17.0016 7.8357 11.6366 7.72943 10.291C8.01272 10.0429 8.43783 9.4408 8.01272 8.83919C7.58761 8.23757 6.80865 7.24572 6.52553 7.56387C6.2424 7.88202 2.59482 15.1063 2.59482 15.1063C2.59482 15.1063 5.88803 8.48431 6.41908 8.59075C6.95012 8.6972 0.788964 19.0366 0.788964 19.0366C0.788964 19.0366 0.61195 19.4264 0.894901 19.6034C1.17785 19.7804 2.55945 20.6301 2.55945 20.6301C2.55945 20.6301 5.12675 12.3274 6.18918 12.3274Z" fill="url(#paint6_linear)"/>
<path opacity="0.3" d="M18.2061 1.43872C18.2061 1.43872 17.9276 4.62566 18.6181 5.95369C19.3087 7.28173 17.6089 15.4081 14.6342 16.3112C11.6595 17.2143 11.2349 12.4342 11.2349 12.4342C11.2349 12.4342 8.89832 11.2119 8.63237 10.0966C8.36643 8.98131 7.80052 7.58236 6.70273 7.38784C6.7381 7.01595 7.81804 5.6534 8.43716 5.2453C9.05629 4.83719 18.2061 1.43872 18.2061 1.43872Z" fill="url(#paint7_linear)"/>
<path opacity="0.3" d="M19.3204 34.6373C17.0928 34.5198 13.5049 44.2957 12.7874 46.8317C12.0698 49.3677 11.7518 53.6533 11.7518 53.6533C12.1996 53.9872 12.7323 54.1884 13.289 54.234C14.1732 54.2879 16.901 54.1 18.034 54.3148C19.167 54.5296 19.8399 54.6367 20.3002 54.5019C20.7605 54.367 19.4858 44.1182 19.7688 41.1662C20.0517 38.2143 21.173 34.7349 19.3204 34.6373Z" fill="url(#paint8_linear)"/>
<path opacity="0.6" d="M38.4165 20.6932C38.4165 20.6932 38.7974 19.5646 38.6206 18.6086C38.4437 17.6526 36.3544 15.28 36.3544 15.0676C37.5585 15.4927 39.0103 17.9713 39.0103 17.9713C39.0103 17.9713 39.2406 18.2102 39.307 18.184C39.3735 18.1578 40.0238 17.1881 39.9973 16.2848C39.9707 15.3815 41.0332 15.5016 41.1129 16.338C41.1927 17.1745 39.5727 18.5555 39.4125 19.4717C39.2939 20.1118 39.1433 20.7456 38.9612 21.3706C38.8927 21.1061 38.8083 20.8459 38.7087 20.5915C38.6335 20.4634 38.5541 20.4988 38.5541 20.4988L38.4165 20.6932Z" fill="#C3CFDA"/>
<path style="mix-blend-mode:multiply" opacity="0.5" d="M44.273 7.41431C44.273 7.41431 44.5757 12.0944 40.831 14.803C41.5481 14.8828 43.6622 11.8761 44.1401 10.2559C44.2198 10.548 42.9023 16.1564 43.2218 17.5118C43.2218 17.5118 44.2577 14.7231 44.4169 12.652C44.576 10.5808 44.433 10.2294 44.433 10.2294C44.781 11.0097 44.985 11.8466 45.0352 12.6996C45.1414 14.1868 45.2654 16.0989 45.7964 16.2227C46.3275 16.3465 45.4603 11.4069 45.1947 10.5747C44.929 9.74253 44.8049 9.35313 44.8049 9.35313C45.1488 9.83232 45.468 10.3288 45.7611 10.8407C45.8276 10.7216 45.4157 9.51263 45.1103 9.0877C44.8049 8.66276 44.3936 7.61394 44.3936 7.61394C44.3936 7.61394 44.3926 7.41431 44.273 7.41431Z" fill="url(#paint9_linear)"/>
<path opacity="0.7" d="M38.6694 20.7994C38.6739 20.6232 38.7193 20.4505 38.802 20.2949C38.9482 19.9828 39.0061 20.4232 39.112 20.3746C39.2179 20.326 39.0409 19.9937 39.0544 19.6883C39.0678 19.3829 39.767 19.3482 39.8246 19.0202C39.8823 18.6922 39.4528 18.8475 39.4528 18.8475C39.4528 18.8475 40.2826 17.7123 40.3491 16.9158C40.23 17.4468 38.8374 19.1974 38.6782 19.8128C38.6142 20.1122 38.5684 20.4153 38.5412 20.7203C38.5681 20.7187 38.5948 20.7254 38.6178 20.7396C38.6407 20.7537 38.6587 20.7746 38.6694 20.7994Z" fill="url(#paint10_linear)"/>
<path style="mix-blend-mode:multiply" opacity="0.7" d="M11.4121 14.9656C11.4121 14.9656 11.7132 18.4887 11.5272 19.923C11.3281 19.6574 11.1378 19.9538 11.0137 20.016C10.9359 20.0373 10.8535 20.0342 10.7775 20.0072C10.7015 19.9803 10.6356 19.9307 10.5886 19.8652C10.7076 19.8742 10.8586 20.0114 11.0266 19.9009C11.1946 19.7904 11.1682 19.6528 11.3145 19.6309C11.4607 19.6089 11.5269 19.1131 11.3544 18.8805C11.182 18.6479 10.8297 18.7745 10.7635 18.5419C10.6974 18.3093 11.2813 18.303 11.3544 18.1638C11.4276 18.0245 11.3478 17.5856 11.3478 17.5856C11.3478 17.5856 10.3185 16.6228 9.82712 15.793C10.2721 16.3905 11.4272 17.453 11.4272 17.453C11.4272 17.453 11.2742 14.3259 11.0623 13.542C11.2413 13.999 11.3589 14.4777 11.4121 14.9656Z" fill="url(#paint11_linear)"/>
<path opacity="0.2" d="M0.572205 19.3123C1.79222 20.1798 3.06026 20.9778 4.37028 21.7024C5.76076 22.4436 7.19267 23.1044 8.65893 23.6815C9.17705 23.8543 10.0268 23.7878 10.0268 23.7878" stroke="#707070" stroke-width="0.304" stroke-miterlimit="10" stroke-linecap="round"/>
<path style="mix-blend-mode:multiply" opacity="0.2" d="M11.412 14.9656C11.412 14.9656 12.1912 16.3907 13.5988 16.975C15.0064 17.5592 18.9103 16.4439 19.3087 16.7893C19.7071 17.1346 15.4047 21.4102 14.6609 22.5257C13.9171 23.6412 13.6782 21.7641 12.8285 21.853C11.9788 21.9419 11.8372 22.9862 11.8372 22.9862L11.412 14.9656Z" fill="url(#paint12_linear)"/>
<path opacity="0.5" d="M38.4037 20.8259C38.4649 20.7749 37.8194 19.8433 37.1821 19.7377C36.5447 19.6321 36.3856 22.8183 36.3856 23.9335C36.3856 25.0486 36.4388 34.3707 35.8013 35.672C35.1638 36.9734 33.5173 36.894 33.1189 37.5842C32.7205 38.2744 33.1454 40.479 34.978 40.4524C36.8105 40.4259 36.8901 38.4342 37.262 38.1155C37.6339 37.7969 37.7398 37.292 37.4744 36.9468C37.2089 36.6017 38.1375 29.0592 38.1117 26.191C38.0858 23.3227 36.7838 22.1812 38.4037 20.8259Z" fill="url(#paint13_linear)"/>
<g opacity="0.5">
<path opacity="0.5" d="M42.3741 23.0393C42.3031 22.9152 42.3911 22.2956 42.1439 22.0123C41.8967 21.729 41.1526 22.1361 40.4618 21.4455C39.7711 20.755 39.5057 18.8962 39.5057 18.8962C39.5057 18.8962 38.7504 19.2965 38.529 20.7735C38.6259 20.6735 38.699 20.7565 38.7883 21.0517C38.9073 21.4501 39.0944 22.1806 39.3593 22.5125C39.623 22.8417 39.8864 23.2626 40.2146 23.7618C40.2198 23.7698 40.2243 23.7782 40.2279 23.787C40.336 24.0404 40.611 24.3922 40.6606 24.5046C40.7327 24.6666 42.4121 24.2094 43.6058 23.8101C43.2092 23.1757 42.4367 23.1492 42.3741 23.0393Z" fill="url(#paint14_linear)"/>
</g>
<g opacity="0.4">
<path opacity="0.4" d="M50.1663 20.2781C50.1975 20.1339 50.2111 20.0489 50.2173 19.9996C50.2218 19.9604 50.2123 19.9209 50.1905 19.888L49.7213 19.173C49.7036 19.1434 49.694 19.1096 49.6936 19.075C49.6801 19.0162 49.6559 18.9604 49.6222 18.9103C49.5622 18.7975 49.4844 18.6951 49.3916 18.6073C49.3685 18.5866 49.3516 18.5599 49.3426 18.5302L49.2143 18.0859C49.2118 18.0777 49.2088 18.0696 49.2053 18.0618L45.4039 9.88933C45.4011 9.88348 45.3979 9.8778 45.3944 9.87233C45.3349 9.77574 44.7665 8.85292 44.6027 8.5261C44.5128 8.32451 44.4365 8.1171 44.3745 7.90527C44.3514 8.34815 44.3742 8.79224 44.4425 9.23042C44.6552 10.6115 46.6471 14.967 46.9921 16.2948C47.3372 17.6227 46.4876 18.0213 46.8595 18.7912C47.2314 19.5612 48.0546 19.4544 48.0811 19.8271C48.101 20.1084 47.4836 21.3915 47.3766 22.3802C47.6726 22.2442 47.9609 22.0923 48.2403 21.925C48.9709 21.4599 50.0998 20.5835 50.1663 20.2781Z" fill="url(#paint15_linear)"/>
</g>
<path opacity="0.2" d="M40.369 23.6941C40.369 23.6941 41.0063 23.8798 42.9984 22.977C44.9904 22.0742 47.8851 20.5338 48.7615 20.1087C49.6379 19.6836 49.8235 19.0466 49.8235 19.0466" stroke="#707070" stroke-width="0.304" stroke-miterlimit="10" stroke-linecap="round"/>
<path opacity="0.2" d="M21.4332 24.8627C21.4332 24.8627 20.6363 32.3522 20.6363 35.5392C20.6363 38.7261 20.2647 38.1947 22.5484 40.8506C24.8321 43.5065 28.5509 46.3748 32.3748 45.5247C36.1987 44.6747 32.0085 44.0491 30.4627 42.3378C27.4885 39.0448 28.2319 39.5758 25.895 35.0079C24.4362 32.1568 25.9482 27.8374 25.2577 25.2347C24.5671 22.6321 23.0799 20.5074 21.4332 24.8627Z" fill="url(#paint16_linear)"/>
<path opacity="0.3" d="M27.8605 25.1286C27.8605 25.1286 28.4448 31.343 29.9318 34.583C31.4188 37.823 33.0655 38.9383 34.2339 39.3634C35.4022 39.7885 35.9333 38.832 35.6678 38.0354C35.4024 37.2387 32.6411 35.8577 32.6411 32.1926C32.6411 28.5275 31.5785 24.0662 27.8605 25.1286Z" fill="url(#paint17_linear)"/>
<path opacity="0.2" d="M17.609 42.3376C17.609 42.3376 16.5112 44.8519 16.7236 46.4453C16.9359 48.0388 19.3441 49.7385 22.1415 49.5615C24.9388 49.3845 27.2053 48.7113 27.0283 48.1097C26.8513 47.5081 22.8147 45.2414 21.859 43.6833C20.9034 42.1252 18.8838 39.5758 17.609 42.3376Z" fill="url(#paint18_linear)"/>
<path style="mix-blend-mode:multiply" opacity="0.5" d="M11.5451 18.396C11.5451 18.396 10.4386 18.0814 10.0667 19.0376C9.69482 19.9937 9.90721 20.9497 9.35831 21.7467C8.80941 22.5437 6.37491 24.0933 6.37491 24.0933C6.65497 24.2538 6.95191 24.383 7.26032 24.4784C7.63646 24.5711 8.4246 24.8238 8.95565 24.7614C9.22798 24.739 9.49525 24.6748 9.74804 24.5711C9.74804 24.5711 10.8193 22.3933 10.9477 22.0261C11.0164 21.8726 11.0539 21.7071 11.0582 21.5391L11.5228 19.9056L11.5451 18.396Z" fill="url(#paint19_linear)"/>
<path opacity="0.5" d="M19.9645 2.69599C19.9645 2.69599 21.2926 3.63429 25.1522 3.58022C29.0118 3.52614 30.2161 2.53564 30.2161 2.53564" stroke="#B5C4C7" stroke-width="0.304" stroke-miterlimit="10"/>
<path opacity="0.4" d="M18.6712 3.93506C18.6712 3.93506 19.9722 8.37028 24.9919 8.39681C30.0115 8.42334 31.5249 4.14778 31.5249 4.14778" stroke="#B5C4C7" stroke-width="0.304" stroke-miterlimit="10"/>
<path style="mix-blend-mode:multiply" opacity="0.2" d="M38.5099 20.109L38.8818 18.6218C38.8818 18.6218 37.2086 15.5146 36.0931 14.6382C36.2522 13.55 38.7752 16.2846 39.2535 16.9484C39.7318 17.6123 39.5721 18.5419 39.5721 18.5419L38.5099 20.109Z" fill="url(#paint20_linear)"/>
<path opacity="0.7" d="M7.80922 8.83521C8.02161 9.28684 7.43734 9.88437 7.71621 10.7473C7.99508 11.6103 8.83186 13.4294 8.68545 13.5891C8.53905 13.7488 7.70295 10.5224 7.25165 10.3489C6.80036 10.1755 6.6276 10.5084 6.78676 11.4114C6.94592 12.3143 7.68968 15.1958 7.57031 15.6075C7.45094 16.0192 7.03893 15.7002 6.93299 14.2397C6.82706 12.7792 6.3222 11.2252 6.29567 10.8138C6.26915 10.4025 5.97701 10.9995 5.84404 10.6411C5.71107 10.2826 6.98588 9.15387 7.0124 8.56977C7.03893 7.98568 7.80922 8.83521 7.80922 8.83521Z" fill="url(#paint21_linear)"/>
<path style="mix-blend-mode:multiply" opacity="0.2" d="M39.8247 17.772C39.8247 17.772 39.9971 16.6431 40.2631 16.152C40.529 15.6609 40.8341 16.1785 41.4449 16.3112C42.0557 16.4438 42.3345 16.6565 42.1883 17.1081C42.0421 17.5598 41.4981 17.4142 40.8208 17.9181C40.1435 18.4219 38.789 20.4145 38.8157 21.198C38.7136 20.9384 38.6294 20.6721 38.5635 20.401C38.5635 20.401 39.6518 18.8473 39.8247 17.772Z" fill="url(#paint22_linear)"/>
<path opacity="0.5" d="M10.1373 11.7784C10.1373 11.7784 10.9875 13.177 11.0934 14.3631C11.1994 15.5491 11.3058 16.8241 11.1997 16.9477C11.0936 17.0713 9.30508 14.8586 8.93354 13.7079C8.56199 12.5572 8.26051 11.4414 8.03027 11.5654C7.80003 11.6893 8.36678 13.495 8.96891 14.5751C9.57103 15.6552 11.0183 17.3723 11.4276 17.4521C11.8368 17.5318 11.3415 12.9992 11.0404 12.6098C10.7709 12.3002 10.468 12.0214 10.1373 11.7784Z" fill="url(#paint23_linear)"/>
<g opacity="0.8">
<path opacity="0.8" d="M15.2564 52.9477C14.1411 52.3104 15.4691 51.5134 13.8224 49.7075C12.1757 47.9017 14.0348 43.4399 14.3003 42.2183C14.5657 40.9968 14.6721 40.6249 13.6101 39.0314C12.548 37.4379 14.0879 28.3549 14.4603 26.0709C14.8327 23.7869 14.8854 22.8843 13.876 21.8219C12.8666 20.7595 12.6007 18.7412 12.6007 18.7412L11.6267 16.8997L11.5025 20.5411C11.5419 20.5438 11.5789 20.5605 11.607 20.5882C11.6351 20.6159 11.6523 20.6527 11.6556 20.692L11.6573 20.7062C11.7105 21.1978 11.6838 21.9016 11.7105 22.1671C11.7372 22.4325 12.2283 31.6349 12.215 31.9935C12.2345 32.4734 12.2783 32.952 12.3461 33.4275C12.3472 33.4364 12.3475 33.4454 12.3471 33.4543C12.3369 33.7713 12.1499 39.5561 12.2016 39.8014C12.2548 40.0539 12.2281 40.1074 12.1883 40.4521C12.1485 40.7968 12.0159 43.6258 11.9759 44.0642C11.936 44.5025 11.6173 48.5126 11.5243 49.6278C11.4313 50.7429 11.5643 51.8055 11.4446 52.4296C11.3248 53.0536 11.2987 53.5452 11.5775 53.7576C11.8564 53.97 13.3305 54.2492 14.0474 54.289C14.4514 54.3114 15.3397 54.3631 16.1131 54.4068C16.0561 53.9081 15.8556 53.2903 15.2564 52.9477Z" fill="url(#paint24_linear)"/>
</g>
<path opacity="0.2" d="M37.2264 45.5957C37.2264 45.5957 38.5358 51.4382 36.9784 52.6776C35.4209 53.9171 30.2151 53.5631 26.8865 53.4214C23.5579 53.2798 22.0707 53.1028 21.8937 51.9696C21.7167 50.8364 22.6018 50.5531 23.6281 50.4115C24.6545 50.2698 25.1859 51.6509 27.7355 51.8279C30.2851 52.005 31.2768 50.0217 32.8346 48.11C34.3923 46.1982 37.2264 45.5957 37.2264 45.5957Z" fill="url(#paint25_linear)"/>
<path style="mix-blend-mode:multiply" opacity="0.5" d="M40.1166 16.9219C40.0747 17.2649 39.9992 17.6029 39.891 17.9311C39.7646 18.1967 39.2669 18.8012 38.9814 19.186C38.6959 19.5708 38.4898 20.4208 38.5963 20.7262C38.6228 20.4275 38.583 19.724 39.0343 19.3786C39.4856 19.0333 39.5723 19.0333 39.5723 19.0333L39.0942 19.2123C39.0942 19.2123 39.9104 18.2431 40.0104 17.9642C40.1103 17.6854 40.1166 16.9219 40.1166 16.9219Z" fill="url(#paint26_linear)"/>
<g style="mix-blend-mode:multiply" opacity="0.5">
<path d="M11.4832 52.8545C11.4832 52.8545 11.9083 53.3859 15.8033 53.7047C19.6983 54.0235 23.9823 53.9876 25.0808 54.0587C26.1793 54.1298 29.7549 54.2004 31.3484 54.2711C32.9419 54.3418 37.1203 53.9524 38.2533 53.2798" stroke="#707070" stroke-width="0.152" stroke-miterlimit="10"/>
</g>
<defs>
<linearGradient id="paint0_linear" x1="0.010437" y1="28.0379" x2="50.2221" y2="28.0379" gradientUnits="userSpaceOnUse">
<stop stop-color="#B8C2CC"/>
<stop offset="0.077" stop-color="#C7CFD7"/>
<stop offset="0.187" stop-color="#D6DCE1"/>
<stop offset="0.317" stop-color="#DFE3E8"/>
<stop offset="0.514" stop-color="#E2E6EA"/>
<stop offset="0.774" stop-color="#E0E4E8"/>
<stop offset="0.868" stop-color="#D9DEE3"/>
<stop offset="0.934" stop-color="#CDD4DB"/>
<stop offset="0.988" stop-color="#BCC6CF"/>
<stop offset="1" stop-color="#B8C2CC"/>
</linearGradient>
<linearGradient id="paint1_linear" x1="25.1059" y1="55.0944" x2="25.1059" y2="0.980713" gradientUnits="userSpaceOnUse">
<stop stop-color="#B8C2CC"/>
<stop offset="0.006" stop-color="#B9C3CC" stop-opacity="0.969"/>
<stop offset="0.052" stop-color="#C1CAD2" stop-opacity="0.769"/>
<stop offset="0.103" stop-color="#C9D0D8" stop-opacity="0.584"/>
<stop offset="0.158" stop-color="#D0D6DD" stop-opacity="0.424"/>
<stop offset="0.22" stop-color="#D5DBE1" stop-opacity="0.29"/>
<stop offset="0.289" stop-color="#DADFE4" stop-opacity="0.184"/>
<stop offset="0.37" stop-color="#DDE2E6" stop-opacity="0.102"/>
<stop offset="0.47" stop-color="#E0E4E8" stop-opacity="0.043"/>
<stop offset="0.61" stop-color="#E1E5E9" stop-opacity="0.01"/>
<stop offset="1" stop-color="#E2E6EA" stop-opacity="0"/>
</linearGradient>
<linearGradient id="paint2_linear" x1="25.1165" y1="33.6316" x2="25.1165" y2="-34.316" gradientUnits="userSpaceOnUse">
<stop stop-color="white" stop-opacity="0"/>
<stop offset="0.007" stop-color="white" stop-opacity="0.035"/>
<stop offset="0.048" stop-color="white" stop-opacity="0.216"/>
<stop offset="0.093" stop-color="white" stop-opacity="0.384"/>
<stop offset="0.142" stop-color="white" stop-opacity="0.533"/>
<stop offset="0.195" stop-color="white" stop-opacity="0.659"/>
<stop offset="0.254" stop-color="white" stop-opacity="0.769"/>
<stop offset="0.32" stop-color="white" stop-opacity="0.855"/>
<stop offset="0.397" stop-color="white" stop-opacity="0.922"/>
<stop offset="0.493" stop-color="white" stop-opacity="0.965"/>
<stop offset="0.627" stop-color="white" stop-opacity="0.992"/>
<stop offset="1" stop-color="white"/>
</linearGradient>
<linearGradient id="paint3_linear" x1="19.6163" y1="4.46831" x2="30.9323" y2="4.46831" gradientUnits="userSpaceOnUse">
<stop stop-color="#B0BCC7"/>
<stop offset="0.179" stop-color="#D3DAE0"/>
<stop offset="0.522" stop-color="#EEF1F5"/>
<stop offset="0.651" stop-color="#EBEEF2"/>
<stop offset="0.746" stop-color="#E1E6EB"/>
<stop offset="0.83" stop-color="#D1D9DF"/>
<stop offset="0.86" stop-color="#CAD3DA"/>
<stop offset="1" stop-color="#B0BCC7"/>
</linearGradient>
<radialGradient id="paint4_radial" cx="0" cy="0" r="1" gradientUnits="userSpaceOnUse" gradientTransform="translate(8.17267 -6.22433) rotate(-11.75) scale(7.20699 4.27374)">
<stop offset="0.022" stop-color="#EEF1F5"/>
<stop offset="0.304" stop-color="#EBEEF2"/>
<stop offset="0.392" stop-color="#E8ECF0"/>
<stop offset="0.521" stop-color="#E2E7EB"/>
<stop offset="0.687" stop-color="#D2D9DF"/>
<stop offset="0.871" stop-color="#B8C4CC"/>
<stop offset="1" stop-color="#A2B1BB"/>
</radialGradient>
<radialGradient id="paint5_radial" cx="0" cy="0" r="1" gradientUnits="userSpaceOnUse" gradientTransform="translate(15.0734 2.47434) scale(8.86785 8.87202)">
<stop stop-color="white"/>
<stop offset="1" stop-color="#DCE3E9"/>
</radialGradient>
<linearGradient id="paint6_linear" x1="6.09033" y1="5.84018" x2="4.77039" y2="23.1969" gradientUnits="userSpaceOnUse">
<stop stop-color="#C3CFDA"/>
<stop offset="1" stop-color="#C3CFDA" stop-opacity="0"/>
</linearGradient>
<linearGradient id="paint7_linear" x1="11.6026" y1="0.554546" x2="15.7792" y2="12.7816" gradientUnits="userSpaceOnUse">
<stop stop-color="#C3CFDA"/>
<stop offset="1" stop-color="#C3CFDA" stop-opacity="0"/>
</linearGradient>
<linearGradient id="paint8_linear" x1="13.352" y1="32.564" x2="24.6349" y2="42.1492" gradientUnits="userSpaceOnUse">
<stop stop-color="#C3CFDA"/>
<stop offset="1" stop-color="#C3CFDA" stop-opacity="0"/>
</linearGradient>
<linearGradient id="paint9_linear" x1="42.053" y1="7.73743" x2="47.9742" y2="13.9219" gradientUnits="userSpaceOnUse">
<stop stop-color="#C3CFDA"/>
<stop offset="1" stop-color="#C3CFDA" stop-opacity="0"/>
</linearGradient>
<linearGradient id="paint10_linear" x1="38.4942" y1="18.4925" x2="40.094" y2="18.6172" gradientUnits="userSpaceOnUse">
<stop offset="0.195" stop-color="#7591A9"/>
<stop offset="1" stop-color="#B0C0CE" stop-opacity="0"/>
</linearGradient>
<linearGradient id="paint11_linear" x1="12.3133" y1="16.9547" x2="10.2227" y2="16.9351" gradientUnits="userSpaceOnUse">
<stop offset="0.195" stop-color="#7591A9"/>
<stop offset="1" stop-color="#B0C0CE" stop-opacity="0"/>
</linearGradient>
<linearGradient id="paint12_linear" x1="15.619" y1="14.1234" x2="14.3285" y2="23.3428" gradientUnits="userSpaceOnUse">
<stop stop-color="#C3CFDA"/>
<stop offset="1" stop-color="#C3CFDA" stop-opacity="0"/>
</linearGradient>
<linearGradient id="paint13_linear" x1="32.9491" y1="17.2697" x2="41.806" y2="20.0086" gradientUnits="userSpaceOnUse">
<stop stop-color="#C3CFDA"/>
<stop offset="1" stop-color="#C3CFDA" stop-opacity="0"/>
</linearGradient>
<linearGradient id="paint14_linear" x1="39.1331" y1="22.8794" x2="42.3114" y2="21.2554" gradientUnits="userSpaceOnUse">
<stop stop-color="#C3CFDA"/>
<stop offset="1" stop-color="#C3CFDA" stop-opacity="0"/>
</linearGradient>
<linearGradient id="paint15_linear" x1="50.0663" y1="14.9835" x2="44.4056" y2="15.019" gradientUnits="userSpaceOnUse">
<stop stop-color="#C3CFDA"/>
<stop offset="1" stop-color="#C3CFDA" stop-opacity="0"/>
</linearGradient>
<linearGradient id="paint16_linear" x1="27.2771" y1="45.677" x2="27.2771" y2="22.3594" gradientUnits="userSpaceOnUse">
<stop stop-color="white"/>
<stop offset="0.201" stop-color="white" stop-opacity="0.82"/>
<stop offset="0.653" stop-color="white" stop-opacity="0.365"/>
<stop offset="1" stop-color="white" stop-opacity="0"/>
</linearGradient>
<linearGradient id="paint17_linear" x1="31.7977" y1="39.468" x2="31.7977" y2="24.9692" gradientUnits="userSpaceOnUse">
<stop stop-color="white"/>
<stop offset="0.201" stop-color="white" stop-opacity="0.82"/>
<stop offset="0.653" stop-color="white" stop-opacity="0.365"/>
<stop offset="1" stop-color="white" stop-opacity="0"/>
</linearGradient>
<linearGradient id="paint18_linear" x1="21.8672" y1="49.5743" x2="21.8672" y2="41.1113" gradientUnits="userSpaceOnUse">
<stop stop-color="white"/>
<stop offset="0.201" stop-color="white" stop-opacity="0.82"/>
<stop offset="0.653" stop-color="white" stop-opacity="0.365"/>
<stop offset="1" stop-color="white" stop-opacity="0"/>
</linearGradient>
<linearGradient id="paint19_linear" x1="12.274" y1="22.3683" x2="6.94872" y2="21.2533" gradientUnits="userSpaceOnUse">
<stop stop-color="#C3CFDA"/>
<stop offset="1" stop-color="#C3CFDA" stop-opacity="0"/>
</linearGradient>
<linearGradient id="paint20_linear" x1="38.2309" y1="13.6755" x2="36.1082" y2="19.5057" gradientUnits="userSpaceOnUse">
<stop stop-color="#C3CFDA"/>
<stop offset="1" stop-color="#C3CFDA" stop-opacity="0"/>
</linearGradient>
<linearGradient id="paint21_linear" x1="7.93383" y1="7.16457" x2="3.15478" y2="12.419" gradientUnits="userSpaceOnUse">
<stop stop-color="#C3CFDA"/>
<stop offset="1" stop-color="#C3CFDA" stop-opacity="0"/>
</linearGradient>
<linearGradient id="paint22_linear" x1="40.8932" y1="15.02" x2="39.1746" y2="21.1377" gradientUnits="userSpaceOnUse">
<stop stop-color="#C3CFDA"/>
<stop offset="1" stop-color="#C3CFDA" stop-opacity="0"/>
</linearGradient>
<linearGradient id="paint23_linear" x1="10.2598" y1="10.8188" x2="8.11384" y2="16.7222" gradientUnits="userSpaceOnUse">
<stop stop-color="#C3CFDA"/>
<stop offset="1" stop-color="#C3CFDA" stop-opacity="0"/>
</linearGradient>
<linearGradient id="paint24_linear" x1="12.3239" y1="35.5407" x2="15.1959" y2="35.5449" gradientUnits="userSpaceOnUse">
<stop stop-color="#C3CFDA"/>
<stop offset="1" stop-color="#C3CFDA" stop-opacity="0"/>
</linearGradient>
<linearGradient id="paint25_linear" x1="27.6637" y1="44.3823" x2="29.1084" y2="57.7782" gradientUnits="userSpaceOnUse">
<stop stop-color="white" stop-opacity="0"/>
<stop offset="0.347" stop-color="white" stop-opacity="0.365"/>
<stop offset="0.799" stop-color="white" stop-opacity="0.82"/>
<stop offset="1" stop-color="white"/>
</linearGradient>
<linearGradient id="paint26_linear" x1="38.2178" y1="16.1496" x2="41.738" y2="17.5188" gradientUnits="userSpaceOnUse">
<stop stop-color="#61819E"/>
<stop offset="1" stop-color="#C3CFDA" stop-opacity="0"/>
</linearGradient>
</defs>
</svg>
