<svg width="84" height="55" viewBox="0 0 84 55" fill="none" xmlns="http://www.w3.org/2000/svg">
<path fill-rule="evenodd" clip-rule="evenodd" d="M48.595 18.3618L51.6489 21.4157L50.3876 22.6769V27.0689H48.595V18.3618Z" fill="#829AB1"/>
<path fill-rule="evenodd" clip-rule="evenodd" d="M5.48186 18.3618V27.0689H3.68921V22.6769L2.42798 21.4157L5.48186 18.3618Z" fill="#829AB1"/>
<path fill-rule="evenodd" clip-rule="evenodd" d="M14.8036 2.15112C14.8036 8.91635 20.2285 14.3412 26.9937 14.3412C33.7589 14.3412 39.1838 8.91635 39.1838 2.15112H40.9764C40.9764 9.90641 34.749 16.1338 26.9937 16.1338C19.2384 16.1338 13.011 9.90641 13.011 2.15112H14.8036Z" fill="#829AB1"/>
<path fill-rule="evenodd" clip-rule="evenodd" d="M26.0972 13.9824V11.9209H27.8898V13.9824H26.0972Z" fill="#829AB1"/>
<path fill-rule="evenodd" clip-rule="evenodd" d="M26.0972 44.8164V15.2375H27.8898V44.8164H26.0972Z" fill="#829AB1"/>
<path d="M29.4136 21.6909C29.7601 21.6909 30.041 21.41 30.041 21.0635C30.041 20.7169 29.7601 20.436 29.4136 20.436C29.067 20.436 28.7861 20.7169 28.7861 21.0635C28.7861 21.41 29.067 21.6909 29.4136 21.6909Z" fill="#555F66"/>
<path fill-rule="evenodd" clip-rule="evenodd" d="M29.4136 20.7946C29.2651 20.7946 29.1447 20.915 29.1447 21.0635C29.1447 21.212 29.2651 21.3324 29.4136 21.3324C29.5621 21.3324 29.6825 21.212 29.6825 21.0635C29.6825 20.915 29.5621 20.7946 29.4136 20.7946ZM30.041 21.0635C30.041 21.41 29.7601 21.6909 29.4136 21.6909C29.067 21.6909 28.7861 21.41 28.7861 21.0635C28.7861 20.7169 29.067 20.436 29.4136 20.436C29.7601 20.436 30.041 20.7169 30.041 21.0635Z" fill="#829AB1"/>
<path d="M29.4136 28.2341C29.7601 28.2341 30.041 27.9532 30.041 27.6067C30.041 27.2602 29.7601 26.9792 29.4136 26.9792C29.067 26.9792 28.7861 27.2602 28.7861 27.6067C28.7861 27.9532 29.067 28.2341 29.4136 28.2341Z" fill="#555F66"/>
<path fill-rule="evenodd" clip-rule="evenodd" d="M29.4136 27.3378C29.2651 27.3378 29.1447 27.4582 29.1447 27.6067C29.1447 27.7552 29.2651 27.8756 29.4136 27.8756C29.5621 27.8756 29.6825 27.7552 29.6825 27.6067C29.6825 27.4582 29.5621 27.3378 29.4136 27.3378ZM30.041 27.6067C30.041 27.9532 29.7601 28.2341 29.4136 28.2341C29.067 28.2341 28.7861 27.9532 28.7861 27.6067C28.7861 27.2602 29.067 26.9792 29.4136 26.9792C29.7601 26.9792 30.041 27.2602 30.041 27.6067Z" fill="#829AB1"/>
<path d="M29.4136 34.7773C29.7601 34.7773 30.041 34.4964 30.041 34.1499C30.041 33.8034 29.7601 33.5225 29.4136 33.5225C29.067 33.5225 28.7861 33.8034 28.7861 34.1499C28.7861 34.4964 29.067 34.7773 29.4136 34.7773Z" fill="#555F66"/>
<path fill-rule="evenodd" clip-rule="evenodd" d="M29.4136 33.881C29.2651 33.881 29.1447 34.0014 29.1447 34.1499C29.1447 34.2984 29.2651 34.4188 29.4136 34.4188C29.5621 34.4188 29.6825 34.2984 29.6825 34.1499C29.6825 34.0014 29.5621 33.881 29.4136 33.881ZM30.041 34.1499C30.041 34.4964 29.7601 34.7773 29.4136 34.7773C29.067 34.7773 28.7861 34.4964 28.7861 34.1499C28.7861 33.8034 29.067 33.5225 29.4136 33.5225C29.7601 33.5225 30.041 33.8034 30.041 34.1499Z" fill="#829AB1"/>
<path d="M29.4136 41.3208C29.7601 41.3208 30.041 41.0399 30.041 40.6933C30.041 40.3468 29.7601 40.0659 29.4136 40.0659C29.067 40.0659 28.7861 40.3468 28.7861 40.6933C28.7861 41.0399 29.067 41.3208 29.4136 41.3208Z" fill="#555F66"/>
<path fill-rule="evenodd" clip-rule="evenodd" d="M29.4136 40.4244C29.2651 40.4244 29.1447 40.5448 29.1447 40.6933C29.1447 40.8419 29.2651 40.9622 29.4136 40.9622C29.5621 40.9622 29.6825 40.8419 29.6825 40.6933C29.6825 40.5448 29.5621 40.4244 29.4136 40.4244ZM30.041 40.6933C30.041 41.0399 29.7601 41.3208 29.4136 41.3208C29.067 41.3208 28.7861 41.0399 28.7861 40.6933C28.7861 40.3468 29.067 40.0659 29.4136 40.0659C29.7601 40.0659 30.041 40.3468 30.041 40.6933Z" fill="#829AB1"/>
<path fill-rule="evenodd" clip-rule="evenodd" d="M28.0671 12.8131C22.1993 13.399 16.919 9.09831 16.3318 3.22623L18.1155 3.04785C18.6039 7.93114 23.0029 11.5179 27.8904 11.0292L27.8938 11.0288C32.1275 10.6218 35.4643 7.28495 35.8714 3.05125L37.6558 3.22283C37.1667 8.31038 33.1544 12.3231 28.0671 12.8131Z" fill="#829AB1"/>
<path fill-rule="evenodd" clip-rule="evenodd" d="M16.8761 0H18.5509L18.8057 0.227076C23.3957 4.31632 30.2328 4.31632 34.8228 0.227076L35.0776 0H36.7524L39.9792 1.25486H49.9523L52.7245 4.02711L52.0907 4.66091L52.7793 4.08709C53.3241 4.74093 53.721 5.58769 53.6145 6.59442V23.1253C53.6145 24.03 53.2848 24.9783 52.6552 25.6209L50.7462 27.7684V43.5615C50.7462 45.3801 49.2901 46.9676 47.3402 46.9676H6.64687C4.80735 46.9676 3.24082 45.4011 3.24082 43.5615V27.8885L0.964882 25.6126L0.938854 25.5814C0.379208 24.9098 0.0140423 24.085 0.0140423 23.1253V6.59348C-0.0952546 5.52541 0.454315 4.66854 0.938854 4.08709L0.964882 4.05586L3.76588 1.25486H13.6493L16.8761 0ZM51.4262 5.26403L49.2097 3.04752H39.6429L36.4161 1.79266H35.7541C30.5763 6.18466 23.0522 6.18466 17.8745 1.79266H17.2124L13.9856 3.04752H4.50842L2.29121 5.26473C1.907 5.7335 1.75844 6.10134 1.79978 6.43202L1.8067 6.48739V23.1253C1.8067 23.5882 1.9711 24.0089 2.29193 24.4045L5.03348 27.146V43.5615C5.03348 44.411 5.79741 45.1749 6.64687 45.1749H47.3402C48.2585 45.1749 48.9536 44.432 48.9536 43.5615V27.0869L51.3486 24.3924L51.3673 24.3738C51.6208 24.1203 51.8218 23.645 51.8218 23.1253V6.48739L51.8287 6.43202C51.8777 6.04058 51.7492 5.6621 51.4262 5.26403Z" fill="#829AB1"/>
<path d="M80.056 39.6176V51.0009C80.056 52.704 78.7115 54.0485 77.0085 54.0485H46.2645C44.5614 54.0485 43.217 52.704 43.217 51.0009V39.6176L40.7072 37.1079C40.3487 36.7493 40.1694 36.3012 40.1694 35.7634V23.7526C40.1694 23.3044 40.3487 22.7666 40.7072 22.4081L43.217 19.8984H52.4491V17.3886C52.4491 16.6716 52.9869 16.1338 53.704 16.1338H69.569C70.2861 16.1338 70.8239 16.6716 70.8239 17.299V19.7191H80.056L82.5658 22.2288C82.9243 22.5874 83.1036 23.0355 83.1036 23.5733V35.5841C83.1036 36.0323 82.9243 36.5701 82.5658 36.9286L80.056 39.6176Z" fill="white"/>
<path fill-rule="evenodd" clip-rule="evenodd" d="M44.0239 34.9568V39.6177H42.2312V34.9568H44.0239Z" fill="#829AB1"/>
<path fill-rule="evenodd" clip-rule="evenodd" d="M60.6956 52.2558V24.8281H62.4882V52.2558H60.6956Z" fill="#829AB1"/>
<path fill-rule="evenodd" clip-rule="evenodd" d="M53.3823 18.4901L54.3847 17.0039L61.5919 21.8646L68.7992 17.0039L69.8015 18.4901L61.5919 24.0268L53.3823 18.4901Z" fill="#829AB1"/>
<path fill-rule="evenodd" clip-rule="evenodd" d="M51.7261 20.5322L52.9937 19.2646L58.5445 24.8155L61.592 21.768L64.6396 24.8155L70.1904 19.2646L71.458 20.5322L64.6396 27.3507L61.592 24.3032L58.5445 27.3507L51.7261 20.5322Z" fill="#829AB1"/>
<path fill-rule="evenodd" clip-rule="evenodd" d="M53.7041 17.0302C53.482 17.0302 53.3455 17.1667 53.3455 17.3887V20.7948H43.5883L41.3411 23.042C41.176 23.2071 41.0658 23.5038 41.0658 23.7527V35.7635C41.0658 36.0795 41.1617 36.2947 41.3411 36.4742L44.1134 39.2464V51.001C44.1134 52.209 45.0566 53.1522 46.2646 53.1522H77.0086C78.2166 53.1522 79.1598 52.209 79.1598 51.001V39.6177H80.0561L79.4009 39.0061L81.9211 36.3058L81.932 36.2949C82.0971 36.1298 82.2073 35.8331 82.2073 35.5842V23.5734C82.2073 23.2573 82.1115 23.0422 81.932 22.8627L79.6848 20.6155H69.9276V17.2991C69.9276 17.2095 69.835 17.0302 69.5691 17.0302H53.7041ZM80.9524 39.971V51.001C80.9524 53.1991 79.2067 54.9449 77.0086 54.9449H46.2646C44.0665 54.9449 42.3207 53.1991 42.3207 51.001V39.9889L40.0735 37.7418C39.5359 37.2041 39.2732 36.523 39.2732 35.7635V23.7527C39.2732 23.1052 39.5215 22.3264 40.0735 21.7744L42.8458 19.0021H51.5529V17.3887C51.5529 16.1766 52.492 15.2375 53.7041 15.2375H69.5691C70.7373 15.2375 71.7203 16.1339 71.7203 17.2991V18.8229H80.4274L83.1996 21.5951C83.7373 22.1327 84 22.8139 84 23.5734V35.5842C84 36.2269 83.7553 36.9991 83.2118 37.5503L80.9524 39.971Z" fill="#829AB1"/>
<path fill-rule="evenodd" clip-rule="evenodd" d="M71.6306 32.7927L77.3798 38.542H65.8813L71.6306 32.7927ZM70.2092 36.7493H73.052L71.6306 35.3279L70.2092 36.7493Z" fill="#007BFF"/>
<path fill-rule="evenodd" clip-rule="evenodd" d="M77.3673 38.5422H65.8943V36.7495H77.3673V38.5422Z" fill="#829AB1"/>
</svg>
