<svg width="40" height="40" viewBox="0 0 40 40"  xmlns="http://www.w3.org/2000/svg">
<path d="M32.809 36.6666H24.7859C24.4796 36.6659 24.1861 36.5436 23.97 36.3266L22.2701 34.6268C22.0532 34.4106 21.9309 34.1172 21.9302 33.8109V15.3679C21.9309 15.0616 22.0532 14.7682 22.2701 14.552L23.97 12.8522C24.1861 12.6352 24.4796 12.513 24.7859 12.5122H32.826C33.1323 12.513 33.4257 12.6352 33.6419 12.8522L35.3417 14.552C35.5587 14.7682 35.6809 15.0616 35.6817 15.3679V33.8109C35.6809 34.1172 35.5587 34.4106 35.3417 34.6268L33.6419 36.3266C33.5329 36.4361 33.403 36.5226 33.2599 36.581C33.1168 36.6394 32.9635 36.6685 32.809 36.6666ZM27.5056 31.9241H30.0723C30.2977 31.9241 30.5139 31.8346 30.6733 31.6752C30.8327 31.5158 30.9222 31.2996 30.9222 31.0742V18.1046C30.9222 17.8792 30.8327 17.663 30.6733 17.5036C30.5139 17.3442 30.2977 17.2547 30.0723 17.2547H27.5226C27.2972 17.2547 27.081 17.3442 26.9216 17.5036C26.7622 17.663 26.6727 17.8792 26.6727 18.1046V31.0742C26.6727 31.2996 26.7622 31.5158 26.9216 31.6752C27.081 31.8346 27.2972 31.9241 27.5226 31.9241H27.5056Z" />
<path d="M15.8958 36.6666H7.85569C7.54942 36.6659 7.25597 36.5436 7.03978 36.3266L5.33996 34.6268C5.12302 34.4106 5.00075 34.1172 5 33.8109V15.3679C5.00075 15.0616 5.12302 14.7682 5.33996 14.552L7.03978 12.8522C7.25597 12.6352 7.54942 12.513 7.85569 12.5122H15.8958C16.2021 12.513 16.4956 12.6352 16.7117 12.8522L18.4116 14.552C18.6285 14.7682 18.7508 15.0616 18.7515 15.3679V33.8109C18.7508 34.1172 18.6285 34.4106 18.4116 34.6268L16.7117 36.3266C16.4956 36.5436 16.2021 36.6659 15.8958 36.6666ZM10.5924 31.9241H13.1591C13.3845 31.9241 13.6007 31.8346 13.7601 31.6752C13.9195 31.5158 14.009 31.2996 14.009 31.0742V18.1046C14.009 17.8792 13.9195 17.663 13.7601 17.5036C13.6007 17.3442 13.3845 17.2547 13.1591 17.2547H10.5924C10.367 17.2547 10.1508 17.3442 9.99142 17.5036C9.83203 17.663 9.74249 17.8792 9.74249 18.1046V31.0742C9.74249 31.2996 9.83203 31.5158 9.99142 31.6752C10.1508 31.8346 10.367 31.9241 10.5924 31.9241Z" />
<path d="M8.6755 7.05499V4.50756H8.42122C8.2178 4.50756 8.07139 4.46749 7.98201 4.38736C7.89571 4.30722 7.85256 4.17777 7.85256 3.999C7.85256 3.82024 7.89571 3.69079 7.98201 3.61065C8.07139 3.52743 8.2178 3.48582 8.42122 3.48582H9.73423C9.93457 3.48582 10.0794 3.52743 10.1688 3.61065C10.2582 3.69079 10.3029 3.82024 10.3029 3.999C10.3029 4.16236 10.2597 4.28873 10.1734 4.37811C10.0902 4.46441 9.97002 4.50756 9.81283 4.50756H9.73423V8.70549C9.73423 8.85036 9.71882 8.94128 9.688 8.97827C9.65718 9.01525 9.58783 9.03375 9.47995 9.03375H9.01762C8.86968 9.03375 8.76488 9.01834 8.70324 8.98751C8.64468 8.95669 8.59382 8.90275 8.55067 8.8257L6.62739 5.44609V7.95652H6.89554C7.09588 7.95652 7.2392 7.99505 7.32551 8.07211C7.41181 8.14916 7.45496 8.27707 7.45496 8.45584C7.45496 8.63769 7.41027 8.76868 7.32088 8.84882C7.23458 8.92895 7.0928 8.96902 6.89554 8.96902H5.56866C5.36832 8.96902 5.22346 8.92895 5.13407 8.84882C5.04469 8.76868 5 8.63769 5 8.45584C5 8.29248 5.04161 8.16919 5.12483 8.08598C5.20805 7.99967 5.33133 7.95652 5.49469 7.95652H5.56866V4.50756H5.49469C5.3375 4.50756 5.21575 4.46441 5.12945 4.37811C5.04315 4.28873 5 4.16236 5 3.999C5 3.82024 5.04469 3.69079 5.13407 3.61065C5.22654 3.52743 5.3714 3.48582 5.56866 3.48582H6.32688C6.50873 3.48582 6.63201 3.51048 6.69674 3.55979C6.76147 3.60603 6.8339 3.70157 6.91403 3.84644L8.6755 7.05499Z" />
<path d="M16.3771 7.95652H16.4557C16.6222 7.95652 16.7485 7.99967 16.8348 8.08598C16.9211 8.16919 16.9643 8.29248 16.9643 8.45584C16.9643 8.63769 16.9181 8.76868 16.8256 8.84882C16.7362 8.92895 16.5867 8.96902 16.3771 8.96902H14.9855C14.7729 8.96902 14.6218 8.93049 14.5324 8.85344C14.4431 8.7733 14.3984 8.64077 14.3984 8.45584C14.3984 8.27707 14.4431 8.14916 14.5324 8.07211C14.6218 7.99505 14.7729 7.95652 14.9855 7.95652H15.1473L14.9578 7.4156H12.9605L12.7617 7.95652H12.9235C13.1331 7.95652 13.2826 7.99659 13.372 8.07673C13.4645 8.15378 13.5107 8.28015 13.5107 8.45584C13.5107 8.63769 13.4645 8.76868 13.372 8.84882C13.2826 8.92895 13.1331 8.96902 12.9235 8.96902H11.7307C11.5181 8.96902 11.367 8.92895 11.2777 8.84882C11.1883 8.76868 11.1436 8.63769 11.1436 8.45584C11.1436 8.29248 11.1867 8.16919 11.273 8.08598C11.3593 7.99967 11.4857 7.95652 11.6521 7.95652H11.7307L12.9698 4.50756H12.5999C12.3903 4.50756 12.2393 4.46749 12.1468 4.38736C12.0575 4.30722 12.0128 4.17777 12.0128 3.999C12.0128 3.81715 12.0575 3.68616 12.1468 3.60603C12.2393 3.52589 12.3903 3.48582 12.5999 3.48582H14.3336C14.608 3.48582 14.8006 3.63376 14.9116 3.92965V3.94352L16.3771 7.95652ZM13.9545 4.50756L13.2842 6.45858H14.6249L13.9545 4.50756Z" />
<path d="M20.5004 6.60191L21.3834 3.98051C21.4389 3.80791 21.5159 3.68308 21.6146 3.60603C21.7132 3.52589 21.8442 3.48582 22.0075 3.48582H22.7288C22.9384 3.48582 23.0878 3.52589 23.1772 3.60603C23.2697 3.68616 23.3159 3.81715 23.3159 3.999C23.3159 4.16544 23.2712 4.29181 23.1818 4.37811C23.0955 4.46441 22.9692 4.50756 22.8027 4.50756H22.7288L22.8582 7.95652H22.9368C23.1033 7.95652 23.2281 7.99967 23.3113 8.08598C23.3945 8.16919 23.4361 8.29248 23.4361 8.45584C23.4361 8.63769 23.3914 8.76868 23.3021 8.84882C23.2158 8.92895 23.0678 8.96902 22.8582 8.96902H21.818C21.6084 8.96902 21.4589 8.93049 21.3695 8.85344C21.2832 8.7733 21.2401 8.64077 21.2401 8.45584C21.2401 8.29248 21.2817 8.16919 21.3649 8.08598C21.4512 7.99967 21.5776 7.95652 21.744 7.95652H21.818L21.7533 5.13633L21.0783 7.23529C21.0289 7.39249 20.9581 7.50653 20.8656 7.57742C20.7762 7.64522 20.6514 7.67913 20.4911 7.67913C20.3308 7.67913 20.2029 7.64522 20.1074 7.57742C20.0149 7.50653 19.944 7.39249 19.8947 7.23529L19.2243 5.13633L19.1596 7.95652H19.2336C19.4 7.95652 19.5248 7.99967 19.6081 8.08598C19.6944 8.16919 19.7375 8.29248 19.7375 8.45584C19.7375 8.63769 19.6928 8.76868 19.6034 8.84882C19.5141 8.92895 19.3661 8.96902 19.1596 8.96902H18.1147C17.9082 8.96902 17.7603 8.92895 17.6709 8.84882C17.5815 8.76868 17.5368 8.63769 17.5368 8.45584C17.5368 8.29248 17.5784 8.16919 17.6617 8.08598C17.748 7.99967 17.8743 7.95652 18.0408 7.95652H18.1147L18.2488 4.50756H18.1748C18.0084 4.50756 17.8805 4.46441 17.7911 4.37811C17.7048 4.29181 17.6617 4.16544 17.6617 3.999C17.6617 3.81715 17.7064 3.68616 17.7957 3.60603C17.8882 3.52589 18.0392 3.48582 18.2488 3.48582H18.97C19.1303 3.48582 19.2582 3.52435 19.3538 3.6014C19.4524 3.67846 19.5325 3.80483 19.5942 3.98051L20.5004 6.60191Z" />
<path d="M28.2621 4.46133H26.1123V5.64489H26.926V5.58941C26.926 5.41372 26.9645 5.28273 27.0415 5.19643C27.1186 5.11013 27.2357 5.06698 27.3929 5.06698C27.5316 5.06698 27.6441 5.10705 27.7304 5.18718C27.8198 5.26424 27.8645 5.36287 27.8645 5.48307C27.8645 5.48924 27.866 5.50927 27.8691 5.54318C27.8722 5.57708 27.8737 5.61098 27.8737 5.64489V6.60191C27.8737 6.80841 27.8367 6.95636 27.7628 7.04574C27.6888 7.13512 27.5686 7.17981 27.4022 7.17981C27.245 7.17981 27.1263 7.13821 27.0462 7.05499C26.966 6.97177 26.926 6.84848 26.926 6.68512V6.60191H26.1123V7.98426H28.2621V7.43409C28.2621 7.22759 28.3006 7.07964 28.3777 6.99026C28.4578 6.90088 28.5873 6.85619 28.766 6.85619C28.9417 6.85619 29.0665 6.90088 29.1405 6.99026C29.2176 7.07656 29.2561 7.22451 29.2561 7.43409V8.55293C29.2561 8.71936 29.2237 8.83032 29.159 8.8858C29.0943 8.94128 28.9664 8.96902 28.7753 8.96902H24.9888C24.7854 8.96902 24.639 8.92895 24.5496 8.84882C24.4633 8.76868 24.4201 8.63769 24.4201 8.45584C24.4201 8.29248 24.4618 8.16919 24.545 8.08598C24.6282 7.99967 24.7499 7.95652 24.9102 7.95652H24.9888V4.50756H24.9102C24.753 4.50756 24.6313 4.46441 24.545 4.37811C24.4618 4.28873 24.4201 4.16236 24.4201 3.999C24.4201 3.82024 24.4648 3.69079 24.5542 3.61065C24.6436 3.52743 24.7885 3.48582 24.9888 3.48582H28.7753C28.9633 3.48582 29.0897 3.5151 29.1544 3.57366C29.2222 3.62914 29.2561 3.74164 29.2561 3.91116V4.94677C29.2561 5.15636 29.2176 5.30739 29.1405 5.39985C29.0635 5.48924 28.9386 5.53393 28.766 5.53393C28.5873 5.53393 28.4578 5.4877 28.3777 5.39523C28.3006 5.30277 28.2621 5.15328 28.2621 4.94677V4.46133Z" />
<path d="M34.5351 3.59216C34.5814 3.49353 34.6338 3.42572 34.6923 3.38873C34.7509 3.35175 34.8403 3.33325 34.9605 3.33325C35.1392 3.33325 35.2533 3.36716 35.3026 3.43496C35.355 3.49969 35.3843 3.63068 35.3904 3.82794L35.4089 4.71561V4.76647C35.4089 4.94832 35.3719 5.07623 35.298 5.1502C35.2271 5.22109 35.1053 5.25653 34.9327 5.25653C34.7139 5.25653 34.5505 5.13941 34.4427 4.90516C34.4272 4.87126 34.4149 4.84352 34.4057 4.82195C34.3101 4.63085 34.1807 4.48753 34.0173 4.39198C33.854 4.29335 33.6613 4.24404 33.4394 4.24404C33.162 4.24404 32.937 4.30876 32.7644 4.43821C32.5949 4.56458 32.5101 4.72794 32.5101 4.92828C32.5101 5.21184 32.9016 5.4353 33.6844 5.59866C33.817 5.62639 33.9218 5.64797 33.9988 5.66338C34.5906 5.79283 35.019 5.99009 35.2841 6.25516C35.5492 6.52023 35.6817 6.88238 35.6817 7.34163C35.6817 7.90875 35.4891 8.34642 35.1038 8.65464C34.7185 8.95977 34.1668 9.11234 33.4487 9.11234C33.1682 9.11234 32.917 9.09385 32.6951 9.05686C32.4762 9.01988 32.2636 8.96286 32.0571 8.8858C32.0077 8.96594 31.9507 9.02296 31.886 9.05686C31.8213 9.09385 31.7319 9.11234 31.6178 9.11234C31.4237 9.11234 31.288 9.07536 31.211 9.00138C31.1339 8.92741 31.0939 8.79642 31.0908 8.60841L31.0723 7.52194V7.47108C31.0723 7.26766 31.1093 7.12588 31.1833 7.04574C31.2603 6.9656 31.3928 6.92553 31.5809 6.92553C31.7812 6.92553 31.9492 7.0704 32.0848 7.36012C32.1156 7.43101 32.1403 7.48495 32.1588 7.52194C32.279 7.75926 32.4454 7.93649 32.6581 8.05361C32.8738 8.17074 33.1374 8.2293 33.4487 8.2293C33.7322 8.2293 33.9526 8.17074 34.1098 8.05361C34.267 7.93649 34.3456 7.77159 34.3456 7.55892C34.3456 7.22913 33.9896 6.97947 33.2776 6.80995C33.0649 6.76064 32.8969 6.71903 32.7737 6.68512C32.1757 6.52793 31.7612 6.33221 31.53 6.09797C31.2988 5.86064 31.1833 5.53701 31.1833 5.12708C31.1833 4.60003 31.3805 4.17006 31.775 3.83719C32.1726 3.50123 32.6858 3.33325 33.3146 3.33325C33.5242 3.33325 33.7291 3.35483 33.9295 3.39798C34.1329 3.44113 34.3348 3.50585 34.5351 3.59216Z" />
</svg>
