<svg width="84" height="61" viewBox="0 0 84 61" fill="none" xmlns="http://www.w3.org/2000/svg">
<path fill-rule="evenodd" clip-rule="evenodd" d="M4.58015 1.83206C3.0708 1.83206 1.83206 3.0708 1.83206 4.58015V55.7863C1.83206 57.2956 3.0708 58.5344 4.58015 58.5344H79.4198C80.9292 58.5344 82.1679 57.2956 82.1679 55.7863V4.58015C82.1679 3.0708 80.9292 1.83206 79.4198 1.83206H4.58015ZM0 4.58015C0 2.05898 2.05898 0 4.58015 0H79.4198C81.941 0 84 2.05898 84 4.58015V55.7863C84 58.3074 81.941 60.3664 79.4198 60.3664H4.58015C2.05898 60.3664 0 58.3074 0 55.7863V4.58015Z" fill="#829AB1"/>
<path fill-rule="evenodd" clip-rule="evenodd" d="M49.5933 26.3457C48.7558 25.5082 47.5189 25.5082 46.6815 26.3457L27.7197 45.3075C27.1831 45.8441 26.3131 45.8441 25.7765 45.3075C25.2399 44.7709 25.2399 43.9009 25.7765 43.3643L44.7383 24.4025C46.6489 22.4918 49.6258 22.4918 51.5365 24.4025L70.4983 43.3643C71.0349 43.9009 71.0349 44.7709 70.4983 45.3075C69.9617 45.8441 69.0917 45.8441 68.5551 45.3075L49.5933 26.3457Z" fill="#007BFF"/>
<path fill-rule="evenodd" clip-rule="evenodd" d="M26.3262 29.8266C25.4887 28.9892 24.2518 28.9892 23.4144 29.8266L15.1701 38.0709C14.6335 38.6075 13.7635 38.6075 13.2269 38.0709C12.6903 37.5343 12.6903 36.6643 13.2269 36.1277L21.4712 27.8834C23.3818 25.9728 26.3587 25.9728 28.2693 27.8834L32.2999 31.914C32.8365 32.4506 32.8365 33.3206 32.2999 33.8572C31.7633 34.3938 30.8933 34.3938 30.3567 33.8572L26.3262 29.8266Z" fill="#007BFF"/>
<path d="M16.5803 20.2443C17.7439 20.2443 18.6871 19.301 18.6871 18.1374C18.6871 16.9738 17.7439 16.0305 16.5803 16.0305C15.4167 16.0305 14.4734 16.9738 14.4734 18.1374C14.4734 19.301 15.4167 20.2443 16.5803 20.2443Z" fill="#007BFF"/>
</svg>
