<svg width="24" height="24" viewBox="0 0 24 24" fill="none" xmlns="http://www.w3.org/2000/svg">
<path d="M5.828 17L8.364 14.464L6.95 13.05L2 18L6.95 22.95L8.364 21.536L5.828 19H13C15.1217 19 17.1566 18.1571 18.6569 16.6568C20.1571 15.1565 21 13.1217 21 11C21 8.87822 20.1571 6.84339 18.6569 5.3431C17.1566 3.8428 15.1217 2.99995 13 2.99995H4L4 4.99995H13C14.5913 4.99995 16.1174 5.63209 17.2426 6.75731C18.3679 7.88253 19 9.40865 19 11C19 12.5913 18.3679 14.1174 17.2426 15.2426C16.1174 16.3678 14.5913 17 13 17H5.828Z" fill="#486581"/>
</svg>
