<svg width="40" height="40" viewBox="0 0 40 40"  xmlns="http://www.w3.org/2000/svg">
<path d="M30.4561 18.386C30.0701 18.386 29.6841 18.4211 29.2982 18.4912C29.228 15.4737 26.7718 13.0526 23.7192 13.0526C23.0525 13.0526 22.421 13.1579 21.8245 13.3684C20.4561 11.3333 18.1403 10 15.5087 10C11.2982 10 7.89466 13.4035 7.89466 17.614C7.89466 17.9298 7.92974 18.2456 7.96483 18.5614C5.29816 19.2632 3.33325 21.6842 3.33325 24.5614C3.33325 28 6.10518 30.7719 9.54378 30.7719H18.3157V24.7018H16.1403C15.614 24.7018 15.2982 24.0702 15.614 23.6491L19.4736 18.4211C19.7543 18.0702 20.2806 18.0702 20.5262 18.4211L24.3859 23.6491C24.7017 24.0702 24.3859 24.7018 23.8596 24.7018H21.6841V30.8421H30.4561C33.8947 30.8421 36.6666 28.0702 36.6666 24.6316C36.6666 21.193 33.8947 18.386 30.4561 18.386Z" />
</svg>
