<svg width="22" height="22" viewBox="0 0 22 22" fill="none" xmlns="http://www.w3.org/2000/svg">
<g clip-path="url(#clip0)">
<path d="M11 11.5209L14.7716 15.2915L13.5138 16.5493L11.8889 14.9244V19.8889H10.1111V14.9226L8.48623 16.5493L7.22845 15.2915L11 11.5209ZM11 2.11108C12.5262 2.11116 13.9992 2.67207 15.1388 3.68719C16.2785 4.7023 17.0054 6.10083 17.1813 7.61686C18.2874 7.91848 19.2522 8.59918 19.9073 9.54C20.5623 10.4808 20.8659 11.6219 20.765 12.7639C20.6641 13.9058 20.1651 14.976 19.3552 15.7874C18.5453 16.5987 17.476 17.0997 16.3342 17.2026V15.4124C16.7433 15.354 17.1366 15.2147 17.4912 15.0026C17.8458 14.7905 18.1546 14.51 18.3996 14.1772C18.6446 13.8445 18.8209 13.4663 18.9181 13.0647C19.0154 12.6631 19.0316 12.2462 18.966 11.8383C18.9003 11.4303 18.7541 11.0395 18.5358 10.6887C18.3174 10.3379 18.0314 10.0341 17.6944 9.79506C17.3574 9.55599 16.9762 9.38645 16.5729 9.29634C16.1697 9.20622 15.7525 9.19734 15.3458 9.2702C15.485 8.62209 15.4775 7.95106 15.3238 7.30624C15.17 6.66143 14.874 6.05916 14.4574 5.54355C14.0408 5.02795 13.5141 4.61207 12.916 4.32637C12.3178 4.04067 11.6633 3.89239 11.0005 3.89239C10.3376 3.89239 9.68308 4.04067 9.08492 4.32637C8.48676 4.61207 7.96009 5.02795 7.54348 5.54355C7.12686 6.05916 6.83086 6.66143 6.67715 7.30624C6.52344 7.95106 6.51591 8.62209 6.65512 9.2702C5.84415 9.1179 5.00589 9.294 4.32476 9.75976C3.64363 10.2255 3.17541 10.9428 3.02312 11.7538C2.87083 12.5647 3.04693 13.403 3.51269 14.0841C3.97844 14.7652 4.6957 15.2335 5.50668 15.3858L5.66668 15.4124V17.2026C4.52485 17.0998 3.45548 16.599 2.64546 15.7877C1.83544 14.9764 1.3363 13.9062 1.23527 12.7643C1.13425 11.6223 1.43777 10.4811 2.09278 9.54022C2.74779 8.59932 3.71264 7.91854 4.81868 7.61686C4.99441 6.10075 5.72126 4.70212 6.86097 3.68696C8.00068 2.67181 9.47375 2.11096 11 2.11108Z" fill="#007BFF"/>
</g>
<defs>
<clipPath id="clip0">
<rect width="21.3333" height="21.3333" fill="white" transform="translate(0.333313 0.333252)"/>
</clipPath>
</defs>
</svg>
