<svg width="84" height="60" viewBox="0 0 84 60" fill="none" xmlns="http://www.w3.org/2000/svg">
<path fill-rule="evenodd" clip-rule="evenodd" d="M17.4803 16.1289C21.6424 6.36078 31.3446 0 42 0C52.6554 0 62.3577 6.36078 66.5198 16.1289C76.2786 16.678 84 24.7773 84 34.65V34.6621C83.9435 40.7695 80.9313 46.1968 76.3338 49.5367C75.7474 49.9628 74.9266 49.8328 74.5005 49.2463C74.0745 48.6599 74.2045 47.8391 74.791 47.413C78.7405 44.5438 81.3246 39.8848 81.375 34.6436C81.3716 25.915 74.339 18.8057 65.6129 18.7249L64.7227 18.7167L64.4011 17.8866C60.8371 8.68634 51.8781 2.625 42 2.625C32.122 2.625 23.163 8.68634 19.5989 17.8866L19.2774 18.7167L18.3872 18.7249C9.66096 18.8057 2.62832 25.9152 2.62506 34.6439C2.70911 43.3693 9.82058 50.4 18.55 50.4H18.555L41.7375 50.4875H42.2625L52.4951 50.4488C53.2199 50.4461 53.8098 51.0315 53.8125 51.7564C53.8153 52.4813 53.2298 53.0711 52.505 53.0738L42.2675 53.1125L42.2625 53.1125H41.7375L41.7326 53.1125L18.55 53.025C18.5493 53.025 18.5485 53.025 18.5477 53.025C8.38028 53.0237 0.0942879 44.8331 0.000112444 34.6621L0 34.65C0 24.7773 7.72149 16.678 17.4803 16.1289Z" fill="#829AB1"/>
<path fill-rule="evenodd" clip-rule="evenodd" d="M63.849 30.0457L54.04 42.4589C54.0278 42.4894 54.0156 42.5234 54.0053 42.5576C53.9967 42.5862 53.9914 42.6086 53.9886 42.6235C53.9911 42.6375 53.9986 42.6547 54.0156 42.6718C54.0376 42.6937 54.0598 42.6999 54.0751 42.6999H57.8375V56.7874C57.8375 57.0916 58.1458 57.3999 58.4501 57.3999H58.4566L70.175 57.4874C70.1759 57.4874 70.1767 57.4874 70.1775 57.4874C70.481 57.4857 70.7875 57.1783 70.7875 56.8749V56.8691L70.8808 42.7874H74.6375C74.6653 42.7874 74.6812 42.7838 74.6999 42.7776C74.7128 42.7733 74.7262 42.7681 74.7445 42.76C74.7577 42.7398 74.7634 42.7212 74.7652 42.707C74.768 42.6857 74.7647 42.6627 74.7418 42.634L74.7343 42.6246L64.9691 30.0693C64.9517 30.0524 64.944 30.0456 64.9362 30.0394C64.9296 30.0341 64.916 30.0236 64.8837 30.0075L64.8132 29.9722L64.75 29.9249C64.4684 29.7137 64.112 29.7482 63.849 30.0457ZM65.625 29.4874L66.3157 28.9502L76.1126 41.5462C76.7788 42.3849 76.585 43.5399 75.7966 44.1706L75.7243 44.2286L75.6413 44.27C75.6357 44.2728 75.63 44.2757 75.6241 44.2787C75.4386 44.3717 75.108 44.5374 74.6375 44.5374H72.6193L72.5375 56.8749C72.5375 56.876 72.5375 56.8772 72.5375 56.8783C72.5356 58.1476 71.4446 59.2374 70.175 59.2374L70.1685 59.2374L58.4501 59.1499C58.4488 59.1499 58.4475 59.1499 58.4462 59.1499C57.1771 59.1477 56.0875 58.0568 56.0875 56.7874V44.4499H54.0751C53.0668 44.4499 52.2375 43.6206 52.2375 42.6124C52.2375 42.2391 52.3927 41.8331 52.5049 41.6086L52.5452 41.528L62.4993 28.9312L62.5107 28.918C63.2824 28.0177 64.634 27.7005 65.7379 28.4797C65.9954 28.6203 66.1447 28.7696 66.2417 28.8666L66.2438 28.8687L65.625 29.4874Z" fill="#007BFF"/>
</svg>
