<svg width="20" height="20" viewBox="0 0 20 20" fill="none" xmlns="http://www.w3.org/2000/svg">
<path fill-rule="evenodd" clip-rule="evenodd" d="M8.33332 3.33341C7.00724 3.33341 5.73547 3.8602 4.79779 4.79788C3.86011 5.73556 3.33332 7.00733 3.33332 8.33342C3.33332 8.99002 3.46265 9.6402 3.71393 10.2468C3.9652 10.8535 4.3335 11.4047 4.79779 11.8689C5.26208 12.3332 5.81328 12.7015 6.41991 12.9528C7.02653 13.2041 7.67671 13.3334 8.33332 13.3334C8.98993 13.3334 9.64011 13.2041 10.2467 12.9528C10.8534 12.7015 11.4046 12.3332 11.8689 11.8689C12.3332 11.4047 12.7014 10.8535 12.9527 10.2468C13.204 9.6402 13.3333 8.99003 13.3333 8.33342C13.3333 7.00733 12.8065 5.73556 11.8689 4.79788C10.9312 3.8602 9.65941 3.33341 8.33332 3.33341ZM3.61928 3.61937C4.86952 2.36913 6.56521 1.66675 8.33332 1.66675C10.1014 1.66675 11.7971 2.36913 13.0474 3.61937C14.2976 4.86961 15 6.5653 15 8.33342C15 9.20889 14.8276 10.0758 14.4925 10.8846C14.2643 11.4355 13.9638 11.9522 13.5997 12.4212L18.0892 16.9108C18.4147 17.2363 18.4147 17.7639 18.0892 18.0893C17.7638 18.4148 17.2362 18.4148 16.9107 18.0893L12.4211 13.5997C11.9521 13.9638 11.4355 14.2644 10.8845 14.4926C10.0757 14.8276 9.2088 15.0001 8.33332 15.0001C7.45784 15.0001 6.59094 14.8276 5.7821 14.4926C4.97326 14.1576 4.23833 13.6665 3.61928 13.0475C3.00022 12.4284 2.50916 11.6935 2.17413 10.8846C1.8391 10.0758 1.66666 9.20889 1.66666 8.33342C1.66666 6.56531 2.36904 4.86961 3.61928 3.61937ZM8.33332 5.00008C8.79356 5.00008 9.16666 5.37318 9.16666 5.83342V7.50008H10.8333C11.2936 7.50008 11.6667 7.87318 11.6667 8.33342C11.6667 8.79365 11.2936 9.16675 10.8333 9.16675H9.16666V10.8334C9.16666 11.2937 8.79356 11.6667 8.33332 11.6667C7.87309 11.6667 7.49999 11.2937 7.49999 10.8334V9.16675H5.83332C5.37309 9.16675 4.99999 8.79365 4.99999 8.33342C4.99999 7.87318 5.37309 7.50008 5.83332 7.50008H7.49999V5.83342C7.49999 5.37318 7.87309 5.00008 8.33332 5.00008Z" fill="#334E68"/>
</svg>
